<svg width="47" height="32" viewBox="0 0 47 32" fill="none" xmlns="http://www.w3.org/2000/svg">
<g clip-path="url(#clip0_14897_86592)">
<path d="M34.0543 10.0717V7.99763H37.4765V8.22232C37.4765 12.5087 37.4938 16.7952 37.4765 21.0816C37.4765 22.5334 37.2864 23.9507 36.7506 25.3161C35.9209 27.4594 34.4345 28.9285 32.2222 29.5507C29.4913 30.3285 26.8469 30.1038 24.3407 28.6865C23.6148 28.2717 22.9753 27.7532 22.4222 27.131C22.3703 27.0791 22.3185 27.01 22.2839 26.9754C23.0963 26.1631 23.8913 25.368 24.6345 24.6248C24.8419 24.7976 25.0839 25.005 25.3086 25.1952C26.5876 26.2495 28.0567 26.647 29.6814 26.5433C30.4246 26.4915 31.1333 26.284 31.7901 25.9384C33.0345 25.2643 33.7259 24.21 33.9506 22.8445C34.0197 22.4124 34.037 21.9803 34.0716 21.5482C34.0543 21.531 34.037 21.531 34.0024 21.5137C33.916 21.6174 33.8296 21.7038 33.7259 21.8075C32.879 22.6026 31.8419 23.052 30.7358 23.3285C29.1975 23.6915 27.6592 23.7087 26.1555 23.1557C24.9802 22.7063 24.0296 21.9285 23.2172 20.9952C21.679 19.2322 21.074 17.1754 21.2642 14.8766C21.4888 11.9729 22.9753 9.8643 25.4469 8.44701C26.553 7.80751 27.7629 7.65195 29.0246 7.68652C29.8716 7.72109 30.7012 7.84208 31.4963 8.15319C32.4123 8.51615 33.1901 9.06924 33.8123 9.82973C33.8814 9.89887 33.9333 9.98528 34.0024 10.0544C34.0024 10.0544 34.0197 10.0544 34.0543 10.0717ZM29.3012 20.5112C32.0839 20.5458 34.2098 18.3507 34.1407 15.4643C34.0716 12.8544 32.0839 10.6939 29.2321 10.7285C26.4839 10.7458 24.4444 12.889 24.4617 15.6371C24.4963 18.4371 26.5185 20.5112 29.3012 20.5112Z" fill="#A7A7A7"/>
<path d="M16.1825 10.1063V7.99765H19.5702V23.2248H16.1998V21.5483C16.1653 21.5483 16.148 21.531 16.148 21.5483C15.2838 22.5162 14.1603 23.052 12.9332 23.3458C11.0319 23.7952 9.18254 23.7088 7.45415 22.7236C5.29365 21.4964 3.94551 19.647 3.51341 17.1927C3.2023 15.3952 3.34057 13.6322 4.1702 11.9902C5.32822 9.72604 7.10847 8.20506 9.66649 7.77296C11.3949 7.47913 13.0714 7.68654 14.5924 8.65444C15.2146 9.03469 15.7159 9.53592 16.148 10.1236C16.1653 10.089 16.1825 10.1063 16.1825 10.1063ZM6.58995 15.2223C6.58995 17.2273 7.19489 18.5581 8.4739 19.5606C9.4418 20.3211 10.5653 20.5631 11.7751 20.4939C12.6566 20.4421 13.469 20.1828 14.1949 19.6816C16.2862 18.2297 16.6838 15.5853 15.8541 13.6149C14.7134 10.8668 11.7233 10.1236 9.4418 11.126C7.506 11.9557 6.6418 13.5458 6.58995 15.2223Z" fill="#A7A7A7"/>
<path d="M42.7826 23.2076H39.3949V7.99768H42.7826V23.2076Z" fill="#A7A7A7"/>
<path d="M41.0888 6.39024C42.3011 6.39024 43.2839 5.40748 43.2839 4.19518C43.2839 2.98288 42.3011 2.00012 41.0888 2.00012C39.8765 2.00012 38.8937 2.98288 38.8937 4.19518C38.8937 5.40748 39.8765 6.39024 41.0888 6.39024Z" fill="#A7A7A7"/>
</g>
<defs>
<clipPath id="clip0_14897_86592">
<rect width="39.9432" height="28" fill="white" transform="translate(3.35834 2)"/>
</clipPath>
</defs>
</svg>
