<svg width="113" height="44" viewBox="0 0 113 44" fill="none" xmlns="http://www.w3.org/2000/svg">
<path fill-rule="evenodd" clip-rule="evenodd" d="M99.5359 35.1074C97.1183 35.1074 95.4707 36.9245 95.4707 39.3112C95.4707 41.7754 97.0259 43.4997 99.5359 43.4997C101.338 43.4997 102.646 42.699 103.263 40.8203H101.338C101.199 41.3132 100.49 41.8521 99.6129 41.8521C98.3963 41.8521 97.7188 41.2207 97.657 39.8346H103.401C103.555 37.3865 102.246 35.1074 99.5359 35.1074ZM97.657 38.4488C97.6879 37.8329 98.088 36.7548 99.4741 36.7548C100.537 36.7548 101.014 37.3401 101.214 38.4488H97.657ZM20.5067 35.1074C19.398 35.1074 18.5663 35.7388 18.1044 36.4317C17.6731 35.4772 16.7801 35.1074 15.779 35.1074C14.7475 35.1074 13.9158 35.5848 13.346 36.4011H13.315V35.3232H11.2515V43.0788L7.26891 32.2897H4.94154L0.895142 43.2842H3.29303L4.00335 41.1142L6.01798 41.1058L8.1908 41.1142L8.92107 43.2842H13.4384V38.6646C13.4384 37.1091 14.4856 36.8321 14.9169 36.8321C16.303 36.8321 16.2412 37.8947 16.2412 38.8183V43.2845H18.4278V38.8495C18.4278 37.8487 18.6587 36.8321 19.8908 36.8321C21.1381 36.8321 21.2305 37.7099 21.2305 38.7725V43.2845H23.4171V37.9563C23.4169 35.8928 22.2005 35.1074 20.5067 35.1074ZM6.01798 39.3887H4.55857L6.12279 34.6958L7.6353 39.3887H6.01798ZM27.8058 35.1074C25.3882 35.1074 23.7405 36.9245 23.7405 39.3112C23.7405 41.7754 25.2958 43.4997 27.8058 43.4997C29.6074 43.4997 30.9165 42.699 31.5324 40.8203H29.6071C29.4686 41.3132 28.7603 41.8521 27.8828 41.8521C26.6661 41.8521 25.9887 41.2207 25.9269 39.8346H31.6707C31.8249 37.3865 30.5161 35.1074 27.8058 35.1074ZM25.9269 38.4488C25.9578 37.8329 26.3582 36.7548 27.744 36.7548C28.8066 36.7548 29.2837 37.3401 29.4841 38.4488H25.9269ZM34.6308 36.3581C34.5083 36.4856 34.3352 36.4202 34.3341 36.2443V35.3232H32.2551V43.2845H34.4417V39.6964C34.4417 38.2949 34.9685 37.0895 36.9775 37.0895L36.9815 35.1074C35.9191 35.1074 35.2217 35.4196 34.6308 36.3581ZM37.394 43.2842H39.5808V35.3229H37.394V43.2842ZM37.394 34.0908H39.5808V32.2892H37.394V34.0908ZM44.0473 41.8521C42.6767 41.8521 42.2302 40.4817 42.2302 39.3421C42.2302 38.1718 42.6921 36.7548 44.0934 36.7548C45.0018 36.7548 45.5716 37.2325 45.7101 38.1254H47.8507C47.7121 36.0931 45.9872 35.1074 44.1088 35.1074C41.5216 35.1074 40.0433 36.9397 40.0433 39.4191C40.0433 41.806 41.6601 43.4997 44.0625 43.4997C46.1569 43.4997 47.6197 42.3449 47.8967 40.2353H45.7871C45.6486 41.2053 45.0636 41.8521 44.0473 41.8521ZM55.8684 37.3707C55.8684 35.4612 53.9589 35.1071 52.373 35.1071C50.5868 35.1071 48.7543 35.7228 48.6309 37.7708H50.8178C50.8948 36.9088 51.4337 36.5699 52.2654 36.5699C53.0353 36.5699 53.6821 36.7084 53.6821 37.648C53.6821 38.541 52.4348 38.4949 51.0951 38.6953C49.74 38.8799 48.3848 39.3109 48.3848 41.1128C48.3848 42.7453 49.5857 43.4997 51.0951 43.4997C52.0651 43.4997 53.0814 43.2376 53.7746 42.5144C53.79 42.7762 53.8516 43.0375 53.9285 43.2842H56.146C55.946 42.9608 55.8687 42.2367 55.8687 41.5132V37.3707H55.8684ZM53.6818 40.2041C53.6818 40.6815 53.6203 42.0367 51.9111 42.0367C51.2027 42.0367 50.5714 41.8456 50.5714 41.0296C50.5714 40.2289 51.1873 39.9883 51.865 39.8501C52.5425 39.727 53.3124 39.7116 53.6818 39.3879V40.2041ZM60.9047 35.1074C59.9809 35.1074 59.0261 35.5384 58.4717 36.4317H58.4256V35.3232H56.3469V43.2845H58.5335V39.1111C58.5335 37.4944 59.0418 36.8321 60.227 36.8321C61.2433 36.8321 61.6285 37.4789 61.6285 38.7877V43.2845H63.8148V38.387C63.8151 36.4162 63.2301 35.1074 60.9047 35.1074ZM74.2592 42.7779L70.3875 32.2892H68.0602L64.0141 43.2842H66.4119L67.122 41.1142L69.1369 41.1058L71.3094 41.1142L72.0397 43.2842H76.4458V35.3229H74.2592V42.7779ZM69.1366 39.3887H67.6772L69.2414 34.6958L70.7539 39.3887H69.1366ZM74.2592 34.0908H76.4458V32.2892H74.2592V34.0908ZM82.1924 43.2842H84.3787V32.2892H82.1924V43.2842ZM84.8454 43.2842H87.0323V35.3229H84.8454V43.2842ZM84.8454 34.0908H87.0323V32.2892H84.8454V34.0908ZM92.0964 35.1074C91.1722 35.1074 90.2175 35.5384 89.6634 36.4317H89.617V35.3232H87.5383V43.2845H89.7252V39.1111C89.7252 37.4944 90.2332 36.8321 91.4189 36.8321C92.435 36.8321 92.8202 37.4789 92.8202 38.7877V43.2845H95.0065V38.387C95.0065 36.4162 94.4215 35.1074 92.0964 35.1074ZM108.857 38.4949C107.61 38.2024 106.378 38.0945 106.378 37.3092C106.378 36.6624 107.102 36.5699 107.594 36.5699C108.379 36.5699 109.026 36.8009 109.088 37.648H111.167C110.997 35.6924 109.396 35.1071 107.656 35.1071C105.946 35.1071 104.191 35.6303 104.191 37.6635C104.191 39.0645 105.454 39.5112 106.716 39.7883C108.287 40.1271 109.195 40.3578 109.195 41.0204C109.195 41.7903 108.395 42.0367 107.763 42.0367C106.901 42.0367 106.1 41.6515 106.085 40.6967H104.006C104.098 42.8066 105.9 43.4995 107.748 43.4995C109.565 43.4995 111.382 42.822 111.382 40.7279C111.383 39.2496 110.135 38.7874 108.857 38.4949ZM111.546 32.4729C110.858 32.4729 110.304 33.0276 110.304 33.7081C110.303 33.8713 110.335 34.0329 110.398 34.1837C110.46 34.3345 110.551 34.4715 110.667 34.5869C110.782 34.7023 110.919 34.7937 111.07 34.8561C111.221 34.9184 111.382 34.9503 111.546 34.9501C112.229 34.9501 112.781 34.3954 112.781 33.7081C112.781 33.5459 112.749 33.3853 112.687 33.2354C112.625 33.0856 112.534 32.9494 112.419 32.8347C112.304 32.72 112.168 32.629 112.018 32.567C111.868 32.5049 111.708 32.4729 111.546 32.4729ZM111.546 34.8006C111.402 34.8008 111.26 34.7726 111.128 34.7177C110.995 34.6628 110.875 34.5823 110.774 34.4807C110.672 34.3792 110.592 34.2586 110.538 34.126C110.483 33.9934 110.456 33.8512 110.456 33.7079C110.456 33.565 110.484 33.4235 110.539 33.2915C110.594 33.1596 110.674 33.0397 110.776 32.9388C110.877 32.838 110.997 32.758 111.129 32.7036C111.261 32.6492 111.403 32.6215 111.546 32.6219C111.688 32.6219 111.829 32.65 111.961 32.7045C112.093 32.7591 112.213 32.8391 112.313 32.94C112.414 33.0408 112.494 33.1605 112.549 33.2923C112.603 33.424 112.631 33.5653 112.631 33.7079C112.632 33.851 112.604 33.9928 112.55 34.1252C112.496 34.2577 112.416 34.3781 112.315 34.4796C112.214 34.5811 112.095 34.6617 111.962 34.7168C111.83 34.7719 111.689 34.8004 111.546 34.8006Z" fill="#A7A7A7"/>
<path fill-rule="evenodd" clip-rule="evenodd" d="M112.181 33.3839C112.181 33.2673 112.129 33.1439 112.025 33.0855C111.922 33.024 111.805 33.0175 111.688 33.0175H111.085V34.4019H111.254V33.7635H111.565L111.961 34.4019H112.161L111.743 33.7635C111.99 33.7568 112.181 33.6562 112.181 33.3839ZM111.513 33.6303H111.254V33.1408H111.649C111.821 33.1408 112.009 33.1667 112.009 33.3808C112.009 33.6626 111.707 33.6303 111.513 33.6303ZM79.4621 36.3581C79.3396 36.4856 79.1665 36.4202 79.1651 36.2443V35.3232H77.0864V43.2845H79.2733V39.6964C79.2733 38.2949 79.7995 37.0895 81.8088 37.0895L81.813 35.1074C80.7501 35.1074 80.053 35.4196 79.4621 36.3581ZM47.5314 8.12739L42.2633 23.7297H45.3024L46.4171 20.2851H52.1918L51.4829 18.0561H47.0248L49.2536 10.9642L53.3062 23.7297H56.3458L51.1788 8.12739H47.5314ZM59.486 23.7297L60.6007 20.2851H66.3757L65.6665 18.0561H61.2087L63.4375 10.9642L67.4903 23.7297H70.5294L65.3628 8.12739H61.7151L56.447 23.7297H59.486ZM59.86 5.77081C60.001 5.36667 60.0069 4.92767 59.8769 4.51988L58.5248 0.530518L57.8316 2.57578L58.1191 2.86322C58.2539 3.01551 58.1019 3.26867 57.9499 3.11666L57.7131 2.8798L57.4762 3.62383L57.6959 3.89414C57.8145 4.01243 57.6791 4.28301 57.527 4.11386L57.3576 3.94471L57.1207 4.63761L57.3745 4.87448C57.5268 5.04363 57.3408 5.26335 57.1885 5.11106L57.0196 4.94219L56.8842 5.34793L58.4565 9.9459L59.86 5.77081ZM53.3517 5.56794C53.2235 5.39345 53.1151 5.44964 53.2337 5.85538C53.3517 6.26112 53.7406 6.4977 53.9266 6.75115C54.0617 6.90344 53.9266 7.00459 53.7745 6.8523C53.6223 6.70029 53.5464 6.78515 53.6475 7.08889C53.7481 7.39038 54.1803 7.76549 54.2983 7.90064C54.4169 8.03579 54.3492 8.1878 54.2137 8.05293C54.0786 7.91778 53.9434 8.00207 54.1126 8.44181C54.2814 8.88126 54.6026 9.08413 54.9069 9.21928C55.2112 9.35471 55.0252 9.40529 54.6872 9.40529L55.8788 12.9299C56.1325 12.981 56.6481 13.1159 56.3607 13.2766V13.5132C56.6313 13.4118 56.9693 13.3612 57.2567 13.4455C57.1382 13.2766 57.0873 13.2429 56.9016 13.2255C56.7496 13.1412 56.6141 13.0566 56.6987 12.8032L56.8844 12.262C56.969 12.0254 57.155 11.9749 57.3748 12.2112L58.5411 13.3269C58.6004 13.3859 58.4737 13.3859 58.4737 13.4452C58.7268 13.6225 59.082 13.1409 58.8114 12.6506C58.5411 12.1603 58.2877 11.704 58.1185 11.1968L54.5183 0.572665L53.8928 2.39848L54.1466 2.69435C54.2814 2.8295 54.1041 3.04951 53.969 2.91408L53.7917 2.70278L53.4534 3.70869L53.7917 4.08071C53.9437 4.233 53.7748 4.48644 53.5885 4.28358L53.3351 4.01299C53.3351 4.01299 52.9462 4.90904 53.4365 5.41621L53.5548 5.55136C53.656 5.65251 53.538 5.82166 53.3517 5.56794ZM53.9606 12.2202C54.0364 12.2202 54.0789 12.2879 54.0957 12.3384H54.5689C54.5944 12.271 54.6366 12.2202 54.7127 12.2202C54.772 12.2202 54.8226 12.2623 54.8395 12.3384C54.8395 12.3384 55.0679 12.3469 55.0679 12.3384C55.0679 12.3303 54.5436 10.8001 54.5436 10.8001L53.0392 12.3384H53.8251C53.8251 12.3382 53.8676 12.2202 53.9606 12.2202Z" fill="#A7A7A7"/>
</svg>
