<svg width="161" height="32" viewBox="0 0 161 32" fill="none" xmlns="http://www.w3.org/2000/svg">
<g clip-path="url(#clip0_17328_281)">
<path d="M147.678 13.1844C147.837 13.2375 147.89 13.2375 147.944 13.2375H156.497C156.709 13.2375 156.922 13.0782 157.028 12.9188C157.506 12.3344 157.931 11.6969 158.409 11.1125C158.94 10.3688 159.1 9.51877 158.622 8.66877C158.197 7.8719 157.506 7.4469 156.55 7.4469C151.556 7.4469 146.615 7.4469 141.622 7.4469C139.231 7.4469 137.212 8.40315 135.725 10.3157C133.069 13.7688 130.465 17.2219 127.862 20.7282C127.331 21.4719 127.225 22.2688 127.65 23.1188C128.075 23.9688 128.765 24.3407 129.722 24.3407H144.756C147.147 24.3407 149.059 23.3313 150.6 21.525C150.972 21.1 151.344 20.675 151.609 20.25C152.247 19.1344 153.097 18.55 154.372 18.8688C154.69 18.9219 154.903 18.7625 155.115 18.4969C155.806 17.5938 156.497 16.6907 157.187 15.7344C157.24 15.6282 157.347 15.5219 157.4 15.3625C153.681 15.3625 150.069 15.3625 146.403 15.3625C146.244 15.3625 145.978 15.5219 145.872 15.6813C144.809 17.1157 143.747 18.4969 142.684 19.9313C142.206 20.6219 141.569 20.9407 140.719 20.9407C139.975 20.9407 139.178 20.9938 138.434 20.9407C138.169 20.9407 137.85 20.7813 137.744 20.5688C137.637 20.4094 137.744 19.9844 137.85 19.825C139.869 17.1688 141.834 14.4594 143.853 11.8032C144.225 11.2719 144.809 11.0063 145.447 11.0063C146.297 11.0063 147.147 10.9532 147.997 11.0063C148.209 11.0063 148.581 11.1657 148.634 11.325C148.74 11.5375 148.634 11.8563 148.528 12.0688C148.262 12.4938 147.997 12.8125 147.678 13.1844ZM132.431 7.50002H131.847C130.2 7.50002 128.553 7.50002 126.906 7.50002C126.534 7.50002 126.322 7.60627 126.056 7.92502C124.144 10.475 122.231 13.025 120.319 15.575C120.212 15.7344 120.053 15.8938 119.894 16.1063C119.84 15.8938 119.787 15.7875 119.734 15.6813C119.15 13.1313 118.512 10.5813 117.981 8.03127C117.875 7.6594 117.769 7.50002 117.344 7.50002C115.325 7.50002 113.253 7.50002 111.234 7.50002C110.809 7.50002 110.544 7.60627 110.278 7.97815C106.294 13.2907 102.309 18.55 98.3248 23.8625C98.2185 24.0219 98.1123 24.1813 97.9529 24.3407C98.1654 24.3407 98.3248 24.3938 98.431 24.3938H103.478C103.797 24.3938 104.009 24.2875 104.222 24.0219C106.134 21.4719 107.994 18.975 109.906 16.425C110.012 16.2657 110.172 16.1063 110.331 15.8938C110.384 16.1594 110.49 16.3719 110.49 16.5313C111.075 18.975 111.606 21.4188 112.19 23.8625C112.297 24.2875 112.403 24.3938 112.828 24.3938H119.097C119.415 24.3938 119.681 24.2875 119.894 24.0219C122.337 20.7282 124.834 17.4875 127.278 14.1938C129.031 12.0157 130.678 9.83753 132.431 7.50002ZM90.1435 7.55315C89.931 7.55315 89.8248 7.55315 89.7185 7.55315C83.8217 7.55315 77.9248 7.55315 72.0279 7.55315C71.8154 7.55315 71.4967 7.71252 71.3373 7.92502C67.2998 13.2375 63.3154 18.6032 59.2779 23.9157C59.1717 24.075 59.1185 24.1813 58.9592 24.3938H59.7029C65.0685 24.3938 70.4342 24.3407 75.8529 24.4469C77.0217 24.4469 77.8185 24.2344 78.4029 23.1719C78.8279 22.4282 79.4654 21.7375 80.0498 20.9407H70.806C70.9654 20.7282 71.0185 20.5688 71.1248 20.4625C71.7092 19.6657 72.3467 18.8157 72.931 18.0188C73.1435 17.7 73.4092 17.5938 73.781 17.5938H82.0685C82.4404 17.5938 82.6529 17.4875 82.8654 17.2219C83.556 16.3188 84.2467 15.4157 84.9373 14.4594C84.9904 14.3532 85.0435 14.2469 85.1498 14.0344H75.906C76.5967 13.1313 77.2342 12.2813 77.8185 11.4844C78.0842 11.1125 78.3498 10.9532 78.8279 10.9532H87.0623C87.2748 10.9532 87.5404 10.9 87.6467 10.7407C88.4967 9.73127 89.2935 8.66877 90.1435 7.55315ZM82.8123 24.3938H83.3967H91.4185C91.8435 24.3938 92.056 24.2344 92.3217 23.9157C96.306 18.6032 100.29 13.3438 104.275 8.03127C104.381 7.8719 104.487 7.71252 104.647 7.50002C104.434 7.50002 104.275 7.50002 104.115 7.50002C101.406 7.50002 98.6967 7.50002 95.9873 7.50002C95.6154 7.50002 95.4029 7.6594 95.1904 7.92502C91.206 13.2375 87.1685 18.55 83.1842 23.8625C83.0779 24.0219 82.9717 24.1813 82.8123 24.3938ZM29.0498 16.3719C29.9529 17.5938 29.9529 18.1782 29.0498 19.3469C28.5185 20.0375 28.0404 20.7282 27.5092 21.3657C25.9685 23.3313 23.9498 24.3938 21.3998 24.3938C15.131 24.5 8.75603 24.3938 2.43416 24.3938C2.32791 24.3938 2.22166 24.3938 2.00916 24.3407C2.16853 24.1282 2.27478 23.9688 2.38103 23.8094C6.36541 18.4969 10.3498 13.2375 14.3342 7.92502C14.5998 7.6594 14.8654 7.50002 15.2904 7.50002H33.1935C34.2029 7.50002 34.9998 7.81877 35.4779 8.7219C35.956 9.62502 35.7435 10.5281 35.106 11.325C34.5217 12.1219 33.9373 12.9188 33.2998 13.6625C32.3435 14.8844 31.0685 15.7344 29.581 16.1594C29.4217 16.2125 29.2623 16.3188 29.0498 16.3719ZM13.8029 20.8875C15.2904 20.8875 16.6717 20.9407 17.9998 20.8344C18.4248 20.7813 18.956 20.4094 19.2748 20.0375C19.6998 19.6657 19.9654 19.1875 20.2842 18.7094C20.4435 18.4969 20.5498 18.125 20.4435 17.9657C20.3373 17.8063 20.0185 17.6469 19.7529 17.5938C18.7967 17.5407 17.8404 17.5938 16.831 17.5407C16.3529 17.5407 16.0873 17.7 15.8217 18.0719C15.3967 18.6563 14.9717 19.2407 14.5467 19.825C14.3873 20.1438 14.1217 20.4625 13.8029 20.8875ZM18.956 14.0875H21.6123C23.9498 14.0875 23.9498 14.0875 25.2779 12.2282C25.2779 12.2282 25.331 12.175 25.331 12.1219C25.3842 11.8563 25.5435 11.5375 25.4373 11.3782C25.331 11.2188 25.0123 11.0063 24.7467 11.0063C23.6842 10.9532 22.6217 11.0063 21.6123 11.0063C21.4529 11.0063 21.2935 11.0594 21.1873 11.1657C20.4435 12.0688 19.7529 13.025 18.956 14.0875ZM42.7029 24.5C40.206 24.5 37.5498 24.3938 35.0529 24.3938C34.0435 24.3938 33.2467 24.075 32.7685 23.1719C32.2904 22.2157 32.5029 21.3657 33.1404 20.5688C35.6373 17.3282 38.081 14.0344 40.5248 10.7407C42.1717 8.61565 44.3498 7.50002 47.0592 7.50002H61.5092C62.5185 7.50002 63.3154 7.81877 63.7404 8.7219C64.1654 9.62502 64.006 10.475 63.3685 11.2719C60.8717 14.5657 58.4279 17.8594 55.931 21.1532C54.3373 23.225 52.2123 24.3407 49.6092 24.3407C47.2185 24.3938 45.0404 24.5 42.7029 24.5ZM44.7217 20.9407H45.8904C46.581 20.9407 47.1654 20.675 47.6435 20.0907C49.6623 17.4344 51.6279 14.7782 53.6467 12.1219C53.806 11.9094 53.8592 11.5375 53.806 11.3782C53.6998 11.1657 53.381 11.0063 53.1154 11.0063C52.2654 10.9532 51.4685 11.0063 50.6185 11.0063C49.981 11.0063 49.4498 11.2719 49.0779 11.75C47.006 14.4594 44.9873 17.1688 42.9685 19.8782C42.8623 20.0375 42.8092 20.4094 42.8623 20.5688C42.9154 20.7282 43.2873 20.8875 43.4998 20.8875C43.9248 20.9407 44.3498 20.9407 44.7217 20.9407Z" fill="#A7A7A7"/>
</g>
<defs>
<clipPath id="clip0_17328_281">
<rect width="156.825" height="17" fill="white" transform="translate(2.0625 7.5)"/>
</clipPath>
</defs>
</svg>
