<svg width="60" height="32" viewBox="0 0 60 32" fill="none" xmlns="http://www.w3.org/2000/svg">
<g clip-path="url(#clip0_14897_86607)">
<path d="M55.8502 26.8889C56.4983 27.7963 56.3687 28.963 55.5909 29.6111C54.6835 30.2593 53.3872 30.1296 52.7391 29.3519L48.202 23.5185L43.7946 29.2222C43.1465 30.1296 41.8502 30.1296 40.9428 29.4815C40.0354 28.8333 39.9057 27.6667 40.5539 26.7593L45.7391 20.0185L40.5539 13.2778C39.9057 12.3704 40.165 11.0741 40.9428 10.4259C41.8502 9.77778 43.1465 10.037 43.7946 10.8148L48.202 16.6482L52.7391 11.0741C53.3872 10.1667 54.5539 10.037 55.5909 10.6852C56.4983 11.3333 56.4983 12.6296 55.8502 13.537L50.7946 20.1482L55.8502 26.8889ZM32.2576 26.1111C28.8872 26.1111 26.165 23.5185 26.165 20.1482C26.165 16.9074 28.8872 14.1852 32.2576 14.1852C35.628 14.1852 38.3502 16.9074 38.3502 20.1482C38.2206 23.5185 35.4983 26.1111 32.2576 26.1111ZM14.3687 26.1111C10.9983 26.1111 8.2761 23.5185 8.2761 20.1482C8.2761 16.9074 10.9983 14.1852 14.3687 14.1852C17.7391 14.1852 20.4613 16.9074 20.4613 20.1482C20.4613 23.5185 17.7391 26.1111 14.3687 26.1111ZM32.2576 10.2963C28.4983 10.2963 25.128 12.3704 23.4428 15.4815C21.7576 12.3704 18.3872 10.2963 14.4983 10.2963C12.165 10.2963 10.0909 11.0741 8.40573 12.2407V3.94444C8.40573 2.90741 7.49832 2 6.46128 2C5.29461 2 4.38721 2.90741 4.38721 3.94444V20.2778C4.51684 25.7222 8.92424 30 14.3687 30C18.2576 30 21.628 27.7963 23.3131 24.6852C24.9983 27.7963 28.3687 30 32.128 30C37.702 30 42.2391 25.5926 42.2391 20.0185C42.3687 14.7037 37.8317 10.2963 32.2576 10.2963Z" fill="#A7A7A7"/>
</g>
<defs>
<clipPath id="clip0_14897_86607">
<rect width="51.8518" height="28" fill="white" transform="translate(4.38721 2)"/>
</clipPath>
</defs>
</svg>
