<svg width="136" height="31" viewBox="0 0 136 31" fill="none" xmlns="http://www.w3.org/2000/svg">
<g clip-path="url(#clip0_17338_359)">
<path d="M134.161 16.7695C133.658 16.7695 133.254 16.3613 133.254 15.8527V2.78114C133.254 1.25315 132.026 0.0151367 130.516 0.0151367H127.778V3.24066H128.685C129.189 3.24066 129.593 3.64886 129.593 4.15745V7.48558C128.383 6.04235 126.685 5.12555 124.804 5.12555C121.158 5.12555 118.199 8.5206 118.199 12.7298C118.199 16.9391 121.156 20.3341 124.804 20.3341C126.72 20.3341 128.449 19.3839 129.659 17.8893C129.944 19.0939 131.037 19.9951 132.331 19.9951H135.069V16.7695H134.161ZM125.727 16.6335C123.592 16.6335 121.863 14.8846 121.863 12.7298C121.863 10.575 123.594 8.8262 125.727 8.8262C127.86 8.8262 129.591 10.575 129.591 12.7298C129.591 14.8846 127.86 16.6335 125.727 16.6335Z" fill="#A7A7A7"/>
<path d="M50.5626 5.46456C49.2687 5.46456 48.1934 6.36351 47.8909 7.5859C46.6808 6.07576 44.9497 5.14111 43.0354 5.14111C39.3899 5.14111 36.4311 8.53616 36.4311 12.7454C36.4311 16.9546 39.3877 20.3497 43.0354 20.3497C44.9166 20.3497 46.6146 19.4507 47.8246 17.9897V19.8567C47.8246 22.0137 46.0935 23.8964 43.9605 23.8964H43.0861V27.3941H43.9429C45.3538 27.3941 46.6985 27.0706 47.8246 26.3747C50.0084 25.0497 51.4878 22.6227 51.4878 19.8567V9.62026C51.4878 9.11167 51.8918 8.70346 52.3953 8.70346H53.3028V5.47794H50.5648V5.4601L50.5626 5.46456ZM43.9429 16.6334C41.8099 16.6334 40.0788 14.8846 40.0788 12.7298C40.0788 10.575 41.8099 8.82615 43.9429 8.82615C46.0758 8.82615 47.807 10.575 47.807 12.7298C47.807 14.8846 46.0758 16.6334 43.9429 16.6334Z" fill="#A7A7A7"/>
<path d="M10.3364 5.12555C8.45513 5.12555 6.75714 6.02451 5.54713 7.48558V2.78114C5.54713 1.25538 4.31946 0.0151367 2.80695 0.0151367H0.0689697V3.24066H0.976477C1.47991 3.24066 1.88398 3.64886 1.88398 4.15745V19.9794H5.54713V17.9585C6.75714 19.4017 8.45513 20.3185 10.3364 20.3185C13.9819 20.3185 16.9407 16.9235 16.9407 12.7142C16.9407 8.50499 13.9841 5.12555 10.3364 5.12555ZM9.42888 16.6513C7.29591 16.6513 5.5648 14.9025 5.5648 12.7477C5.5648 10.5929 7.29591 8.84405 9.42888 8.84405C11.5619 8.84405 13.293 10.5929 13.293 12.7477C13.293 14.9025 11.5619 16.6513 9.42888 16.6513Z" fill="#A7A7A7"/>
<path d="M88.2363 4.97168C84.0851 4.97168 80.709 8.36673 80.709 12.576C80.709 16.7852 84.0697 20.1802 88.2363 20.1802C92.4029 20.1802 95.7635 16.7852 95.7635 12.576C95.7635 8.36673 92.3852 4.97168 88.2363 4.97168ZM88.2363 16.4818C86.1011 16.4818 84.3722 14.733 84.3722 12.5782C84.3722 10.4234 86.1033 8.67456 88.2363 8.67456C90.3692 8.67456 92.1004 10.4234 92.1004 12.5782C92.1004 14.733 90.3692 16.4818 88.2363 16.4818Z" fill="#A7A7A7"/>
<path d="M61.5366 8.70568C62.9652 8.70568 64.226 9.48641 64.8796 10.6575L68.0547 8.80606C66.7608 6.5308 64.3253 5.00281 61.5344 5.00281C57.3832 5.00281 54.0071 8.4157 54.0071 12.6071C54.0071 16.7985 57.3855 20.2114 61.5344 20.2114C64.3231 20.2114 66.7432 18.6834 68.0547 16.4081L64.8796 14.5567C64.2083 15.7278 62.963 16.5085 61.5366 16.5085C59.4014 16.5085 57.6725 14.7597 57.6725 12.6049C57.6725 10.4501 59.4036 8.70122 61.5366 8.70122V8.70568Z" fill="#A7A7A7"/>
<path d="M74.9946 7.58599C74.7098 6.3636 73.6168 5.46465 72.3406 5.46465H69.6026V8.69016H70.5101C71.0135 8.69016 71.4176 9.09837 71.4176 9.60696V19.9795H75.0631V12.6295C75.0631 10.4747 76.7942 8.72586 78.9272 8.72586H79.8347V5.14343C77.9358 5.14343 76.2047 6.07807 74.9946 7.58822V7.58599Z" fill="#A7A7A7"/>
<path d="M112.317 7.36514L110.553 14.0036L108.285 5.51593H105.53L103.262 14.0214L101.498 7.38298C101.129 6.27881 100.102 5.48247 98.8923 5.48247H96.4215V8.70799H97.4968C97.9009 8.70799 98.252 8.98013 98.3712 9.35265C98.3889 9.38611 101.195 20.0129 101.195 20.0129H104.876L106.91 12.3729L108.943 20.0129H112.624C112.624 20.0129 115.448 9.38611 115.448 9.35265C115.565 8.98013 115.919 8.70799 116.323 8.70799H117.398V5.48247H114.927C113.717 5.46463 112.693 6.2632 112.322 7.36737L112.317 7.36514Z" fill="#A7A7A7"/>
<path d="M33.5916 15.8371V5.43115H29.9284V13.4436C29.9284 15.2081 28.4998 16.6513 26.7532 16.6513C25.0067 16.6513 23.5781 15.2081 23.5781 13.4436V8.19716C23.5781 6.66916 22.3504 5.43115 20.8401 5.43115H18.1021V8.65667H19.0096C19.5131 8.65667 19.9171 9.06488 19.9171 9.57347V15.0564C19.9171 17.8403 22.0523 20.1311 24.7572 20.3363C24.808 20.3542 24.8587 20.3542 24.9073 20.3542H25.3953C25.4461 20.3363 25.4969 20.3363 25.5454 20.3363C27.3097 20.2181 28.8884 19.3013 30.0145 17.8916C30.2994 19.0961 31.3747 19.9973 32.6686 19.9973H35.4066V16.7539H34.4991C33.9956 16.7539 33.5916 16.3457 33.5916 15.8371Z" fill="#A7A7A7"/>
</g>
<defs>
<clipPath id="clip0_17338_359">
<rect width="135" height="30" fill="white" transform="translate(0.0689697 0.0151367)"/>
</clipPath>
</defs>
</svg>
