<svg width="69" height="33" viewBox="0 0 69 33" fill="none" xmlns="http://www.w3.org/2000/svg">
<g clip-path="url(#clip0_17328_269)">
<path d="M18.3471 12.3291C18.1429 12.7693 17.9729 13.1825 17.7655 13.5759C16.5878 15.8159 14.6283 16.9911 12.2461 17.5481C10.3143 18.0003 8.35006 18.0996 6.37067 17.9804C5.63167 17.9359 4.89347 17.8867 4.15528 17.8271C3.71824 17.7921 3.64672 17.6069 3.64831 17.2263C3.65944 13.7046 3.65467 10.1828 3.65467 6.6619C3.65467 4.92725 3.66659 3.1934 3.64593 1.45875C3.64116 1.04158 3.73175 0.849282 4.18706 0.801605C6.95709 0.513159 9.7311 0.29464 12.4868 0.858817C14.8008 1.33241 16.7031 2.45917 17.8918 4.59351C18.1421 5.04247 18.2851 5.53672 18.5227 6.07945C18.7985 5.44614 19.0392 4.8764 19.3754 4.35751C20.7787 2.1898 22.8216 1.00185 25.3135 0.55289C27.1745 0.217562 29.0292 0.30497 30.8504 0.853255C30.9768 0.891397 31.0999 0.939868 31.2263 0.979599C31.5203 1.07098 31.6077 1.23785 31.5195 1.55093C31.2994 2.32727 31.0991 3.10997 30.918 3.89664C30.8441 4.21687 30.7265 4.25183 30.4261 4.14932C28.8528 3.61455 27.2492 3.4294 25.6306 3.92445C23.656 4.52915 22.5705 5.93006 22.2161 7.9174C22.0143 9.04972 22.0628 10.186 22.3925 11.2969C22.9781 13.2683 24.596 14.5556 26.6437 14.763C27.9318 14.8933 29.1777 14.7376 30.407 14.3808C30.7034 14.295 30.8313 14.3228 30.8886 14.6557C31.0157 15.3987 31.1635 16.1393 31.3399 16.8719C31.4329 17.2581 31.2882 17.4234 30.945 17.5394C30.2258 17.7826 29.4869 17.9272 28.7375 18.013C26.8893 18.2252 25.06 18.1433 23.292 17.5132C20.9288 16.6717 19.3007 15.0793 18.4814 12.6891C18.4433 12.5786 18.3996 12.4705 18.3463 12.3291H18.3471ZM7.64126 9.20547C7.64126 10.9131 7.64046 12.6207 7.64126 14.3284C7.64126 14.8258 7.70562 14.8981 8.21418 14.9076C8.83557 14.9196 9.45616 14.9275 10.0752 14.8337C12.2524 14.504 13.7733 13.3915 14.3701 11.2079C14.7761 9.72276 14.7872 8.22094 14.3391 6.74295C13.972 5.53116 13.1917 4.63086 12.0458 4.08734C10.7943 3.49456 9.45696 3.50489 8.11247 3.6074C7.7533 3.63441 7.62775 3.79095 7.63172 4.16283C7.65079 5.84345 7.64046 7.52485 7.64046 9.20547H7.64126Z" fill="#A7A7A7"/>
<path d="M51.428 18.156C45.7917 18.156 40.1555 18.1528 34.5193 18.1631C34.1363 18.1631 33.9853 18.0853 33.9901 17.6641C34.0108 15.5727 34.0084 13.4805 33.9917 11.3882C33.9885 10.9949 34.0998 10.8582 34.5066 10.859C45.8005 10.8678 57.0944 10.8662 68.3883 10.867C68.8642 10.867 68.9024 10.9059 68.9032 11.3938C68.9055 13.486 68.8968 15.5774 68.9111 17.6697C68.9135 18.0463 68.8038 18.1655 68.4153 18.1647C62.7528 18.1528 57.0904 18.156 51.428 18.156Z" fill="#A7A7A7"/>
<path d="M51.4707 21.1898C57.0847 21.1898 62.6987 21.1898 68.3126 21.1898C68.903 21.1898 68.9046 21.1914 68.9054 21.7866C68.9054 23.8256 68.9062 25.8645 68.9054 27.9035C68.9054 28.4526 68.8991 28.4574 68.3508 28.4574C57.0831 28.4574 45.8162 28.4574 34.5486 28.4574C34.0035 28.4574 34.0011 28.455 34.0011 27.9027C34.0003 25.8638 34.0011 23.8248 34.0011 21.7858C34.0011 21.1922 34.0027 21.1906 34.5907 21.1906C40.2182 21.1906 45.8448 21.1906 51.4723 21.1906L51.4707 21.1898Z" fill="#A7A7A7"/>
<path d="M10.5505 20.6241C10.6697 20.3547 10.6458 20.0901 10.6458 19.8334C10.6458 19.5688 10.7507 19.4409 11.0241 19.4504C11.2887 19.46 11.5541 19.46 11.8179 19.4504C12.0952 19.4409 12.1961 19.5704 12.181 19.8374C12.0285 22.5486 12.1651 25.2638 12.0944 27.9759C12.0801 28.517 11.9792 29.0526 11.8234 29.5762C11.4365 30.873 10.6037 31.7217 9.30293 32.0936C7.85355 32.5076 6.42403 32.4313 5.0263 31.8623C4.53443 31.6621 4.5249 31.6231 4.68223 31.1281C4.94128 30.312 4.93969 30.316 5.70888 30.6354C6.5766 30.9954 7.47769 31.0677 8.39706 30.9056C9.34822 30.7387 9.95292 30.1618 10.2581 29.2608C10.4956 28.5583 10.4178 27.8281 10.4726 27.1248C10.3621 27.0795 10.3304 27.128 10.2994 27.1677C8.88893 29.0255 5.4983 28.9969 4.24837 26.2913C3.31946 24.2801 3.51971 22.3087 4.95081 20.5573C6.18008 19.0531 8.57426 18.837 10.0165 20.0631C10.204 20.2228 10.3582 20.4206 10.5489 20.6241H10.5505ZM10.4146 23.8526C10.4146 23.549 10.4202 23.2447 10.4138 22.9412C10.39 21.8835 9.73043 20.9904 8.76974 20.7059C7.75501 20.4055 6.65447 20.7679 6.10062 21.6809C5.24323 23.0937 5.22416 24.5757 6.02434 26.0116C6.54481 26.9452 7.43637 27.2424 8.47017 27.0716C9.45867 26.9079 10.0602 26.2976 10.3375 25.3512C10.4821 24.8586 10.3939 24.3524 10.4146 23.8526Z" fill="#A7A7A7"/>
<path d="M22.766 23.9432C22.7652 25.4275 22.3512 26.7569 21.1418 27.697C19.6789 28.8341 18.0396 29.0248 16.3638 28.2484C14.831 27.538 14.1381 26.2086 13.9847 24.5701C13.8687 23.3226 14.0674 22.1418 14.7936 21.0921C15.8163 19.6133 17.6249 18.9681 19.5375 19.3829C21.1609 19.7349 22.3544 21.0516 22.6786 22.8363C22.7454 23.2026 22.7708 23.5705 22.766 23.9432ZM15.6812 23.9901C15.6717 24.5797 15.7615 25.155 16.0022 25.6921C16.4353 26.656 17.0972 27.3457 18.2319 27.3902C19.3968 27.4363 20.174 26.8245 20.6285 25.8256C21.238 24.4851 21.2014 23.1216 20.4886 21.8208C20.0453 21.0118 19.3555 20.5597 18.3932 20.5677C17.4198 20.5748 16.692 20.9809 16.2057 21.8216C15.8179 22.493 15.6812 23.2256 15.6804 23.9909L15.6812 23.9901Z" fill="#A7A7A7"/>
<path d="M27.6872 26.6504C28.1329 25.3655 28.5596 24.1434 28.9816 22.9197C29.3352 21.8939 29.6928 20.8696 30.0313 19.839C30.1242 19.5561 30.2681 19.4266 30.5724 19.4464C30.8887 19.4671 31.2073 19.4599 31.5252 19.4496C31.851 19.4385 31.9169 19.5712 31.8009 19.8604C31.4719 20.6837 31.1557 21.5116 30.8315 22.3365C30.0813 24.2451 29.3217 26.1498 28.5851 28.0641C28.454 28.4049 28.2712 28.5297 27.9112 28.5186C26.5524 28.4765 26.9092 28.718 26.4301 27.4752C25.4686 24.9817 24.5278 22.4803 23.5798 19.9812C23.3907 19.4838 23.4121 19.4544 23.9556 19.4496C25.1738 19.4393 25.1817 19.4369 25.5806 20.5947C26.2576 22.5582 27.0014 24.4986 27.5958 26.4907C27.6061 26.5257 27.6323 26.5559 27.6872 26.6496V26.6504Z" fill="#A7A7A7"/>
<path d="M40.989 3.54852C40.5989 3.84094 40.2087 4.12779 39.8249 4.4226C38.8309 5.18622 38.9683 4.88904 39.2878 6.01421C39.4244 6.49416 39.5714 6.97093 39.7224 7.4779C39.5134 7.50253 39.4125 7.38652 39.3037 7.31103C38.8356 6.98762 38.3628 6.66898 37.9115 6.32411C37.6755 6.14294 37.4975 6.12308 37.2504 6.31299C36.7895 6.66739 36.3 6.98524 35.8224 7.31818C35.7168 7.39208 35.6222 7.48982 35.445 7.50253C35.5141 6.97014 35.7152 6.49655 35.8574 6.00945C36.1379 5.04637 36.1435 5.04796 35.3568 4.45915C35.0389 4.22156 34.7187 3.98635 34.4056 3.74241C34.319 3.67486 34.1514 3.62798 34.2038 3.48972C34.2515 3.36496 34.4136 3.40867 34.5272 3.40708C35.0699 3.39834 35.6135 3.37291 36.1546 3.40152C36.5495 3.42218 36.7561 3.29742 36.861 2.90329C36.9969 2.39315 37.1924 1.8989 37.368 1.39988C37.4148 1.26638 37.4443 1.11938 37.5714 0.99939C37.7549 1.1893 37.7716 1.43722 37.8543 1.65177C37.9592 1.92273 38.0458 2.20085 38.1411 2.47579C38.3525 3.08552 38.7861 3.39251 39.4419 3.39675C39.8122 3.39913 40.1833 3.39675 40.5536 3.40628C40.6918 3.40946 40.8476 3.36814 40.989 3.54852Z" fill="#A7A7A7"/>
<path d="M65.3155 1.02087C65.6802 1.58744 65.8391 2.18737 66.0433 2.77062C66.3024 3.50882 66.2237 3.37691 66.8872 3.3928C67.3767 3.40472 67.867 3.39996 68.3565 3.40552C68.4971 3.40711 68.6457 3.38724 68.8158 3.52868C68.2579 3.95142 67.7414 4.3829 67.1836 4.7508C66.8467 4.9725 66.8133 5.19261 66.9381 5.54145C67.1288 6.07622 67.2758 6.62769 67.4403 7.172C67.4697 7.27053 67.5325 7.36668 67.4498 7.51051C66.9937 7.27451 66.6051 6.93918 66.184 6.6555C65.1605 5.96736 65.5872 5.98802 64.5534 6.66901C64.1561 6.93123 63.7707 7.21173 63.379 7.48111C63.3607 7.49382 63.3289 7.48587 63.3003 7.48826C63.2002 7.38814 63.2821 7.29199 63.3099 7.19822C63.495 6.57683 63.6762 5.95465 63.874 5.33723C63.9408 5.12904 63.9034 4.99555 63.7215 4.86682C63.2256 4.51321 62.7401 4.1461 62.2546 3.77819C62.1545 3.70191 61.9598 3.64549 62.0043 3.50802C62.056 3.34672 62.2562 3.40949 62.3945 3.40631C62.8704 3.39598 63.3472 3.40075 63.824 3.3928C64.6035 3.38009 64.4541 3.47544 64.7179 2.73327C64.9206 2.16353 65.1168 1.59141 65.3155 1.02087Z" fill="#A7A7A7"/>
<path d="M51.5138 0.919922C51.6735 1.39272 51.807 1.78685 51.9397 2.18098C52.3465 3.39674 52.3465 3.39277 53.625 3.39992C54.0295 3.4023 54.4379 3.36655 54.8432 3.44601C54.8535 3.64546 54.7025 3.68598 54.6088 3.75829C54.1368 4.12064 53.664 4.48219 53.1769 4.82387C52.956 4.97882 52.9035 5.13775 52.9901 5.39282C53.1777 5.94349 53.3414 6.50131 53.5098 7.05833C53.5504 7.19262 53.6338 7.32533 53.5623 7.51127C53.064 7.2554 52.6437 6.89862 52.1908 6.59348C51.3135 6.00308 51.6226 6.00626 50.7891 6.5768C50.3337 6.88829 49.8824 7.20613 49.4342 7.51683C49.2888 7.40558 49.3643 7.30467 49.3929 7.2117C49.5781 6.60461 49.7553 5.99514 49.9579 5.39441C50.0437 5.13854 49.9905 4.98439 49.7696 4.82944C49.2713 4.4806 48.7898 4.10872 48.3067 3.73843C48.2224 3.67327 48.0548 3.63115 48.112 3.48415C48.1549 3.37529 48.2987 3.40946 48.4004 3.40787C48.9821 3.39992 49.5654 3.37608 50.1454 3.4023C50.5078 3.4182 50.6635 3.26484 50.762 2.94222C50.944 2.34864 51.1554 1.7638 51.3588 1.17658C51.3787 1.11858 51.4232 1.06852 51.5138 0.921511V0.919922Z" fill="#A7A7A7"/>
<path d="M2.57409 27.4848C2.57409 28.1865 2.09414 28.6942 1.4362 28.6879C0.793356 28.6823 0.324533 28.1849 0.318176 27.5039C0.311819 26.815 0.808454 26.2865 1.45607 26.2929C2.08858 26.2993 2.57409 26.8166 2.57409 27.4848Z" fill="#A7A7A7"/>
</g>
<defs>
<clipPath id="clip0_17328_269">
<rect width="68.5937" height="32" fill="white" transform="translate(0.318115 0.35498)"/>
</clipPath>
</defs>
</svg>
