<svg width="123" height="32" viewBox="0 0 123 32" fill="none" xmlns="http://www.w3.org/2000/svg">
<g clip-path="url(#clip0_14897_86584)">
<path d="M34.6377 13.3464L32.4238 12.4999L32.0656 12.3534L31.8866 12.2557L32.0656 12.3371L33.3517 9.50453C33.9214 8.25104 33.6447 6.8022 32.668 5.84174C32.0331 5.20686 31.2028 4.88127 30.3075 4.88127C29.8354 4.88127 29.3633 4.97895 28.9401 5.1743L26.1075 6.41151L25.961 6.05337L25.1145 3.87197C24.9028 3.3022 24.5121 2.84639 24.0238 2.50453C23.5354 2.19523 22.9494 1.99988 22.3308 1.99988C21.0935 1.99988 20.0028 2.73244 19.5633 3.87197L18.7168 6.05337L18.5703 6.41151L18.4238 6.76965L17.8052 8.38127L17.6587 8.73941L17.5121 9.09755L17.3494 9.52081C17.0726 10.2534 16.4703 10.8231 15.7377 11.1162L15.3145 11.2789L16.0145 12.8255L16.0307 12.8743L16.3726 12.7441C17.5935 12.2883 18.5377 11.3441 18.9935 10.172L19.1238 9.83011L19.2703 9.47197L19.4168 9.11383L20.4424 9.55337C21.0447 9.79755 21.6796 9.94407 22.2982 9.94407C22.9168 9.94407 23.5842 9.81383 24.154 9.55337L25.1959 9.09755L26.8075 8.38127L29.7866 7.07895C29.9494 6.99755 30.1284 6.98127 30.2749 6.98127C30.6982 6.98127 30.9912 7.22546 31.1052 7.33941C31.2354 7.46965 31.6587 7.9743 31.3656 8.64174L30.047 11.5557L29.3308 11.2789L28.2238 10.8557C27.8982 10.7255 27.6703 10.4976 27.5401 10.1883L27.1168 9.09755L25.5377 9.79755L25.4889 9.81383L25.8796 10.8231C26.1726 11.6045 26.7912 12.2069 27.5889 12.4999L28.6145 12.8743L28.9726 13.0208L29.2982 13.151L28.5656 14.7627C28.2238 15.5115 28.2238 16.3743 28.5656 17.1394L29.3308 18.8162L30.047 20.4115L31.3656 23.3417C31.6912 24.0417 31.2517 24.5138 31.1377 24.6441C31.0238 24.7417 30.7308 25.0022 30.3075 25.0022C30.161 25.0022 29.9819 24.9859 29.8191 24.9045L26.8401 23.6022L26.9866 23.2603L27.1331 22.9022L27.2959 22.479C27.5726 21.7464 28.1749 21.1766 28.9075 20.8836L29.3308 20.7208L28.6308 19.1743L28.6145 19.1255L28.2726 19.2557C27.0517 19.7115 26.1075 20.6557 25.6354 21.8278L25.5052 22.1696L25.3587 22.5278L25.2121 22.8859L25.1959 22.9022L24.1866 22.4627C23.5842 22.2185 22.9494 22.072 22.3308 22.072C21.6959 22.072 21.0447 22.2022 20.4749 22.4627L19.4331 22.9185L17.8214 23.6348L14.8424 24.9371C14.6796 25.0185 14.5005 25.0348 14.354 25.0348C13.9307 25.0348 13.6377 24.7906 13.5238 24.6766C13.3935 24.5464 12.9703 24.0417 13.2959 23.3743L14.5819 20.5092L14.9075 20.6394L15.2656 20.7859L16.3726 21.2092C16.6982 21.3394 16.9424 21.5673 17.0563 21.8766L17.4796 22.9673L19.0587 22.2673L19.1075 22.251L18.7168 21.2417C18.4238 20.4603 17.8052 19.858 17.0075 19.565L15.9819 19.1906L15.6238 19.0441L15.2819 18.9138L16.047 17.2371C16.3889 16.4883 16.3889 15.6255 16.047 14.8603L15.2819 13.1836L14.5656 11.5883L13.247 8.65802C12.9214 7.95802 13.361 7.48593 13.4749 7.35569C13.5889 7.25802 13.8819 6.99755 14.3052 6.99755C14.4517 6.99755 14.6308 7.01383 14.7935 7.09523L17.7726 8.39755L18.4075 6.76965L18.554 6.41151L15.6726 5.15802C15.2331 4.96267 14.7773 4.86499 14.3052 4.86499C13.4098 4.86499 12.5796 5.20686 11.9447 5.82546C10.968 6.78593 10.6912 8.23476 11.261 9.48825L12.547 12.3045L12.1889 12.451L9.97494 13.2976C8.8354 13.7208 8.08656 14.7952 8.08656 16.0162C8.07028 17.2208 8.81912 18.2789 9.95866 18.7185L12.1726 19.565L12.5307 19.7115L12.5633 19.7278L11.3098 22.4952C10.7401 23.7487 11.0168 25.1976 11.9935 26.158C12.6284 26.7929 13.4587 27.1185 14.354 27.1185C14.8261 27.1185 15.2982 27.0208 15.7214 26.8255L18.6028 25.572L20.2145 24.8557L21.3377 24.3999C21.6633 24.2697 21.9726 24.1883 22.3145 24.1883C22.6563 24.1883 22.9819 24.2534 23.2912 24.3999L24.4145 24.8883L24.2842 25.2301L23.4052 27.4929C23.1284 28.1929 22.4935 28.2417 22.2982 28.2417C22.1028 28.2417 21.468 28.1766 21.1912 27.4929L20.2959 25.2464L20.1494 24.8883L18.5377 25.6045L18.6842 25.9627L19.5308 28.1441C19.9703 29.2836 21.061 30.0162 22.2982 30.0162C23.5354 30.0162 24.6261 29.2836 25.0656 28.1441L25.9121 25.9627L26.0587 25.6045V25.5883L28.9401 26.8417C29.3796 27.0371 29.8354 27.1348 30.3075 27.1348C31.2028 27.1348 32.0331 26.7929 32.668 26.1743C33.6447 25.2138 33.9214 23.765 33.3517 22.5115L32.0982 19.7603L32.4238 19.6301L34.6377 18.7836C35.7935 18.3441 36.5261 17.2696 36.5261 16.065C36.5261 14.8441 35.7773 13.7859 34.6377 13.3464ZM23.2912 7.61616C22.9656 7.76267 22.6563 7.82779 22.3145 7.82779C21.9726 7.82779 21.6308 7.76267 21.3377 7.61616L20.1982 7.12779L20.3447 6.76965L21.2401 4.50686C21.5168 3.80685 22.1517 3.75802 22.347 3.75802C22.5424 3.75802 23.1773 3.82313 23.454 4.50686L24.3494 6.76965L24.4959 7.12779L24.447 7.14406L23.2912 7.61616ZM10.6098 17.1069C9.90982 16.8301 9.8447 16.2115 9.8447 16.0162C9.8447 15.8208 9.90982 15.2022 10.6098 14.9255L12.9214 14.0464L13.2796 13.8999L14.0935 15.6906C14.1749 15.9022 14.1749 16.1301 14.0935 16.3417L13.2796 18.1324L12.9052 17.9859L10.6098 17.1069ZM34.0028 17.1557L31.7075 18.0348L31.3819 18.165L31.3494 18.0999L30.5354 16.3092C30.454 16.0976 30.454 15.8696 30.5354 15.658L31.3168 13.9324L31.3494 13.9487L31.7075 14.0952L34.0028 14.9743C34.7028 15.251 34.768 15.8696 34.768 16.065C34.768 16.2603 34.7028 16.879 34.0028 17.1557Z" fill="#A7A7A7"/>
<path d="M41.3123 22.7883H43.6402V17.3185H49.7937V15.5115H43.6402V11.0511H54.4332V9.21155H41.3123V22.7883Z" fill="#A7A7A7"/>
<path d="M63.175 9.21155L55.6541 22.7883H58.1285L64.2168 11.4906L70.0285 22.7883H72.3075L65.1122 9.21155H63.175Z" fill="#A7A7A7"/>
<path d="M85.347 18.0513L78.64 9.22803H76.7679V22.821H78.7214V13.6559C78.7214 13.1676 78.7214 12.7931 78.7051 12.5001C78.6888 12.1908 78.6725 11.9304 78.6237 11.6536C78.7865 12.1583 79.0958 12.6792 79.4865 13.249C79.5353 13.2815 79.5516 13.3304 79.5516 13.3304L85.0214 20.6722H85.6237L90.8818 13.1187C90.9795 12.9722 91.1097 12.7606 91.24 12.5327C91.3865 12.3048 91.5493 12.0117 91.7121 11.6536C91.6958 11.8978 91.6632 12.2559 91.647 12.7443C91.6144 13.2164 91.5981 13.5094 91.5981 13.6397V22.8048H93.7144V9.22803H91.5981L85.347 18.0513Z" fill="#A7A7A7"/>
<path d="M107.649 9.21179H105.728L98.2073 22.7885H100.698L106.77 11.4909L112.582 22.7885H114.877L107.649 9.21179Z" fill="#A7A7A7"/>
</g>
<defs>
<clipPath id="clip0_14897_86584">
<rect width="106.791" height="28" fill="white" transform="translate(8.08667 2)"/>
</clipPath>
</defs>
</svg>
