<svg width="90" height="32" viewBox="0 0 90 32" fill="none" xmlns="http://www.w3.org/2000/svg">
<g clip-path="url(#clip0_14897_86599)">
<path d="M13.6697 3.19995H12.7263C11.5686 3.19995 10.6252 4.04326 10.6252 5.2725V6.43027C10.6252 7.65951 11.5686 8.50282 12.7263 8.50282H13.6697C14.8632 8.50282 15.7708 7.65951 15.7708 6.43027V5.2725C15.7708 4.03612 14.856 3.19995 13.6697 3.19995Z" fill="#A7A7A7"/>
<path d="M29.4854 10.5969C26.5409 10.5969 24.6828 12.1406 23.768 13.8558L23.6251 11.0472H19.2441V29.1427H23.8038V19.1158C23.8038 16.0999 25.4189 14.349 27.8345 14.349C30.2501 14.349 31.2363 15.8926 31.2363 18.6656V29.1498H35.7602V17.5078C35.7602 13.4342 33.9735 10.5969 29.4854 10.5969Z" fill="#A7A7A7"/>
<path d="M7.9881 14.7706H11.004V29.1498H15.5636V11.0543H7.9881V14.7706Z" fill="#A7A7A7"/>
<path d="M59.2587 10.5969C53.577 10.5969 50.0322 14.349 50.0322 19.8519V20.3093C50.0322 25.8838 53.5055 29.6001 59.2587 29.6001C63.9255 29.6001 67.0414 27.2131 67.9205 23.4253H63.3966C62.8677 24.969 61.5742 26.0553 59.2587 26.0553C56.5215 26.0553 54.942 24.4044 54.699 21.1812H68.0277C68.3421 14.9135 65.3262 10.5969 59.2587 10.5969ZM54.8062 18.0653C55.2279 15.4353 56.7001 14.1346 59.2229 14.1346C61.7457 14.1346 63.1179 15.6068 63.3609 18.0653H54.8062Z" fill="#A7A7A7"/>
<path d="M43.5072 23.604V14.7706H48.2741V11.0543H43.5072V4.91528H38.9476V24.0614C38.9476 27.7062 40.9487 29.6001 45.1581 29.6001C46.2087 29.6001 47.5094 29.4214 48.3527 29.1427V25.5979C47.8596 25.7766 47.0234 25.9838 46.1801 25.9838C44.179 25.991 43.5072 25.2549 43.5072 23.604Z" fill="#A7A7A7"/>
<path d="M80.7919 10.7399C78.1619 10.7399 76.3037 12.2836 75.4247 14.5634L75.3175 11.0543H70.9365V29.1498H75.4961V20.1735C75.4961 16.7002 77.0756 14.7706 80.5489 14.7706C81.0063 14.7706 81.528 14.8064 81.8496 14.8421V10.8471C81.5637 10.7756 81.1063 10.7399 80.7919 10.7399Z" fill="#A7A7A7"/>
</g>
<defs>
<clipPath id="clip0_14897_86599">
<rect width="73.8614" height="26.4" fill="white" transform="translate(7.98828 3.20007)"/>
</clipPath>
</defs>
</svg>
