<svg width="156" height="32" viewBox="0 0 156 32" fill="none" xmlns="http://www.w3.org/2000/svg">
<g clip-path="url(#clip0_14897_86571)">
<path d="M93.8485 28.3433V22.6768C93.8485 22.2721 94.3406 22.0681 94.6256 22.353L97.4588 25.1863C97.6369 25.3644 97.6369 25.6526 97.4588 25.8306L94.6256 28.6639C94.3374 28.9521 93.8452 28.7481 93.8452 28.3401" fill="#A7A7A7"/>
<path d="M38.8603 28.6997C37.6364 28.6997 36.4772 28.5119 35.4119 28.1395C34.3401 27.7639 33.3881 27.1973 32.5851 26.459C31.7788 25.7175 31.1344 24.8011 30.6714 23.7326C30.2084 22.664 29.9752 21.4206 29.9752 20.0412C29.9752 18.6618 30.2051 17.5026 30.6552 16.4179C31.1053 15.3267 31.7432 14.3779 32.5494 13.5943C33.3525 12.8107 34.3142 12.1987 35.4021 11.7681C36.4901 11.3374 37.6979 11.1205 38.9899 11.1205C40.1297 11.1205 41.1561 11.2727 42.0368 11.5706C42.9208 11.8685 43.6785 12.2732 44.2905 12.7751C44.9057 13.2802 45.3785 13.8793 45.6958 14.556C46.0131 15.2328 46.1718 15.9613 46.1718 16.7255C46.1718 17.4897 46.0229 18.2312 45.7314 18.8755C45.4303 19.5329 44.8993 20.0995 44.1513 20.5658C43.4195 21.0224 42.4286 21.3785 41.2014 21.6311C39.9937 21.8804 38.4362 22.0067 36.5775 22.0067C36.1437 22.0067 35.7389 22.0035 35.3633 21.9905C35.0816 21.984 34.7869 21.9711 34.4793 21.9581C34.6865 22.8486 35.1593 23.5642 35.9138 24.1373C36.7524 24.7752 37.9861 25.099 39.5727 25.099C40.1135 25.099 40.6186 25.0569 41.0719 24.9727C41.5252 24.8918 41.9397 24.7882 42.3056 24.6619C42.6812 24.5324 42.9888 24.4093 43.2446 24.2863C43.5101 24.1568 43.7077 24.0629 43.834 23.9981L44.0606 23.8848L45.644 26.8961L45.4432 27.0224C45.2684 27.1325 44.9932 27.2847 44.6208 27.4822C44.2387 27.683 43.7627 27.874 43.209 28.0489C42.6521 28.2237 42.0045 28.3791 41.2759 28.5087C40.5441 28.6382 39.7346 28.7029 38.8603 28.7029M34.2721 18.9241C34.6671 18.9371 35.0492 18.9468 35.4151 18.9468H36.7686C37.9278 18.9468 38.8733 18.8723 39.5824 18.7266C40.2818 18.5841 40.8291 18.3996 41.2112 18.1761C41.5706 17.9689 41.8037 17.739 41.9073 17.4929C42.0239 17.2274 42.0789 16.9457 42.0789 16.6607C42.0789 15.9354 41.7972 15.4044 41.2176 15.045C40.6056 14.6661 39.835 14.4718 38.9251 14.4718C38.1739 14.4718 37.5036 14.6046 36.9402 14.8669C36.3735 15.1292 35.8943 15.4821 35.5122 15.916C35.1269 16.3499 34.8258 16.8583 34.6121 17.4314C34.4275 17.9203 34.3142 18.4255 34.2721 18.9306" fill="#A7A7A7"/>
<path d="M57.0742 28.6996C55.779 28.6996 54.5712 28.4762 53.4832 28.0358C52.3952 27.5955 51.44 26.9802 50.6467 26.2096C49.8502 25.4389 49.222 24.4999 48.7687 23.4216C48.3153 22.3434 48.0887 21.1615 48.0887 19.9084C48.0887 18.6553 48.3056 17.4507 48.7363 16.3822C49.1669 15.3169 49.7692 14.3779 50.5301 13.5943C51.2943 12.8107 52.201 12.1954 53.2242 11.7648C54.2506 11.3341 55.3839 11.1172 56.5917 11.1172C57.8707 11.1172 59.0138 11.3697 59.9949 11.8716C60.7234 12.244 61.3419 12.6844 61.8406 13.1798V5.96548C61.8406 5.30816 62.0381 4.80951 62.4299 4.47923C62.812 4.1619 63.3495 4 64.0295 4C64.4375 4 64.8195 4.05181 65.166 4.15542C65.4995 4.2558 65.7197 4.32704 65.833 4.37237L65.9949 4.43713V19.1345C65.9949 20.7244 65.7683 22.1329 65.3182 23.318C64.8649 24.5064 64.2335 25.5102 63.4401 26.3067C62.6468 27.1 61.6948 27.7055 60.6101 28.1038C59.5351 28.4989 58.3435 28.6996 57.0742 28.6996ZM57.139 14.9186C56.4266 14.9186 55.7822 15.0481 55.2156 15.2975C54.6489 15.55 54.1503 15.8997 53.7358 16.3336C53.3213 16.7675 53.0008 17.2953 52.7773 17.9041C52.5539 18.5128 52.4406 19.1863 52.4406 19.9084C52.4406 20.6305 52.5539 21.2975 52.7773 21.8933C53.0008 22.4923 53.3213 23.0137 53.7358 23.4476C54.1503 23.8847 54.6489 24.2312 55.2156 24.4837C56.3262 24.9824 57.8772 24.9921 59.0526 24.4999C59.629 24.2571 60.1244 23.9203 60.5292 23.4961C60.9339 23.0719 61.2545 22.5474 61.4876 21.9386C61.724 21.3266 61.8438 20.6434 61.8438 19.9052C61.8438 19.209 61.724 18.5484 61.4876 17.9364C61.2545 17.3277 60.9307 16.7934 60.5227 16.3433C60.1179 15.8997 59.6225 15.5468 59.0494 15.2942C58.4698 15.0417 57.8286 14.9154 57.139 14.9154" fill="#A7A7A7"/>
<path d="M72.7819 28.2495H68.5952V13.5327C68.5952 12.8495 68.8024 12.3444 69.2104 12.0238C69.5989 11.7194 70.1397 11.5673 70.8164 11.5673C71.2244 11.5673 71.6098 11.6191 71.953 11.7259C72.2833 11.8263 72.5067 11.8975 72.6168 11.9429L72.7819 12.0076V28.2528V28.2495Z" fill="#A7A7A7"/>
<path d="M83.8526 28.6997C82.1624 28.6997 80.7603 28.5508 79.6788 28.2561C78.5876 27.9582 77.7133 27.5534 77.0754 27.0483C76.4278 26.5367 75.9745 25.9344 75.7349 25.2609C75.5018 24.6004 75.382 23.9171 75.382 23.2274C75.382 22.3176 75.5244 21.5048 75.8061 20.8119C76.0911 20.1028 76.5638 19.5037 77.2114 19.0277C77.8493 18.5582 78.688 18.202 79.7047 17.9689C80.7053 17.739 81.939 17.6257 83.3669 17.6257C84.1732 17.6257 84.9633 17.6516 85.7048 17.7066C86.2649 17.7487 86.715 17.7876 87.0647 17.82C87.0356 17.2403 86.9255 16.7482 86.728 16.3531C86.5046 15.903 86.1937 15.5469 85.8051 15.2943C85.4069 15.0353 84.9179 14.8539 84.3545 14.7535C83.7684 14.6499 83.1111 14.5949 82.4052 14.5949C81.2201 14.5949 80.2617 14.7309 79.5493 14.9964C78.8369 15.2652 78.3674 15.4918 78.1569 15.6634L77.9918 15.7994L77.8267 15.6634C77.681 15.5404 77.4931 15.3267 77.2535 15.0093C76.9945 14.6661 76.865 14.2452 76.865 13.7627C76.865 13.4195 76.9556 13.0795 77.137 12.7524C77.3215 12.4189 77.6453 12.1275 78.0922 11.8782C78.5196 11.6418 79.0992 11.454 79.8116 11.318C80.5142 11.1852 81.4079 11.1205 82.4667 11.1205C83.7458 11.1205 84.9309 11.2468 85.9865 11.4993C87.055 11.7519 87.9908 12.1599 88.7647 12.7168C89.5483 13.277 90.1668 14.025 90.6039 14.9413C91.0378 15.8545 91.258 16.9651 91.258 18.2409V28.146L91.0507 28.1881C90.8306 28.2334 90.4873 28.2788 90.0146 28.337C89.5515 28.3889 89.0043 28.4439 88.3794 28.4989C87.7544 28.5508 87.055 28.5993 86.2779 28.6447C85.5072 28.6868 84.6913 28.7094 83.8494 28.7094M83.4932 20.7245C82.0911 20.7245 81.0647 20.9317 80.4462 21.3429C79.8504 21.7347 79.5622 22.3435 79.5622 23.2048C79.5622 23.5545 79.6238 23.8783 79.7501 24.1665C79.8666 24.4417 80.0803 24.6781 80.3782 24.8756C80.6955 25.0828 81.1359 25.2447 81.6896 25.3548C82.2595 25.4682 82.9816 25.5264 83.8461 25.5264C84.8176 25.5264 85.5979 25.4908 86.1646 25.4163C86.5823 25.3613 86.8899 25.3192 87.1004 25.2836V21.0094C86.8737 20.9705 86.5434 20.9187 86.1128 20.8572C85.5396 20.773 84.6589 20.7309 83.4964 20.7309" fill="#A7A7A7"/>
<path d="M114.533 28.2495H110.346V13.5327C110.346 12.8495 110.553 12.3444 110.961 12.0238C111.347 11.7194 111.887 11.5673 112.567 11.5673C112.975 11.5673 113.357 11.6191 113.704 11.7259C114.034 11.8263 114.258 11.8975 114.368 11.9429L114.533 12.0076V28.2528V28.2495Z" fill="#A7A7A7"/>
<path d="M133.362 28.2494H129.175V19.17C129.175 17.7842 128.842 16.7221 128.181 16.013C127.527 15.3071 126.54 14.9509 125.248 14.9509C123.956 14.9509 122.942 15.3071 122.301 16.0097C121.65 16.7188 121.323 17.7809 121.323 19.17V28.2494H117.136V18.2342C117.136 17.1268 117.347 16.1198 117.758 15.2423C118.169 14.3648 118.742 13.6103 119.468 12.9984C120.183 12.3896 121.048 11.9201 122.032 11.5963C123.013 11.279 124.095 11.1171 125.251 11.1171C126.407 11.1171 127.495 11.279 128.486 11.5963C129.483 11.9169 130.351 12.3896 131.07 12.9984C131.792 13.6103 132.365 14.368 132.763 15.2455C133.161 16.123 133.365 17.1268 133.365 18.2342V28.2494H133.362Z" fill="#A7A7A7"/>
<path d="M144.75 28.6996C143.455 28.6996 142.247 28.4762 141.159 28.0358C140.068 27.5955 139.116 26.9802 138.323 26.2096C137.526 25.4389 136.898 24.4999 136.445 23.4216C135.991 22.3434 135.765 21.1615 135.765 19.9084C135.765 18.6553 135.982 17.4507 136.412 16.3822C136.843 15.3169 137.445 14.3779 138.206 13.5943C138.967 12.8107 139.874 12.1954 140.9 11.7648C141.927 11.3341 143.06 11.1172 144.268 11.1172C145.547 11.1172 146.69 11.3697 147.671 11.8716C148.399 12.244 149.018 12.6844 149.516 13.1798V5.96548C149.516 5.30816 149.714 4.80951 150.109 4.47923C150.488 4.1619 151.025 4 151.709 4C152.12 4 152.499 4.05181 152.845 4.15542C153.179 4.2558 153.399 4.32704 153.512 4.37237L153.674 4.43713V19.1345C153.674 20.7244 153.447 22.1329 152.997 23.318C152.544 24.5064 151.913 25.5102 151.119 26.3067C150.326 27.1 149.374 27.7055 148.289 28.1038C147.214 28.4989 146.023 28.6996 144.753 28.6996M144.818 14.9186C144.109 14.9186 143.461 15.0481 142.895 15.2975C142.328 15.55 141.829 15.8997 141.415 16.3336C141 16.7675 140.68 17.2953 140.456 17.9041C140.233 18.516 140.116 19.1896 140.116 19.9084C140.116 20.6272 140.23 21.2943 140.453 21.8933C140.677 22.4923 141 23.0137 141.412 23.4476C141.826 23.8847 142.325 24.2312 142.891 24.4837C144.002 24.9824 145.556 24.9921 146.729 24.4967C147.302 24.2538 147.8 23.9171 148.205 23.4929C148.61 23.0687 148.934 22.5441 149.164 21.9354C149.4 21.3234 149.52 20.6402 149.52 19.9019C149.52 19.2057 149.4 18.5452 149.167 17.9332C148.934 17.3245 148.61 16.7902 148.202 16.3401C147.797 15.8965 147.302 15.5435 146.725 15.291C146.149 15.0384 145.505 14.9121 144.815 14.9121" fill="#A7A7A7"/>
<path d="M105.518 28.4471C104.948 28.4471 104.379 28.2302 103.945 27.7963L94.5155 18.3671C93.6445 17.4961 93.6445 16.0876 94.5155 15.2166L103.945 5.78744C104.816 4.91965 106.224 4.91965 107.095 5.78744C107.966 6.65847 107.966 8.067 107.095 8.93803L99.2398 16.7935L107.095 24.6489C107.966 25.5199 107.966 26.9285 107.095 27.7995C106.661 28.2334 106.088 28.4503 105.518 28.4503" fill="#A7A7A7"/>
<path d="M95.6844 5.12354C96.3061 5.12354 96.8339 5.33724 97.2613 5.7679C97.6887 6.19856 97.9057 6.72312 97.9057 7.34482C97.9057 7.96652 97.692 8.49431 97.2613 8.92497C96.8339 9.35563 96.3061 9.56934 95.6844 9.56934C95.0627 9.56934 94.5349 9.35563 94.1075 8.92497C93.6768 8.49431 93.4631 7.96976 93.4631 7.34482C93.4631 6.71988 93.6768 6.19532 94.1075 5.7679C94.5381 5.33724 95.0627 5.12354 95.6844 5.12354Z" fill="#A7A7A7"/>
<path d="M25.9989 5.30813C25.1668 4.96166 24.2083 5.15595 23.5704 5.7906L13.3609 16.0001L9.38141 12.0205C9.38141 12.0205 9.37493 12.0173 9.37493 12.0141L6.48662 9.12576C5.61559 8.25797 4.20705 8.25797 3.33602 9.12576C2.90213 9.56289 2.68518 10.1393 2.68842 10.7156V26.4718C2.68842 27.7023 3.68573 28.6996 4.91618 28.6996C6.14663 28.6996 7.14394 27.7023 7.14394 26.4718V16.0778L8.89571 17.8296C8.89571 17.8296 8.89895 17.8296 8.90218 17.8328L11.7905 20.7211C12.6583 21.5889 14.0701 21.5889 14.9411 20.7211L22.9228 12.7394V26.4718C22.9228 27.7023 23.9201 28.6996 25.1506 28.6996C26.381 28.6996 27.3783 27.7023 27.3783 26.4718V7.36428C27.3783 6.46411 26.8343 5.65136 26.0022 5.30813" fill="#A7A7A7"/>
</g>
<defs>
<clipPath id="clip0_14897_86571">
<rect width="150.982" height="24.8" fill="white" transform="translate(2.68808 4)"/>
</clipPath>
</defs>
</svg>
