<svg width="138" height="32" viewBox="0 0 138 32" fill="none" xmlns="http://www.w3.org/2000/svg">
<g clip-path="url(#clip0_17328_282)">
<path d="M82.6052 8.50465V24.1384H87.0171V8.50465H82.6052ZM47.8931 8.47815V24.1251H52.3447V11.9759L55.8159 11.9891C56.9553 11.9891 57.7503 12.2673 58.2935 12.8503C58.9957 13.5922 59.2739 14.7979 59.2739 16.984V24.1251H63.593V15.4868C63.593 9.31283 59.6581 8.47815 55.8159 8.47815H47.8931ZM89.7199 8.50465V24.1384H96.8743C100.69 24.1384 101.935 23.5024 103.274 22.0848C104.227 21.0911 104.837 18.8918 104.837 16.4937C104.837 14.2944 104.32 12.3336 103.406 11.1147C101.79 8.92861 99.4314 8.50465 95.9071 8.50465H89.7199ZM94.092 11.8964H95.9866C98.7424 11.8964 100.518 13.1285 100.518 16.3348C100.518 19.541 98.7424 20.7864 95.9866 20.7864H94.092V11.8964ZM76.2457 8.50465L72.5625 20.8924L69.0383 8.50465H64.2687L69.3033 24.1384H75.6628L80.7504 8.50465H76.2457ZM106.904 24.1384H111.316V8.50465H106.904V24.1384ZM119.278 8.50465L113.117 24.1251H117.463L118.444 21.3561H125.73L126.658 24.1119H131.388L125.174 8.50465H119.278ZM122.14 11.3532L124.816 18.6666H119.384L122.14 11.3532Z" fill="#A7A7A7"/>
<path d="M19.4212 11.1014V8.95509C19.6331 8.94185 19.8451 8.9286 20.0571 8.9286C25.9396 8.74311 29.7951 13.9897 29.7951 13.9897C29.7951 13.9897 25.6349 19.7662 21.17 19.7662C20.5738 19.7662 19.9909 19.6735 19.4344 19.488V12.9695C21.7265 13.2477 22.1902 14.2547 23.5548 16.5467L26.6153 13.9764C26.6153 13.9764 24.3763 11.0484 20.6136 11.0484C20.2161 11.0352 19.8186 11.0617 19.4212 11.1014ZM19.4212 4V7.20624L20.0571 7.16649C28.2317 6.88826 33.571 13.8704 33.571 13.8704C33.571 13.8704 27.45 21.3163 21.0773 21.3163C20.5208 21.3163 19.9776 21.2633 19.4344 21.1706V23.1579C19.8849 23.2109 20.3486 23.2507 20.799 23.2507C26.7346 23.2507 31.0272 20.2167 35.1874 16.6395C35.8763 17.1959 38.6983 18.5341 39.2813 19.117C35.3331 22.4292 26.1251 25.0923 20.905 25.0923C20.4016 25.0923 19.9246 25.0658 19.4477 25.0128V27.8083H41.9973V4H19.4212ZM19.4212 19.488V21.1838C13.9361 20.2034 12.4125 14.4931 12.4125 14.4931C12.4125 14.4931 15.049 11.5784 19.4212 11.1014V12.9563H19.4079C17.1158 12.678 15.314 14.8244 15.314 14.8244C15.314 14.8244 16.3342 18.4413 19.4212 19.488ZM9.6832 14.2547C9.6832 14.2547 12.9292 9.45855 19.4344 8.95509V7.20624C12.227 7.78919 6 13.8837 6 13.8837C6 13.8837 9.52421 24.0854 19.4212 25.0128V23.1579C12.1607 22.257 9.6832 14.2547 9.6832 14.2547Z" fill="#A7A7A7"/>
</g>
<defs>
<clipPath id="clip0_17328_282">
<rect width="125.388" height="24" fill="white" transform="translate(6 4)"/>
</clipPath>
</defs>
</svg>
