<svg width="149" height="23" viewBox="0 0 149 23" fill="none" xmlns="http://www.w3.org/2000/svg">
<path fill-rule="evenodd" clip-rule="evenodd" d="M35.5402 6.31757H41.0148L41.2556 8.13536C41.6767 6.68147 44.4447 5.65085 46.129 5.65085C50.0397 5.65085 51.6036 8.07513 51.6036 12.3172V21.4672H45.5277V13.2859C45.5277 11.6505 45.2271 10.4383 43.6026 10.4383C42.0986 10.4383 41.3163 12.0746 41.3163 13.2265V21.4672H35.5411L35.5402 6.31757ZM0.104858 21.5282V0.0762089H10.2717C16.3484 0.0762089 19.1156 3.04505 19.1156 7.34819C19.1156 11.955 16.5893 15.1062 10.2717 15.1062H6.84262V21.5291L0.104858 21.5282ZM9.55086 9.89291C11.1753 9.89291 12.9193 9.52902 12.9193 7.65101C12.9193 5.71193 11.0549 5.2878 9.55086 5.2878H6.84346V9.89291H9.55086ZM102.441 6.31757H107.976L108.157 8.13536C108.638 6.68147 111.405 5.65085 113.091 5.65085C116.941 5.65085 118.564 8.07513 118.564 12.3172V21.5282H112.488V13.2859C112.488 11.6505 112.126 10.4383 110.504 10.4383C109.059 10.4383 108.276 12.0746 108.276 13.2265V21.5282H102.44V6.31757H102.441ZM74.5268 16.0749C74.5268 16.6814 74.8274 17.589 75.1878 17.8927C75.6089 18.1955 76.1504 18.4992 76.8131 18.4992C77.8952 18.4992 78.7373 18.1963 78.7373 17.1657C78.798 14.621 69.5928 16.8629 69.5928 10.8031C69.5928 6.56186 72.8425 5.59148 76.211 5.59148C79.5794 5.59148 84.2128 6.25819 84.0317 10.8633H78.9184C78.9184 10.4392 78.7373 10.1364 78.4973 9.77246C78.1352 9.34834 77.7142 9.16681 76.9335 9.10574C75.9103 9.04552 74.9487 9.22704 74.9487 10.0151C75.0076 12.3791 84.4536 10.8031 84.4536 16.3786C84.4536 20.2567 81.7462 22.0151 76.5125 22.0151C73.203 21.9541 69.0522 20.2576 69.0522 16.0757L74.5268 16.0749ZM136.794 12.1959C136.794 11.8311 136.794 11.3476 136.314 10.7412C136.072 10.4383 135.53 9.77161 134.688 9.77161C132.402 9.77161 131.8 12.0135 131.8 13.833C131.8 15.9536 132.764 17.7112 134.568 17.7112C136.132 17.7112 136.915 16.2564 136.915 15.0434H142.209C142.33 18.1947 140.163 21.9524 134.328 21.9524C129.574 21.9524 126.206 18.6188 126.206 13.7711C126.206 7.89276 130.537 5.65001 134.266 5.65001C139.321 5.65001 142.209 8.741 142.148 12.195H136.794V12.1959ZM29.1031 21.5282L28.5018 20.2559C27.3591 21.2254 26.1557 21.77 24.2306 21.77C22.3653 21.7106 18.6954 21.4672 18.6954 17.4075C18.6954 10.7412 28.5624 13.7711 28.5624 10.4986C28.5624 9.40771 27.3591 9.46794 26.6972 9.46794C25.4938 9.46794 24.7123 9.71054 24.5312 11.5275H19.4777C19.4777 8.3771 20.4411 5.71108 27.0584 5.71108C33.4964 5.71108 34.1575 9.10405 34.1575 12.4376V19.3466C34.1575 20.2559 34.2181 20.68 34.8194 21.3459V21.4672L29.1031 21.5282ZM28.6222 14.5591C26.5767 15.5303 23.9898 15.4684 23.93 16.9842C23.93 17.9538 24.4715 18.4373 25.6748 18.4373C27.6597 18.4373 28.7427 16.3777 28.6222 14.5591ZM63.0353 21.5282L62.434 20.2559C61.2912 21.2254 60.0272 21.77 58.1619 21.77C56.2369 21.7106 52.5669 21.4672 52.5669 17.4075C52.5669 10.7412 62.434 13.7711 62.4938 10.4986C62.4938 9.40771 61.2306 9.46794 60.6293 9.46794C59.3662 9.46794 58.6436 9.71054 58.4634 11.5275H53.4099C53.4099 8.3771 54.3118 5.71108 60.9898 5.71108C67.3671 5.71108 68.029 9.10405 68.029 12.4376V19.3466C68.029 20.2559 68.0888 20.68 68.6909 21.3459V21.4672L63.0353 21.5282ZM62.5536 14.5591C60.5081 15.5303 57.8605 15.4684 57.8605 16.9842C57.8605 17.9538 58.3413 18.4373 59.6053 18.4373C61.5312 18.4373 62.674 16.3777 62.5536 14.5591ZM125.242 21.5282V6.31757H119.648V21.5282H125.242ZM119.649 4.37849H125.243V0.0151367H119.649V4.37849ZM93.4162 5.77215C98.41 5.77215 101.479 9.28727 101.479 13.8924C101.479 18.5594 98.4091 22.0134 93.4162 22.0134C88.4233 22.0134 85.294 18.5594 85.294 13.8924C85.2949 9.28727 88.4233 5.77215 93.4162 5.77215ZM90.7703 13.8924C90.7703 15.7712 91.3724 18.0742 93.4171 18.1353C95.4634 18.1353 96.0041 15.7712 96.0041 13.8924C96.0041 12.0746 95.4626 9.71139 93.4171 9.71139C91.3724 9.71139 90.8309 12.0754 90.7703 13.8924ZM145.76 18.5594C146.12 18.5594 146.661 18.6188 146.661 18.1353C146.661 17.7112 146.3 17.6501 146 17.6501H145.278V18.5594H145.76ZM146.961 20.0141H146.601L145.879 18.8011H145.277V20.0141H144.976V17.4083H146.06C146.544 17.4083 146.973 17.5542 146.973 18.1353C146.973 18.6188 146.661 18.8011 146.181 18.8011L146.961 20.0141ZM147.835 18.7715C147.835 17.6204 146.933 16.7102 145.851 16.7102C145.581 16.708 145.314 16.7597 145.065 16.8625C144.815 16.9653 144.589 17.1171 144.399 17.3089C144.208 17.5008 144.057 17.7289 143.955 17.98C143.853 18.2311 143.802 18.5001 143.804 18.7715C143.804 19.8615 144.707 20.7708 145.851 20.7708C146.376 20.7661 146.878 20.554 147.249 20.18C147.62 19.8061 147.831 19.3003 147.835 18.7715ZM143.532 18.7401C143.532 18.1293 143.773 17.5435 144.202 17.1116C144.631 16.6797 145.212 16.4371 145.819 16.4371C146.425 16.4371 147.006 16.6797 147.435 17.1116C147.864 17.5435 148.105 18.1293 148.105 18.7401C148.105 20.0141 147.082 21.043 145.819 21.043C144.555 21.043 143.532 20.0141 143.532 18.7401Z" fill="#A7A7A7"/>
</svg>
