<svg width="89" height="32" viewBox="0 0 89 32" fill="none" xmlns="http://www.w3.org/2000/svg">
<g clip-path="url(#clip0_14897_86610)">
<path d="M46.2386 9.70398C44.7986 8.76798 42.7826 8.40798 40.1907 8.40798H35.2227V24.896H40.3346C42.1346 24.896 43.7186 24.68 45.0146 24.176C46.3106 23.672 47.3186 22.808 48.0387 21.584C48.7586 20.36 49.1186 18.776 49.1186 16.76C49.1186 15.032 48.9026 13.592 48.4706 12.44C47.8227 11.216 47.1746 10.28 46.2386 9.70398ZM44.8707 19.496C44.6547 20.288 44.2226 20.936 43.6466 21.368C42.9986 21.872 41.9907 22.088 40.6946 22.088H38.8946V11H40.4067C41.8466 11 42.9986 11.216 43.7187 11.792C44.2226 12.224 44.6547 12.728 44.8707 13.52C45.0867 14.312 45.2307 15.248 45.2307 16.4C45.2307 17.696 45.1586 18.704 44.8707 19.496ZM51.3507 24.824H55.0946V17.84H59.4866V15.104H55.0946V11.072H61.7906V8.33598H51.3507V24.824ZM64.2387 24.824H67.9826V8.33598H64.2387V24.824ZM84.5426 8.33598H80.7266V17.84L73.7426 8.33598H70.7187V24.824H74.5346V15.104L81.4466 24.824H84.5426V8.33598ZM20.9667 25.472C20.6787 25.328 20.3187 25.112 19.4547 23.672L17.7267 20.864L15.7107 17.552L15.5667 17.264C15.6387 17.264 15.7827 17.192 15.8547 17.192C18.1587 16.4 19.5267 14.312 19.5267 11.288C19.5267 9.77598 18.9507 8.40798 17.7987 7.39998C17.6547 7.25598 17.4387 7.11198 17.2947 6.96798C15.7107 5.95998 13.6227 5.59998 10.8867 5.59998H5.63065C5.34265 5.59998 5.27065 5.81598 5.41465 5.95998C5.55865 6.10398 5.70265 6.31998 5.70265 6.89598V23.456C5.63065 24.104 5.48665 24.32 5.41465 24.464C5.27065 24.608 5.34265 24.824 5.70265 24.824H9.51865V17.84H11.2467L12.4707 19.928L13.9827 22.52L14.7027 23.816C15.5667 25.256 16.3587 26.192 17.7267 26.408C17.8707 26.408 18.5907 26.552 18.8787 26.552H19.1667C19.7427 26.552 20.3187 26.336 20.6786 26.192C20.6786 26.192 20.7507 26.12 20.8227 26.12C21.3267 25.832 21.1827 25.544 20.9667 25.472ZM11.9667 15.104H9.51865V8.33598H11.9667C13.1907 8.33598 14.1267 8.47998 14.7747 9.12798C15.0627 9.34398 15.2067 9.63198 15.3507 9.99198C15.4947 10.424 15.6387 10.928 15.6387 11.576C15.6387 12.44 15.5667 15.104 11.9667 15.104ZM25.8626 17.84H30.2547V15.104H25.8626V11.072H32.5586V8.33598H22.1187V24.824H32.5586V22.088H25.8626V17.84Z" fill="#A7A7A7"/>
</g>
<defs>
<clipPath id="clip0_14897_86610">
<rect width="79.2" height="20.952" fill="white" transform="translate(5.34265 5.59998)"/>
</clipPath>
</defs>
</svg>
