<svg width="142" height="32" viewBox="0 0 142 32" fill="none" xmlns="http://www.w3.org/2000/svg">
<g clip-path="url(#clip0_17328_264)">
<path d="M87.7491 9.98582L87.7449 9.9833C87.7449 9.9833 87.7428 9.98169 87.7401 9.98169C87.6442 9.94016 87.5391 9.91859 87.4379 9.91859C87.2742 9.91974 87.1173 9.96816 86.9802 10.0531C86.8406 10.1407 86.7225 10.2685 86.6547 10.4284V10.4323L83.4584 19.1016L80.9949 13.2908L80.9912 13.2883C80.922 13.1258 80.7979 13.0003 80.6571 12.9129C80.515 12.8253 80.351 12.7771 80.1786 12.7771C80.0109 12.7771 79.8546 12.8292 79.7167 12.9141C79.5807 13.0015 79.458 13.1258 79.389 13.2883L79.3874 13.2908L76.9191 19.1053L73.7057 10.4399H73.7031C73.6471 10.2724 73.533 10.1418 73.3973 10.0556C73.2593 9.96816 73.0979 9.91974 72.9315 9.91859C72.8254 9.91859 72.718 9.94016 72.6166 9.98169H72.6117L72.608 9.98582C72.3084 10.1242 72.1255 10.4209 72.1243 10.7442C72.1243 10.8458 72.1447 10.947 72.1841 11.0473H72.1832L76.1358 21.5657V21.5693C76.1666 21.6478 76.2099 21.7254 76.274 21.8015C76.3201 21.8559 76.3882 21.9018 76.4583 21.9399C76.4713 21.9523 76.4917 21.97 76.5222 21.989C76.5554 22.0094 76.598 22.0237 76.6413 22.031C76.7116 22.0542 76.8052 22.0879 76.9304 22.0879C77.0904 22.0879 77.2388 22.031 77.372 21.9461C77.4963 21.8637 77.6074 21.7405 77.6688 21.5808L77.679 21.5732L80.1786 15.6518L82.6814 21.5492H82.6839C82.7416 21.7063 82.843 21.8295 82.9604 21.917C83.0847 22.0094 83.2239 22.0666 83.3713 22.0879H83.4762C83.5762 22.0879 83.6733 22.0691 83.755 22.0374C83.8409 22.0046 83.9101 21.9612 83.9675 21.9183C84.1018 21.8167 84.2055 21.6772 84.2697 21.5223V21.5189L88.1971 11.0473C88.2355 10.947 88.2557 10.8469 88.2557 10.7458C88.2548 10.4248 88.0637 10.1191 87.7491 9.98582ZM69.6799 15.9907C69.6799 14.7556 69.2013 13.6368 68.44 12.8292C67.6746 12.0199 66.638 11.5252 65.5121 11.5252C64.3857 11.5252 63.3469 12.0199 62.5828 12.8292C61.8199 13.6368 61.3413 14.7556 61.3413 15.9907C61.3413 17.2247 61.8199 18.333 62.5828 19.1356C63.3469 19.9412 64.3857 20.4281 65.5121 20.4281C66.638 20.4281 67.6783 19.9412 68.44 19.1356C69.2013 18.333 69.6799 17.2247 69.6799 15.9907ZM69.6581 11.7028C70.7153 12.8138 71.3575 14.3382 71.3601 15.9907C71.3575 17.6432 70.7153 19.1661 69.6581 20.2773C68.609 21.3867 67.1437 22.0881 65.5147 22.0881C63.8981 22.0881 62.4305 21.3867 61.3775 20.2773C60.3228 19.1661 59.6702 17.6432 59.6702 15.9907C59.6702 14.3382 60.3228 12.8138 61.3775 11.7028C62.4305 10.5943 63.8981 9.89313 65.5147 9.89313C67.1437 9.89313 68.609 10.5943 69.6581 11.7028ZM53.0158 9.91469C51.7053 9.91469 50.509 10.4209 49.6158 11.2285V10.7458C49.6144 10.5237 49.5313 10.3167 49.3852 10.1646C49.2435 10.015 49.0333 9.91469 48.8031 9.91469C48.5649 9.91469 48.35 10.0097 48.2004 10.1632C48.0532 10.3142 47.965 10.5237 47.965 10.7458V21.5088L47.9995 21.5427L48.0009 21.548C48.0099 21.5836 48.0326 21.6228 48.0569 21.6607C48.1708 21.8598 48.3577 22.0108 48.5892 22.0778L48.6225 22.0881H48.8031C48.9235 22.0881 49.0448 22.0629 49.1601 22.0094C49.2562 21.9638 49.3456 21.8903 49.4174 21.7965L49.4199 21.7976C49.4287 21.7889 49.4315 21.7775 49.4417 21.7687C49.4456 21.7674 49.4493 21.7635 49.4519 21.7596C49.4965 21.7027 49.5338 21.6444 49.557 21.5898C49.5813 21.5251 49.5966 21.464 49.6081 21.4172L49.6158 21.3867V14.924C49.6401 13.9996 50.024 13.1639 50.6396 12.5563C51.2511 11.9492 52.0892 11.5736 53.0158 11.5736C53.9579 11.5736 54.7983 11.9492 55.4075 12.5563C56.0192 13.1616 56.3903 13.9959 56.3903 14.9153V21.2614C56.3903 21.4932 56.4901 21.7077 56.6413 21.8548C56.796 22.0016 57.0071 22.0881 57.2273 22.0881C57.4512 22.0881 57.6612 22.0016 57.8147 21.8548C57.9707 21.7077 58.0654 21.4932 58.0654 21.2614V14.9153C58.0654 12.1761 55.808 9.9186 53.0158 9.91469ZM135.508 14.8137C135.032 12.9001 133.336 11.5367 131.402 11.5406C129.418 11.5406 127.746 12.8748 127.228 14.8137H135.508ZM137.342 15.5977V15.6798C137.342 15.9095 137.238 16.1162 137.081 16.2521C136.925 16.3888 136.721 16.46 136.502 16.4625H127.111C127.35 18.7336 129.18 20.4106 131.365 20.4281H131.919C132.641 20.4306 133.346 20.1832 133.965 19.7737C134.585 19.368 135.122 18.801 135.499 18.1769C135.577 18.0439 135.689 17.9424 135.81 17.8803C135.934 17.813 136.067 17.7825 136.202 17.7825C136.35 17.7825 136.497 17.8206 136.627 17.8979L136.636 17.9018L136.646 17.9094C136.881 18.0806 137.029 18.3419 137.029 18.6287C137.029 18.7744 136.99 18.9229 136.909 19.0571L136.907 19.0624L136.904 19.0647C136.379 19.8918 135.664 20.6463 134.815 21.193C133.963 21.7407 132.977 22.0881 131.919 22.0881H131.356C129.708 22.0767 128.218 21.3867 127.144 20.2835C126.073 19.184 125.413 17.6735 125.413 16.0137C125.413 14.3256 126.078 12.7936 127.158 11.6851C128.238 10.578 129.739 9.89313 131.402 9.89313C132.989 9.89313 134.414 10.5184 135.47 11.5419C136.526 12.5653 137.215 13.9867 137.338 15.586L137.342 15.5977ZM98.8194 4.88379C98.5907 4.88379 98.3807 4.97901 98.23 5.12861C98.0785 5.27707 97.9829 5.48632 97.9829 5.71325V21.2614C97.9829 21.4883 98.0785 21.6962 98.23 21.8435C98.3807 21.9904 98.5907 22.0881 98.8194 22.0881C99.2943 22.0881 99.6782 21.7178 99.681 21.2614V5.71325C99.6782 5.2555 99.2943 4.88379 98.8194 4.88379ZM44.0927 15.6938C43.4168 15.3781 42.6502 15.1448 41.8853 14.8937C41.1814 14.6579 40.4671 14.4573 39.9578 14.1937C39.7019 14.0579 39.5024 13.9147 39.3732 13.7536C39.2412 13.5928 39.1773 13.4289 39.1734 13.2057C39.1747 12.9001 39.2643 12.6541 39.4153 12.4359C39.6443 12.1101 40.0282 11.8563 40.4479 11.6925C40.8626 11.5282 41.3118 11.4506 41.6329 11.4506C42.5824 11.452 43.1827 11.7652 43.6435 12.0896C43.8711 12.2535 44.0633 12.4194 44.245 12.5563C44.3383 12.6275 44.4254 12.6922 44.5265 12.7401C44.6222 12.7872 44.7349 12.8253 44.8579 12.8253C44.9359 12.8253 45.0141 12.8113 45.0855 12.781C45.1609 12.7507 45.2265 12.7073 45.2892 12.6541C45.3505 12.5972 45.4031 12.5286 45.4402 12.4524C45.4735 12.3737 45.4888 12.2927 45.4888 12.2129C45.4888 12.0656 45.4413 11.9274 45.3735 11.7978C45.2468 11.5697 45.0521 11.3517 44.8041 11.1335C44.4355 10.8089 43.9493 10.4993 43.4259 10.2662C42.901 10.0329 42.3381 9.87408 41.8019 9.87408C40.5593 9.87408 39.5216 10.1531 38.7677 10.6671C38.3748 10.9357 38.0294 11.2299 37.7851 11.6358C37.5367 12.0428 37.3984 12.5451 37.3806 13.1981C37.3794 13.2273 37.3794 13.2564 37.3794 13.2855C37.3769 13.9197 37.5827 14.4424 37.9064 14.8518C38.398 15.4683 39.1275 15.8372 39.8429 16.0986C40.557 16.3597 41.2708 16.5157 41.7213 16.6653C42.356 16.8746 43.0304 17.1015 43.5217 17.4021C43.7664 17.5556 43.9646 17.7206 44.0991 17.9018C44.2297 18.0884 44.3036 18.2809 44.3064 18.5245V18.5424C44.305 18.8949 44.2003 19.1714 44.0274 19.4084C43.7664 19.7611 43.3325 20.0196 42.8716 20.1832C42.4124 20.3432 41.935 20.4106 41.6278 20.4106C40.544 20.4106 39.8186 20.1516 39.2926 19.8918C39.0289 19.7611 38.8152 19.6316 38.6218 19.5224C38.526 19.4706 38.4364 19.4224 38.3417 19.3843C38.2496 19.3464 38.1512 19.3219 38.0398 19.3219C37.9719 19.3219 37.8979 19.3336 37.8298 19.36C37.7608 19.3893 37.698 19.43 37.6455 19.4793C37.5726 19.5495 37.5087 19.6277 37.464 19.7179C37.4204 19.8081 37.3985 19.9031 37.3985 20.002C37.3985 20.1644 37.4598 20.3129 37.5471 20.4471C37.6839 20.641 37.8849 20.8149 38.1356 20.9886C38.394 21.1598 38.7027 21.3286 39.0583 21.4948C39.8466 21.8637 40.8575 22.0565 41.6255 22.0691H41.6278C42.822 22.0691 43.8533 21.7965 44.7222 21.1625V21.1609H44.7233C45.5731 20.527 46.1016 19.5846 46.1016 18.5206C46.1016 17.936 45.9634 17.4402 45.7217 17.0345C45.357 16.4194 44.7643 16.0137 44.0927 15.6938ZM111.44 15.9907C111.44 14.7439 110.965 13.6267 110.206 12.8204C109.448 12.0162 108.408 11.5282 107.27 11.5254C106.142 11.5254 105.105 12.0162 104.34 12.8204C103.58 13.6267 103.099 14.7439 103.099 15.9907C103.099 17.2362 103.58 18.346 104.34 19.1459C105.102 19.9462 106.142 20.4281 107.27 20.4281C108.411 20.4281 109.451 19.9462 110.209 19.1487C110.965 18.346 111.44 17.2373 111.44 15.9907ZM112.863 10.1242C113.018 10.2724 113.114 10.4869 113.114 10.7187V21.2614C113.114 21.4883 113.015 21.6962 112.868 21.8435C112.717 21.9904 112.508 22.0881 112.278 22.0881C112.048 22.0881 111.836 21.9904 111.688 21.8435C111.537 21.6962 111.44 21.4883 111.44 21.2614V20.2328C110.386 21.3603 108.907 22.0881 107.27 22.0881C105.641 22.0881 104.175 21.3945 103.124 20.2835C102.07 19.1778 101.425 17.6545 101.425 15.9907C101.425 14.327 102.07 12.8023 103.124 11.6955C104.175 10.5856 105.641 9.89313 107.27 9.89313C108.906 9.89313 110.386 10.5998 111.44 11.7218V10.7187C111.44 10.4869 111.536 10.2724 111.691 10.1242C111.845 9.97825 112.054 9.89313 112.278 9.89313C112.499 9.89313 112.711 9.97825 112.863 10.1242ZM124.678 11.1932C124.845 11.0296 124.935 10.8125 124.935 10.5971C124.935 10.3853 124.845 10.1733 124.677 10.0198H124.678C124.677 10.015 124.673 10.015 124.673 10.015C124.672 10.0111 124.669 10.0097 124.669 10.0097H124.667C124.506 9.85251 124.298 9.76624 124.084 9.76624C123.868 9.76624 123.657 9.8555 123.496 10.015L116.953 16.3345V5.71325C116.953 5.2555 116.566 4.88379 116.091 4.88379C115.863 4.88379 115.653 4.97901 115.503 5.12861C115.354 5.27707 115.255 5.48632 115.255 5.71325V21.2614C115.255 21.4883 115.354 21.6962 115.503 21.8435C115.653 21.9904 115.863 22.0881 116.091 22.0881C116.566 22.0881 116.953 21.7178 116.953 21.2614V18.6957L119.083 16.5869L123.427 21.78C123.509 21.8993 123.62 21.9814 123.73 22.0248C123.855 22.0718 123.977 22.0881 124.086 22.0881C124.235 22.0881 124.447 22.0565 124.632 21.9119L124.643 21.9057L124.654 21.894C124.828 21.7242 124.926 21.4984 124.926 21.2676C124.926 21.0735 124.854 20.8757 124.719 20.7174V20.7149L120.298 15.3882L124.674 11.1932H124.678ZM95.3671 4.92073H95.1803C95.1557 4.92073 95.1316 4.92325 95.1059 4.92417C95.083 4.92325 95.0585 4.92073 95.0344 4.92073C94.5519 4.92073 94.0835 4.97511 93.6457 5.11966C93.2143 5.26169 92.8166 5.49642 92.5082 5.85275L92.507 5.85138L92.5059 5.85275V5.8539C92.187 6.20519 91.977 6.62508 91.8492 7.1021C91.7212 7.58142 91.6687 8.12155 91.6636 8.73533V9.92387H90.3415C89.8824 9.9264 89.5176 10.2903 89.5176 10.7304C89.5152 10.9674 89.6083 11.1856 89.7595 11.343C89.9118 11.4977 90.1202 11.5991 90.3517 11.6117H91.6636V21.2816L91.6622 21.3043C91.6622 21.5313 91.7583 21.7405 91.9131 21.8903C92.0664 22.0374 92.2817 22.1248 92.516 22.1248C92.9613 22.1225 93.3271 21.7623 93.3285 21.3043V11.6117H94.7501C94.9793 11.5991 95.1904 11.5039 95.3416 11.3504C95.4963 11.1971 95.591 10.9816 95.591 10.7481V10.7166C95.5859 10.2814 95.2185 9.92387 94.7591 9.92387H93.3285V8.74037C93.3375 8.21677 93.3924 7.82487 93.4718 7.53966C93.5484 7.25285 93.6536 7.07274 93.748 6.96122C93.8404 6.86233 93.9606 6.77973 94.1564 6.71365C94.3535 6.65055 94.626 6.60994 94.9948 6.60994H95.0381C95.0599 6.60994 95.083 6.60604 95.1034 6.60604C95.1291 6.60604 95.1532 6.60994 95.1803 6.60994H95.2877H95.3671C95.839 6.60994 96.2194 6.23203 96.2194 5.7651C96.2194 5.29863 95.839 4.92073 95.3671 4.92073ZM141.621 9.90414C141.621 10.9943 140.885 11.904 139.655 11.904C138.433 11.904 137.706 10.9855 137.706 9.90414C137.706 8.81403 138.433 7.90403 139.655 7.90403C140.885 7.90403 141.621 8.81403 141.621 9.90414ZM141.231 9.90414C141.231 8.97716 140.607 8.27298 139.655 8.27298C138.719 8.27298 138.095 8.94252 138.095 9.90414C138.095 10.8224 138.719 11.5348 139.655 11.5348C140.607 11.5348 141.231 10.8311 141.231 9.90414ZM138.883 9.00263H139.724C140.183 9.00263 140.486 9.25159 140.486 9.63775C140.486 9.87821 140.365 10.0583 140.183 10.1701L140.512 10.642V10.7366H140.036L139.715 10.2816H139.343V10.7366H138.883V9.00263ZM139.715 9.42344H139.343V9.87821H139.715C139.888 9.87821 140.001 9.80089 140.001 9.65519C140.001 9.50054 139.897 9.42344 139.715 9.42344Z" fill="#A7A7A7"/>
<path d="M12.9258 20.1808C13.9373 20.2526 14.7405 21.0745 14.775 22.0874L14.7761 22.1552V29.9294C14.7761 31.025 13.879 31.9127 12.7773 31.9127C11.693 31.9127 10.8126 31.0609 10.7771 29.9962L10.776 29.9294V25.5806L6.96897 27.7569C6.01438 28.3074 4.79352 27.9816 4.23924 27.0353C3.69925 26.1067 4.00047 24.9221 4.90979 24.3584L4.96995 24.3225L11.7651 20.4396C12.13 20.2289 12.5356 20.1477 12.9258 20.1808ZM20.9642 20.3964L21.0429 20.4396L27.8367 24.3225C28.7941 24.8705 29.1189 26.0865 28.5686 27.0353C28.0288 27.9614 26.8465 28.2932 25.9004 27.7909L25.8391 27.7569L22.0346 25.5806V29.9294C22.0346 31.025 21.1402 31.9127 20.0332 31.9127C18.9489 31.9127 18.0707 31.0609 18.0353 29.9962L18.0342 29.9294V22.1552C18.0342 21.1114 18.8483 20.2542 19.8846 20.1808C20.2458 20.1501 20.6203 20.2179 20.9642 20.3964ZM3.31897 10.3172L3.3805 10.3509L10.1706 14.2364C10.648 14.5092 10.9666 14.942 11.1011 15.4263C11.1458 15.5824 11.1661 15.7382 11.174 15.8942C11.1791 16.1096 11.1509 16.3278 11.083 16.5396C10.9477 16.9743 10.6628 17.364 10.2456 17.6261L10.1706 17.671L3.3805 21.5591C2.42197 22.1058 1.19996 21.7823 0.649846 20.8363C0.107359 19.9055 0.408529 18.7267 1.32023 18.1622L1.38055 18.1263L5.17485 15.9575L1.38055 13.7828C0.422022 13.2346 0.094408 12.025 0.649846 11.0778C1.18826 10.1495 2.37027 9.81826 3.31897 10.3172ZM32.1607 11.0778C32.7148 12.025 32.3872 13.2346 31.4289 13.7828L27.6343 15.9575L31.4289 18.1263C32.3872 18.6753 32.7148 19.8852 32.1607 20.8363C31.6078 21.7823 30.3847 22.1058 29.4298 21.5591L22.6347 17.671C22.1816 17.4097 21.8669 16.9999 21.7273 16.5396C21.6609 16.3278 21.6301 16.1096 21.6377 15.8942C21.6417 15.7382 21.6646 15.5824 21.7081 15.4263C21.844 14.942 22.1626 14.5095 22.6347 14.2364L29.4298 10.3509C30.3847 9.80414 31.6078 10.1293 32.1607 11.0778ZM16.8187 12.2494C16.9338 12.2494 17.0924 12.3141 17.1732 12.3965L19.9973 15.1916C20.0779 15.2715 20.1432 15.43 20.1432 15.5443V16.3685C20.1432 16.4802 20.0779 16.6385 19.9973 16.7172L17.1732 19.5126C17.0924 19.5947 16.9363 19.662 16.8187 19.662H15.9882C15.874 19.662 15.7154 19.5947 15.6335 19.5126L12.8107 16.7172C12.7299 16.6385 12.6646 16.4802 12.6646 16.3685V15.5443C12.6646 15.43 12.7299 15.2715 12.8107 15.1916L15.6335 12.3965C15.7154 12.3141 15.874 12.2494 15.9882 12.2494H16.8187ZM16.4191 14.635H16.3873C16.2734 14.635 16.1148 14.701 16.0354 14.7807L15.2177 15.5874C15.1357 15.6709 15.073 15.8283 15.073 15.9412V15.9729C15.073 16.0844 15.1357 16.2404 15.2177 16.3216L16.0354 17.1307C16.116 17.2105 16.2734 17.2764 16.3873 17.2764H16.4191C16.5332 17.2764 16.692 17.2105 16.7726 17.1307L17.5904 16.3216C17.6709 16.2404 17.7399 16.0844 17.7399 15.9729V15.9412C17.7399 15.8283 17.6709 15.6709 17.5904 15.5874L16.7726 14.7807C16.692 14.701 16.5332 14.635 16.4191 14.635ZM20.0332 0C21.1176 0 21.998 0.852095 22.0335 1.91397L22.0346 1.98061V6.33074L25.8391 4.15188C26.795 3.60419 28.0171 3.92909 28.5686 4.87603C29.1072 5.80708 28.8075 6.98694 27.8969 7.55063L27.8367 7.58651L21.0429 11.4732C20.678 11.6813 20.2736 11.7636 19.8846 11.7317C18.8708 11.6577 18.0697 10.8344 18.0354 9.82254L18.0342 9.75481V1.98061C18.0342 0.887969 18.9263 0 20.0332 0ZM12.7773 0C13.8565 0 14.7394 0.852095 14.775 1.91397L14.7761 1.98061V9.75481C14.7761 10.7974 13.9598 11.656 12.9258 11.7317C12.5635 11.7614 12.1879 11.6924 11.8439 11.5158L11.7651 11.4732L4.96995 7.58651C4.01397 7.03836 3.68751 5.82732 4.23924 4.87603C4.78173 3.94924 5.96273 3.6183 6.90769 4.11811L6.96897 4.15188L10.776 6.33074V1.98061C10.776 0.887969 11.6704 0 12.7773 0Z" fill="#A7A7A7"/>
</g>
<defs>
<clipPath id="clip0_17328_264">
<rect width="141.241" height="32" fill="white" transform="translate(0.379395)"/>
</clipPath>
</defs>
</svg>
