<svg width="40" height="57" viewBox="0 0 40 57" fill="none" xmlns="http://www.w3.org/2000/svg">
<path fill-rule="evenodd" clip-rule="evenodd" d="M19.0553 0.000118713C18.9758 -0.000527866 18.8939 0.00162762 18.8146 0.00270525C16.3959 0.0283529 13.9488 0.596696 11.6938 1.67217C11.6938 1.67217 12.0444 1.58208 12.2839 1.58424C12.318 1.58445 12.3488 1.58488 12.377 1.58963C12.6093 1.62691 12.8294 1.74674 13.0165 1.88985C13.2807 2.0918 13.3764 2.4791 13.6607 2.65109C13.8917 2.79054 14.1833 2.8136 14.4527 2.82675C15.0319 2.85606 15.6 2.64915 16.1791 2.61984C16.7643 2.5901 17.357 2.56768 17.9367 2.65109C18.7937 2.77394 19.6426 3.00219 20.4398 3.33927C21.3789 3.7367 22.2535 4.28974 23.0775 4.88976C23.885 5.47815 24.5963 6.19068 25.3168 6.88317C26.3591 7.88515 27.1964 9.10352 28.3247 10.0076C28.7878 10.3786 29.2628 10.6932 29.8469 10.9344C30.6808 11.2788 32.4871 11.5271 32.4871 11.5271L33.243 11.7161C33.6357 11.7814 33.9917 11.8715 34.3068 11.9827L34.3249 11.9881C34.6129 12.0911 34.8655 12.2144 35.0808 12.3556C34.4969 10.4281 33.4854 8.59056 32.3705 6.94825C29.5769 2.83213 24.0693 0.035034 19.0553 0.000118713Z" fill="#A7A7A7"/>
<path fill-rule="evenodd" clip-rule="evenodd" d="M8.90032 3.34726C7.40543 4.44774 6.06486 5.80771 4.96567 7.41899C3.28004 9.89086 2.05628 12.9125 2.05628 15.9249V29.924C2.05499 30.2331 2.22784 30.3898 2.44703 30.3898H6.69225C6.1321 30.115 5.73402 29.749 5.5144 29.3078C3.88179 26.0262 9.10335 20.2353 17.2224 15.7905C17.5701 15.5357 17.8979 15.2678 17.8878 15.1641C17.8748 15.0331 17.3494 15.2469 17.3494 15.2469C13.4757 16.7821 10.0601 19.2012 6.93343 21.8217C6.93343 21.8217 6.30754 19.0126 6.04266 17.6283C5.87972 16.7746 5.66355 15.9265 5.58703 15.0605C5.51699 14.263 5.58703 12.6582 5.58703 12.6582C5.58703 12.6582 5.62497 11.0437 5.86657 10.256C6.1196 9.43135 7.07287 7.87698 7.07287 7.87698C7.07287 7.87698 7.84984 6.78404 8.45806 6.17626C8.61216 6.02173 8.76863 5.72215 8.77381 5.49283C8.7779 5.30424 8.65462 5.18958 8.61087 5.00617C8.55375 4.76758 8.49621 4.48007 8.50461 4.2348C8.51086 4.04686 8.55009 3.8891 8.63134 3.71948C8.69018 3.59749 8.81023 3.45136 8.90032 3.34726Z" fill="#A7A7A7"/>
<path fill-rule="evenodd" clip-rule="evenodd" d="M35.6038 15.9012C34.3419 19.0324 30.0773 23.2932 23.9038 26.6051C20.3333 28.5205 17.0931 29.7385 14.3549 30.3894H35.226C35.4795 30.3894 35.6118 30.2665 35.6118 29.9311C35.6079 25.7491 35.6049 20.79 35.6038 15.9012Z" fill="#A7A7A7"/>
<path fill-rule="evenodd" clip-rule="evenodd" d="M30.7527 15.588C28.4893 15.5841 23.9225 17.1788 19.115 19.9005C12.0507 23.8989 8.86713 27.8855 10.0915 28.6265C11.7231 29.6138 16.9634 29.1646 24.2841 24.9375C27.2886 23.203 32.9492 19.0069 32.2078 16.24C32.0892 15.7979 31.5713 15.5895 30.7527 15.5878V15.588ZM19.8553 20.5063C19.8553 20.5063 21.4446 23.5459 18.9854 25.414C15.6245 27.9674 13.1458 25.2481 13.1458 25.2481C14.8001 23.4885 17.1334 21.8012 19.8553 20.5063Z" fill="#A7A7A7"/>
<path fill-rule="evenodd" clip-rule="evenodd" d="M8.21282 53.7968C8.5818 53.7968 8.86242 53.7166 9.06049 53.5602C9.25662 53.4017 9.35554 53.1761 9.35554 52.8795V52.8521C9.35554 52.5737 9.26201 52.3554 9.07299 52.1913C8.88591 52.0293 8.59064 51.9493 8.18933 51.9493H5.95777V53.7949H8.21282V53.7966V53.7968ZM7.45331 50.0038C7.82229 50.0038 8.10291 49.9309 8.29559 49.7889C8.48805 49.6468 8.58353 49.4266 8.58353 49.13V49.1026C8.58353 48.8259 8.49538 48.613 8.31348 48.4638C8.13351 48.3164 7.86367 48.2436 7.50374 48.2436H5.95605V50.0035H7.45331V50.0038ZM3.63634 46.0085H8.04536C8.58525 46.0085 9.0495 46.0868 9.43292 46.2398C9.81634 46.3926 10.1204 46.5073 10.3741 46.7622C10.547 46.9625 10.761 47.1353 10.8888 47.4793C10.986 47.7468 11.0382 48.1582 11.0382 48.5022V48.5804C11.0382 49.1628 10.8168 49.6106 10.5685 49.9693C10.3183 50.326 9.96031 50.3734 9.57517 50.5646C10.3058 50.6809 11.094 51.2816 11.4018 51.6583C11.7095 52.037 11.8606 52.5629 11.8606 53.2401V53.2675C11.8606 54.1356 11.5781 54.8128 11.0076 55.3005C10.4388 55.7865 9.09993 56.0303 8.06864 56.0303H3.6344V46.0088H3.63612L3.63634 46.0085Z" fill="#A7A7A7"/>
<path fill-rule="evenodd" clip-rule="evenodd" d="M12.8 46.0085H20.2812V48.1017H15.2098V49.951H19.5307V51.9131H15.2098V53.8953H20.3928V56.0303H12.8V46.0088V46.0085Z" fill="#A7A7A7"/>
<path fill-rule="evenodd" clip-rule="evenodd" d="M21.4401 46.0085H24.0208V53.9078H28.529V56.0301H21.4401V46.0085Z" fill="#A7A7A7"/>
<path fill-rule="evenodd" clip-rule="evenodd" d="M29.524 46.0085H32.103V53.9078H36.6112V56.0301H29.5243V46.0085H29.524Z" fill="#A7A7A7"/>
<path fill-rule="evenodd" clip-rule="evenodd" d="M3.565 36.3682H0.56897V34.2787H9.20037V36.3682H6.11619V44.3285H3.56479L3.565 36.3682Z" fill="#A7A7A7"/>
<path fill-rule="evenodd" clip-rule="evenodd" d="M13.7701 40.8331L12.5429 37.3974L11.2356 40.8331H13.7701ZM11.6153 34.2367H13.6854L17.7744 44.3285H15.0846L14.5042 42.8496H10.5474L9.93313 44.3285H7.44617L11.6153 34.2367Z" fill="#A7A7A7"/>
<path fill-rule="evenodd" clip-rule="evenodd" d="M31.8556 34.1091C31.1573 34.1315 30.3924 34.3199 29.8057 34.5749C29.1798 34.8467 28.666 35.1894 28.2035 35.6622C27.7406 36.1346 27.499 36.6582 27.2405 37.2931C26.9821 37.9278 26.9119 38.6016 26.9119 39.3171V39.3484C26.9119 40.0637 26.9819 40.7344 27.2405 41.3648C27.499 41.9946 27.8535 42.5433 28.3072 43.011C28.7606 43.4787 29.3018 43.8496 29.9275 44.1216C30.5534 44.3936 31.2327 44.5279 31.9672 44.5279C32.7018 44.5279 33.3815 44.3936 34.007 44.1216C34.6329 43.8496 35.1779 43.4757 35.6405 43.0035C36.103 42.5315 36.4642 41.9789 36.7226 41.3443C36.9808 40.7098 37.0358 40.0335 37.0358 39.3178V39.2891C37.0358 38.5735 36.9808 37.9024 36.7226 37.2726C36.4642 36.6429 36.1069 36.0937 35.6534 35.6264C35.1999 35.1587 34.6613 34.7876 34.0357 34.5158C33.4098 34.2441 32.7283 34.1096 31.9933 34.1096L31.8556 34.1093V34.1091ZM31.9642 36.3066C32.3535 36.3066 32.7095 36.3881 33.0309 36.5528C33.3516 36.7176 33.6283 36.9388 33.8615 37.2153C34.0949 37.4918 34.276 37.8091 34.4025 38.1707C34.5292 38.5319 34.5917 38.9136 34.5917 39.3173V39.3512C34.5917 39.7551 34.5292 40.1365 34.4025 40.4978C34.2762 40.859 34.1007 41.1767 33.877 41.4478C33.6533 41.7185 33.38 41.9327 33.0591 42.092C32.7382 42.2515 32.3845 42.33 31.9953 42.33C31.6062 42.33 31.2495 42.2487 30.9286 42.084C30.6077 41.9194 30.334 41.698 30.1053 41.4215C29.8773 41.1454 29.6986 40.8277 29.5723 40.4661C29.446 40.1046 29.3833 39.7208 29.3833 39.3169V39.2856C29.3833 38.8815 29.443 38.5003 29.5643 38.139C29.6859 37.7778 29.8613 37.4601 30.09 37.189C30.318 36.9183 30.5918 36.7041 30.9079 36.5448C31.2241 36.3853 31.575 36.3066 31.9642 36.3066Z" fill="#A7A7A7"/>
<path fill-rule="evenodd" clip-rule="evenodd" d="M17.3811 39.3304C17.3811 38.0502 17.716 36.6191 18.5921 35.6855C19.5497 34.665 21.0853 34.1117 22.4852 34.1117C25.2243 34.1117 26.4888 36.0066 26.4888 36.0066L24.5415 37.4123C24.5415 37.4123 24.0186 36.8185 23.6777 36.6359C23.3311 36.4504 22.927 36.3064 22.5354 36.3433C21.8052 36.4122 21.0301 36.7306 20.5439 37.2804C20.0881 37.7961 19.8706 38.5546 19.8997 39.2425C19.9385 40.1645 20.2918 41.179 20.9832 41.7905C21.3675 42.1301 22.0231 42.215 22.4621 42.215C23.1139 42.215 23.4675 42.087 23.9117 41.8637C24.2122 41.7131 24.6876 41.2195 24.6876 41.2195L26.7233 42.6836C26.7233 42.6836 25.1971 44.4994 22.5352 44.4994C21.3649 44.4994 20.09 44.2194 19.2738 43.5293C18.0669 42.5088 17.3809 41.6765 17.3809 39.3302L17.3811 39.3304Z" fill="#A7A7A7"/>
<path fill-rule="evenodd" clip-rule="evenodd" d="M37.5108 54.0461H37.1459V53.9327H37.9999V54.0461H37.6352V55.0196H37.5108V54.0461Z" fill="#A7A7A7"/>
<path fill-rule="evenodd" clip-rule="evenodd" d="M38.0647 53.9327H38.1886L38.5846 54.5259L38.9805 53.9327H39.1048V55.0196H38.9822V54.1394L38.5863 54.7218H38.5802L38.1843 54.1409V55.0199H38.0649V53.933L38.0647 53.9327Z" fill="#A7A7A7"/>
</svg>
