<svg width="71" height="32" viewBox="0 0 71 32" fill="none" xmlns="http://www.w3.org/2000/svg">
<g clip-path="url(#clip0_14897_86558)">
<path d="M38.5894 8.10348C36.3569 8.10348 34.5378 6.28436 34.5378 4.0518C34.5378 1.81924 36.3569 0.00012207 38.5894 0.00012207C40.9047 0.00012207 42.7238 1.81924 42.7238 4.0518C42.7238 6.28436 40.9047 8.10348 38.5894 8.10348Z" fill="#A7A7A7"/>
<path d="M32.5532 13.7262C32.5532 15.5454 31.0648 17.0337 29.163 17.0337C27.3439 17.0337 25.7728 15.5454 25.7728 13.7262C25.7728 10.8322 23.3749 8.43425 20.4808 8.43425C18.579 8.43425 17.0907 6.94587 17.0907 5.04407C17.0907 3.22494 18.579 1.73657 20.4808 1.73657C22.3 1.73657 23.871 3.22494 23.871 5.04407C23.871 8.02081 26.269 10.3361 29.163 10.3361C31.0648 10.3361 32.5532 11.8244 32.5532 13.7262Z" fill="#A7A7A7"/>
<path d="M53.2252 4.0518C53.2252 6.28436 51.406 8.10348 49.1735 8.10348C45.6179 8.10348 42.7239 10.9975 42.7239 14.5531C42.7239 16.7857 40.9047 18.5221 38.6722 18.5221C36.3569 18.5221 34.5378 16.7857 34.5378 14.5531V13.5608C34.5378 10.8322 32.388 8.68229 29.6593 8.68229C27.9228 8.68229 26.5172 7.27661 26.5172 5.62286C26.5172 3.88643 27.9228 2.56343 29.6593 2.56343C31.3957 2.56343 32.8014 3.88643 32.8014 5.62286C32.8014 8.26886 34.9513 10.5014 37.6799 10.5014L38.6722 10.4187C42.2277 10.4187 45.0391 7.60736 45.0391 4.0518C45.0391 1.81924 46.9409 0.00012207 49.1735 0.00012207C51.406 0.00012207 53.2252 1.81924 53.2252 4.0518Z" fill="#A7A7A7"/>
<path d="M0.0571899 23.7313H2.04169L3.69543 29.1887L5.51455 23.7313H7.08561L8.90474 29.1887L10.5585 23.7313H12.4603L9.64892 31.9174H8.16055L6.25874 26.6254L4.43962 31.9174H2.86856L0.0571899 23.7313Z" fill="#A7A7A7"/>
<path d="M14.0313 23.7313H20.1502V25.3024H15.8504V26.9561H19.6541V28.5272H15.8504V30.2636H20.2329V31.8347H14.0313V23.7313Z" fill="#A7A7A7"/>
<path fill-rule="evenodd" clip-rule="evenodd" d="M25.8556 23.7313C26.7652 23.7313 27.5094 23.9794 28.0055 24.4755C28.4189 24.8889 28.5843 25.3024 28.5843 25.8812C28.5843 26.7908 28.0882 27.2869 27.5094 27.6176C28.4189 27.9484 28.9977 28.5272 28.9977 29.6021C28.9977 31.0905 27.7574 31.8347 25.9383 31.8347H22.052V23.7313H25.8556ZM26.7652 26.1293C26.7652 25.6331 26.3517 25.3024 25.6076 25.3024H23.7884V27.0388H25.4422C26.2691 27.0388 26.7652 26.7908 26.7652 26.1293ZM25.8556 28.5272H23.7884V30.2636H25.9383C26.7652 30.2636 27.1786 30.0156 27.1786 29.4367C27.1786 28.8579 26.8479 28.5272 25.8556 28.5272Z" fill="#A7A7A7"/>
<path d="M30.3206 30.6772L30.8995 30.0157C31.809 30.7599 32.5532 31.1734 33.7108 31.1734C34.7858 31.1734 35.53 30.5945 35.53 29.7677C35.53 29.0235 35.1165 28.5274 33.4628 28.1966C31.561 27.7832 30.6514 27.2044 30.6514 25.8814C30.6514 24.5584 31.809 23.6488 33.3801 23.6488C34.5377 23.6488 35.3646 23.9796 36.1915 24.6411L35.6953 25.3852C34.9511 24.7237 34.207 24.4757 33.2974 24.4757C32.3051 24.4757 31.561 25.0545 31.561 25.7987C31.561 26.5429 32.0571 26.9563 33.7935 27.3697C35.6126 27.7832 36.4395 28.4447 36.4395 29.685C36.4395 31.0907 35.2819 31.9175 33.7108 31.9175C32.3878 31.9175 31.3129 31.5041 30.3206 30.6772Z" fill="#A7A7A7"/>
<path d="M38.2586 27.7832C38.2586 25.4679 39.9124 23.6488 42.3103 23.6488C43.7987 23.6488 44.7082 24.1449 45.5351 24.8891L44.8736 25.5506C44.2121 24.8891 43.4679 24.4757 42.3103 24.4757C40.5739 24.4757 39.1682 25.8814 39.1682 27.7832C39.1682 29.685 40.5739 31.1734 42.3103 31.1734C43.4679 31.1734 44.2121 30.6772 44.9563 29.933L45.6178 30.5945C44.7082 31.4214 43.7987 32.0002 42.3103 32.0002C39.9951 32.0002 38.2586 30.1811 38.2586 27.7832Z" fill="#A7A7A7"/>
<path fill-rule="evenodd" clip-rule="evenodd" d="M50.4138 23.7313H51.3233L55.0443 31.8347H54.052L53.0598 29.6848H48.5946L47.6851 31.8347H46.6928L50.4138 23.7313ZM52.729 28.9406L50.8272 24.8063L49.0081 28.9406H52.729Z" fill="#A7A7A7"/>
<path d="M56.8633 23.7313H57.7729V31.0078H62.4034V31.8347H56.8633V23.7313Z" fill="#A7A7A7"/>
<path d="M64.3051 23.7313H70.1759V24.5582H65.2147V27.3696H69.6798V28.1964H65.2147V31.0078H70.2586V31.8347H64.3051V23.7313Z" fill="#A7A7A7"/>
</g>
<defs>
<clipPath id="clip0_14897_86558">
<rect width="70.2016" height="32" fill="white" transform="translate(0.0571594)"/>
</clipPath>
</defs>
</svg>
