<svg width="12" height="14" viewBox="0 0 12 14" fill="none" xmlns="http://www.w3.org/2000/svg">
<g filter="url(#filter0_i_1_73143)">
<path d="M0 3.09083C0 1.73057 1.48395 0.89037 2.65037 1.59022L9.16565 5.49939C10.2985 6.17909 10.2985 7.82091 9.16565 8.50061L2.65037 12.4098C1.48395 13.1096 0 12.2694 0 10.9092V3.09083Z" fill="white" fill-opacity="0.1"/>
<path d="M0 3.09083C0 1.73057 1.48395 0.89037 2.65037 1.59022L9.16565 5.49939C10.2985 6.17909 10.2985 7.82091 9.16565 8.50061L2.65037 12.4098C1.48395 13.1096 0 12.2694 0 10.9092V3.09083Z" fill="#62D37D" fill-opacity="0.05"/>
</g>
<path d="M0.4 3.09083C0.4 2.04149 1.54476 1.39333 2.44457 1.93322L8.95985 5.84238C9.83376 6.36673 9.83376 7.63327 8.95985 8.15761L2.44457 12.0668C1.54476 12.6067 0.4 11.9585 0.4 10.9092V3.09083Z" stroke="white" stroke-opacity="0.4" stroke-width="0.8"/>
<defs>
<filter id="filter0_i_1_73143" x="0" y="-0.411865" width="10.0153" height="13.0737" filterUnits="userSpaceOnUse" color-interpolation-filters="sRGB">
<feFlood flood-opacity="0" result="BackgroundImageFix"/>
<feBlend mode="normal" in="SourceGraphic" in2="BackgroundImageFix" result="shape"/>
<feColorMatrix in="SourceAlpha" type="matrix" values="0 0 0 0 0 0 0 0 0 0 0 0 0 0 0 0 0 0 127 0" result="hardAlpha"/>
<feOffset dy="-1.75"/>
<feGaussianBlur stdDeviation="3.5"/>
<feComposite in2="hardAlpha" operator="arithmetic" k2="-1" k3="1"/>
<feColorMatrix type="matrix" values="0 0 0 0 1 0 0 0 0 1 0 0 0 0 1 0 0 0 0.22 0"/>
<feBlend mode="normal" in2="shape" result="effect1_innerShadow_1_73143"/>
</filter>
</defs>
</svg>
