<svg width="165" height="20" viewBox="0 0 165 20" fill="none" xmlns="http://www.w3.org/2000/svg">
<mask id="mask0_14665_83664" style="mask-type:luminance" maskUnits="userSpaceOnUse" x="0" y="15" width="7" height="5">
<path d="M-7.62939e-06 15.3227H6.29123V20.0001H-7.62939e-06V15.3227Z" fill="white"/>
</mask>
<g mask="url(#mask0_14665_83664)">
<path fill-rule="evenodd" clip-rule="evenodd" d="M4.03469 19.314L6.26953 15.5427H0.0237503V20H3.6338L4.03469 19.314Z" fill="white"/>
</g>
<mask id="mask1_14665_83664" style="mask-type:luminance" maskUnits="userSpaceOnUse" x="0" y="7" width="12" height="6">
<path d="M-7.62939e-06 7.38739H11.0523V12.1484H-7.62939e-06V7.38739Z" fill="white"/>
</mask>
<g mask="url(#mask1_14665_83664)">
<path fill-rule="evenodd" clip-rule="evenodd" d="M10.9965 7.57117H0.0237503V11.9427H8.41758L10.9965 7.57117Z" fill="white"/>
</g>
<mask id="mask2_14665_83664" style="mask-type:luminance" maskUnits="userSpaceOnUse" x="0" y="0" width="16" height="5">
<path d="M0 0H15.5488V4.47795H0V0Z" fill="white"/>
</mask>
<g mask="url(#mask2_14665_83664)">
<path fill-rule="evenodd" clip-rule="evenodd" d="M15.4651 6.10352e-05H0.0237579V4.37159H12.8873L15.4651 6.10352e-05Z" fill="white"/>
</g>
<mask id="mask3_14665_83664" style="mask-type:luminance" maskUnits="userSpaceOnUse" x="7" y="0" width="25" height="20">
<path d="M7.61375 6.10352e-05H31.6835V20H7.61375V6.10352e-05Z" fill="white"/>
</mask>
<g mask="url(#mask3_14665_83664)">
<path d="M19.6538 0.00012207L7.79353 20H31.4283L19.6538 0.00012207ZM19.6249 7.65727L24.3239 15.6285H14.8979L19.6249 7.65727Z" fill="url(#paint0_linear_14665_83664)"/>
</g>
<mask id="mask4_14665_83664" style="mask-type:luminance" maskUnits="userSpaceOnUse" x="68" y="2" width="15" height="16">
<path d="M68.1654 2.74292H82.5731V17.2569H68.1654V2.74292Z" fill="white"/>
</mask>
<g mask="url(#mask4_14665_83664)">
<path d="M81.4579 5.41641L79.6305 7.24238C78.4688 6.02368 77.1382 5.41641 75.5902 5.41641C74.2603 5.41641 73.0979 5.8597 72.2155 6.74559C71.3282 7.63217 70.8314 8.73623 70.8314 10.0077C70.8314 11.2799 71.2754 12.441 72.2155 13.3276C73.1555 14.2676 74.318 14.7102 75.7013 14.7102C76.5886 14.7102 77.3599 14.5463 77.972 14.1565C78.5841 13.7667 79.0809 13.1594 79.4665 12.3882H75.5374V9.95493H82.4028V10.5087C82.4028 11.7274 82.07 12.8891 81.4627 13.882C80.8548 14.9319 80.021 15.7608 79.0809 16.3153C78.0832 16.869 76.9207 17.1442 75.595 17.1442C74.1533 17.1442 72.9381 16.8114 71.8298 16.2041C70.7209 15.5968 69.7808 14.6574 69.1729 13.5492C68.5079 12.441 68.1751 11.1695 68.2328 9.89726C68.2328 8.07129 68.8401 6.52394 70.0025 5.19476C71.4435 3.64741 73.2667 2.81433 75.5374 2.81433C76.6991 2.81433 77.808 3.03598 78.8593 3.47927C79.7459 3.86489 80.629 4.52983 81.4627 5.41641H81.4579Z" fill="white"/>
</g>
<path d="M41.6888 2.92981H49.1622V5.47422H44.2923V7.96513H49.1622V10.456H44.2923V14.0503H49.1622V16.5412H41.6888V2.92981Z" fill="white"/>
<path d="M54.1427 2.92981H57.2429C59.2342 2.92981 60.6753 3.15146 61.673 3.64755C62.6138 4.14434 63.4427 4.91976 64.0549 6.02798C64.6628 7.13621 64.995 8.40772 64.995 9.90157C64.995 10.8986 64.831 11.8915 64.4405 12.7781C64.1084 13.6647 63.6116 14.3824 62.9994 14.9897C62.3915 15.597 61.7265 15.9874 61.0081 16.2091C60.2897 16.4307 59.0696 16.5412 57.3006 16.5412H54.2003L54.1468 2.93398L54.1427 2.92981ZM56.7461 5.42072V13.9968H57.9655C59.1272 13.9968 60.0145 13.8863 60.569 13.6112C61.1234 13.3367 61.5667 12.8934 61.8996 12.2285C62.2324 11.5636 62.3963 10.7882 62.3963 9.84877C62.3963 8.40772 62.01 7.30436 61.1763 6.47544C60.4578 5.7577 59.2961 5.42489 57.6327 5.42489H56.7461V5.42072Z" fill="white"/>
<path d="M86.5675 3.20422H94.0402V5.74863H89.171V8.23954H94.0402V10.7304H89.171V14.3247H94.0402V16.8163H86.5675V3.20422Z" fill="white"/>
<path d="M105.651 3.20428H108.751C110.743 3.20428 112.184 3.42593 113.182 3.92272C114.122 4.41882 114.952 5.19493 115.563 6.30246C116.171 7.41069 116.504 8.68289 116.504 10.1767C116.504 11.1738 116.34 12.1667 116.007 13.0533C115.675 13.9399 115.178 14.6576 114.566 15.2649C113.954 15.8721 113.293 16.2619 112.574 16.4836C111.856 16.7052 110.637 16.8164 108.867 16.8164H105.767L105.656 3.20915L105.651 3.20428ZM108.255 5.69519V14.272H109.474C110.637 14.272 111.523 14.1608 112.078 13.8864C112.632 13.6112 113.018 13.1686 113.408 12.5037C113.741 11.8387 113.905 11.0633 113.905 10.1232C113.905 8.68289 113.519 7.57953 112.686 6.75061C111.967 6.03218 110.805 5.70006 109.2 5.70006H108.259L108.255 5.69519Z" fill="white"/>
<path d="M119.963 3.20428H127.436V5.74869H122.567V8.2396H127.436V10.7305H122.567V14.3248H127.436V16.8164H119.963V3.20428Z" fill="white"/>
<path d="M132.443 3.20428H135.047V14.3783H138.813V16.8115H132.448V3.20428H132.443Z" fill="white"/>
<path d="M141.984 3.20428H149.51V5.74869H147.017V16.8115H144.361V5.74869H141.926V3.20428H141.984Z" fill="white"/>
<mask id="mask5_14665_83664" style="mask-type:luminance" maskUnits="userSpaceOnUse" x="151" y="3" width="14" height="14">
<path d="M151.043 3.08478H164.378V16.9588H151.043V3.08478Z" fill="white"/>
</mask>
<g mask="url(#mask5_14665_83664)">
<path d="M156.46 3.20435H159.116L164.376 16.8116H161.609L160.558 13.9886H154.965L153.856 16.8116H151.142L156.455 3.20435H156.46ZM157.79 6.79931L155.963 11.5018H159.617L157.79 6.79931Z" fill="white"/>
</g>
<defs>
<linearGradient id="paint0_linear_14665_83664" x1="13.6868" y1="3.46165" x2="29.1017" y2="5.95371" gradientUnits="userSpaceOnUse">
<stop stop-color="#00DA63"/>
<stop offset="1" stop-color="#27A1FF"/>
</linearGradient>
</defs>
</svg>
