<svg width="202" height="25" viewBox="0 0 202 25" fill="none" xmlns="http://www.w3.org/2000/svg">
<mask id="mask0_14897_86161" style="mask-type:luminance" maskUnits="userSpaceOnUse" x="0" y="19" width="8" height="6">
<path d="M0 19.1528H7.86405V24.9995H0V19.1528Z" fill="white"/>
</mask>
<g mask="url(#mask0_14897_86161)">
<path fill-rule="evenodd" clip-rule="evenodd" d="M5.04336 24.1413L7.83691 19.4272H0.029686V24.9989H4.54225L5.04336 24.1413Z" fill="white"/>
</g>
<mask id="mask1_14897_86161" style="mask-type:luminance" maskUnits="userSpaceOnUse" x="0" y="9" width="14" height="7">
<path d="M0 9.23242H13.8154V15.1837H0V9.23242Z" fill="white"/>
</mask>
<g mask="url(#mask1_14897_86161)">
<path fill-rule="evenodd" clip-rule="evenodd" d="M13.7456 9.46289H0.0296936V14.9273H10.522L13.7456 9.46289Z" fill="white"/>
</g>
<mask id="mask2_14897_86161" style="mask-type:luminance" maskUnits="userSpaceOnUse" x="0" y="0" width="20" height="6">
<path d="M0 0H19.436V5.59744H0V0Z" fill="white"/>
</mask>
<g mask="url(#mask2_14897_86161)">
<path fill-rule="evenodd" clip-rule="evenodd" d="M19.3314 0H0.0296936V5.46441H16.1091L19.3314 0Z" fill="white"/>
</g>
<mask id="mask3_14897_86161" style="mask-type:luminance" maskUnits="userSpaceOnUse" x="9" y="0" width="31" height="25">
<path d="M9.51719 0H39.6044V24.9999H9.51719V0Z" fill="white"/>
</mask>
<g mask="url(#mask3_14897_86161)">
<path d="M24.5673 0L9.74193 24.9999H39.2854L24.5673 0ZM24.5311 9.57143L30.4049 19.5355H18.6224L24.5311 9.57143Z" fill="#62D37D"/>
</g>
<mask id="mask4_14897_86161" style="mask-type:luminance" maskUnits="userSpaceOnUse" x="82" y="3" width="19" height="19">
<path d="M82.7001 3.42871H100.71V21.5712H82.7001V3.42871Z" fill="white"/>
</mask>
<g mask="url(#mask4_14897_86161)">
<path d="M99.3157 6.77115L97.0315 9.05362C95.5793 7.53024 93.9161 6.77115 91.981 6.77115C90.3187 6.77115 88.8657 7.32527 87.7627 8.43263C86.6536 9.54085 86.0326 10.9209 86.0326 12.5103C86.0326 14.1006 86.5876 15.5519 87.7627 16.6601C88.9378 17.8352 90.3908 18.3884 92.12 18.3884C93.2291 18.3884 94.1932 18.1835 94.9583 17.6962C95.7235 17.209 96.3445 16.4499 96.8265 15.4859H91.915V12.4443H100.497V13.1365C100.497 14.6599 100.081 16.1121 99.3218 17.3532C98.5618 18.6655 97.5196 19.7016 96.3445 20.3947C95.0973 21.0869 93.6443 21.4309 91.9871 21.4309C90.185 21.4309 88.6659 21.0148 87.2806 20.2558C85.8945 19.4967 84.7194 18.3224 83.9594 16.9371C83.1283 15.5519 82.7122 13.9625 82.7843 12.3722C82.7843 10.0898 83.5434 8.15557 84.9964 6.49409C86.7977 4.55991 89.0767 3.51855 91.915 3.51855C93.3672 3.51855 94.7534 3.79561 96.0674 4.34973C97.1756 4.83175 98.2795 5.66292 99.3218 6.77115H99.3157Z" fill="white"/>
</g>
<path d="M49.6044 3.66357H58.9461V6.84408H52.8587V9.95772H58.9461V13.0714H52.8587V17.5642H58.9461V20.6778H49.6044V3.66357Z" fill="white"/>
<path d="M65.1717 3.66357H69.047C71.5362 3.66357 73.3375 3.94063 74.5847 4.56075C75.7606 5.18174 76.7968 6.15101 77.5619 7.53629C78.3219 8.92158 78.737 10.511 78.737 12.3783C78.737 13.6246 78.5321 14.8657 78.044 15.9739C77.6288 17.0822 77.0078 17.9793 76.2427 18.7384C75.4827 19.4975 74.6515 19.9856 73.7535 20.2627C72.8554 20.5397 71.3303 20.6778 69.1191 20.6778H65.2437L65.1769 3.66879L65.1717 3.66357ZM68.426 6.77721V17.4973H69.9502C71.4024 17.4973 72.5115 17.3592 73.2046 17.0153C73.8977 16.6722 74.4518 16.1181 74.8678 15.2869C75.2838 14.4558 75.4888 13.4865 75.4888 12.3123C75.4888 10.511 75.0059 9.13176 73.9637 8.09562C73.0656 7.19844 71.6135 6.78242 69.5342 6.78242H68.426V6.77721Z" fill="white"/>
<path d="M105.703 4.00635H115.044V7.18686H108.957V10.3005H115.044V13.4141H108.957V17.907H115.044V21.0215H105.703V4.00635Z" fill="white"/>
<path d="M128.307 4.00684H132.183C134.672 4.00684 136.473 4.28389 137.721 4.90488C138.896 5.525 139.933 6.49514 140.698 7.87955C141.458 9.26484 141.874 10.8551 141.874 12.7224C141.874 13.9687 141.668 15.2098 141.253 16.3181C140.837 17.4263 140.216 18.3235 139.45 19.0826C138.685 19.8416 137.859 20.3289 136.961 20.6059C136.063 20.883 134.539 21.022 132.327 21.022H128.452L128.313 4.01292L128.307 4.00684ZM131.562 7.12047V17.8414H133.086C134.539 17.8414 135.647 17.7025 136.34 17.3594C137.033 17.0155 137.516 16.4622 138.003 15.6311C138.42 14.7999 138.624 13.8306 138.624 12.6555C138.624 10.8551 138.142 9.47589 137.1 8.43975C136.202 7.5417 134.749 7.12655 132.743 7.12655H131.567L131.562 7.12047Z" fill="#62D37D"/>
<path d="M146.197 4.00684H155.539V7.18735H149.451V10.301H155.539V13.4146H149.451V17.9075H155.539V21.022H146.197V4.00684Z" fill="#62D37D"/>
<path d="M161.797 4.00684H165.052V17.9743H169.759V21.0159H161.804V4.00684H161.797Z" fill="#62D37D"/>
<path d="M173.723 4.00684H183.131V7.18735H180.015V21.0159H176.694V7.18735H173.651V4.00684H173.723Z" fill="#62D37D"/>
<mask id="mask5_14897_86161" style="mask-type:luminance" maskUnits="userSpaceOnUse" x="185" y="3" width="17" height="19">
<path d="M185.047 3.85938H201.715V21.2019H185.047V3.85938Z" fill="white"/>
</mask>
<g mask="url(#mask5_14897_86161)">
<path d="M191.818 4.00781H195.138L201.714 21.0169H198.254L196.94 17.4881H189.95L188.563 21.0169H185.171L191.813 4.00781H191.818ZM193.481 8.50152L191.197 14.3796H195.765L193.481 8.50152Z" fill="#62D37D"/>
</g>
</svg>
