<svg width="111" height="111" viewBox="0 0 111 111" fill="none" xmlns="http://www.w3.org/2000/svg">
<path d="M48.1851 4.46575C52.8261 1.78625 58.5441 1.78626 63.1851 4.46575L95.9891 23.4052C100.63 26.0847 103.489 31.0366 103.489 36.3955V74.2744C103.489 79.6333 100.63 84.5853 95.9891 87.2647L63.1851 106.204C58.5441 108.884 52.8261 108.884 48.1851 106.204L15.3811 87.2647C10.7401 84.5853 7.88109 79.6333 7.88109 74.2744V36.3955C7.88109 31.0366 10.7401 26.0847 15.3811 23.4052L48.1851 4.46575Z" fill="white" fill-opacity="0.07"/>
<path d="M48.1851 4.46575C52.8261 1.78625 58.5441 1.78626 63.1851 4.46575L95.9891 23.4052C100.63 26.0847 103.489 31.0366 103.489 36.3955V74.2744C103.489 79.6333 100.63 84.5853 95.9891 87.2647L63.1851 106.204C58.5441 108.884 52.8261 108.884 48.1851 106.204L15.3811 87.2647C10.7401 84.5853 7.88109 79.6333 7.88109 74.2744V36.3955C7.88109 31.0366 10.7401 26.0847 15.3811 23.4052L48.1851 4.46575Z" fill="url(#paint0_linear_14996_3692)" fill-opacity="0.1"/>
<path d="M48.1851 4.46575C52.8261 1.78625 58.5441 1.78626 63.1851 4.46575L95.9891 23.4052C100.63 26.0847 103.489 31.0366 103.489 36.3955V74.2744C103.489 79.6333 100.63 84.5853 95.9891 87.2647L63.1851 106.204C58.5441 108.884 52.8261 108.884 48.1851 106.204L15.3811 87.2647C10.7401 84.5853 7.88109 79.6333 7.88109 74.2744V36.3955C7.88109 31.0366 10.7401 26.0847 15.3811 23.4052L48.1851 4.46575Z" fill="#62D37D" fill-opacity="0.02"/>
<path d="M48.4987 5.00897C52.9457 2.44153 58.4245 2.44153 62.8715 5.00898L95.6755 23.9484C100.122 26.5158 102.862 31.2607 102.862 36.3955V74.2744C102.862 79.4092 100.122 84.1541 95.6755 86.7215L62.8715 105.661C58.4245 108.228 52.9457 108.228 48.4987 105.661L15.6947 86.7215C11.2478 84.1541 8.50835 79.4092 8.50835 74.2744V36.3955C8.50835 31.2607 11.2478 26.5158 15.6947 23.9484L48.4987 5.00897Z" stroke="white" stroke-opacity="0.13" stroke-width="1.25453"/>
<g clip-path="url(#clip0_14996_3692)">
<g clip-path="url(#clip1_14996_3692)">
<path d="M43.8424 54.7157C43.8424 55.4048 43.9174 55.9636 44.0477 56.3724C44.1959 56.7812 44.3833 57.2293 44.644 57.7131C44.7368 57.8613 44.7743 58.0113 44.7743 58.1416C44.7743 58.3273 44.6618 58.5147 44.4208 58.7004L43.2479 59.4823C43.0801 59.5948 42.9123 59.6502 42.7641 59.6502C42.5784 59.6502 42.391 59.5573 42.2053 59.3895C41.9447 59.111 41.7215 58.8129 41.5358 58.5147C41.3502 58.1987 41.1627 57.8452 40.9592 57.4168C39.506 59.1306 37.6814 59.9858 35.4855 59.9858C33.9216 59.9858 32.6737 59.5395 31.7614 58.6451C30.8491 57.7506 30.3832 56.5598 30.3832 55.0709C30.3832 53.4892 30.942 52.2038 32.0774 51.2361C33.2129 50.2685 34.7214 49.7847 36.6388 49.7847C37.2726 49.7847 37.9242 49.8401 38.6133 49.9329C39.3024 50.0257 40.0094 50.1757 40.7539 50.3417V48.9831C40.7539 47.5674 40.4557 46.5819 39.8791 46.0035C39.2828 45.4268 38.2777 45.1466 36.8441 45.1466C36.1925 45.1466 35.523 45.2215 34.8339 45.3894C34.1448 45.5572 33.4753 45.7625 32.8237 46.0231C32.5255 46.1535 32.3024 46.2284 32.172 46.2659C32.0417 46.3034 31.9489 46.3213 31.8739 46.3213C31.6132 46.3213 31.4829 46.1356 31.4829 45.7446V44.8324C31.4829 44.5342 31.5204 44.3111 31.6132 44.1807C31.7061 44.0504 31.8739 43.9201 32.1346 43.7897C32.7862 43.4541 33.5681 43.1756 34.4804 42.9525C35.3927 42.7097 36.3603 42.599 37.3851 42.599C39.6006 42.599 41.2198 43.1024 42.2624 44.1075C43.2872 45.1126 43.8085 46.6391 43.8085 48.6886V54.721H43.846L43.8424 54.7157ZM36.2835 57.5471C36.8977 57.5471 37.5314 57.4346 38.2009 57.2115C38.8704 56.9883 39.4667 56.5777 39.9701 56.0207C40.2683 55.6672 40.4914 55.2762 40.6039 54.8299C40.7164 54.3836 40.7896 53.8427 40.7896 53.2107V52.4287C40.2504 52.2984 39.672 52.1859 39.0757 52.1127C38.4794 52.0395 37.9028 52.0002 37.3261 52.0002C36.0782 52.0002 35.166 52.243 34.5518 52.7447C33.9377 53.2464 33.6395 53.9551 33.6395 54.8853C33.6395 55.76 33.8627 56.4117 34.3287 56.858C34.775 57.3239 35.4266 57.5471 36.2835 57.5471ZM51.2335 59.5573C50.8978 59.5573 50.6747 59.502 50.5265 59.3717C50.3783 59.2592 50.248 58.9985 50.1355 58.6451L45.7598 44.2521C45.6473 43.879 45.592 43.638 45.592 43.5077C45.592 43.2095 45.7402 43.0417 46.0383 43.0417H47.8629C48.2163 43.0417 48.4591 43.0971 48.5895 43.2274C48.7376 43.3399 48.8501 43.6005 48.9626 43.954L52.0904 56.2796L54.995 43.954C55.0879 43.5809 55.2003 43.3399 55.3485 43.2274C55.4967 43.1149 55.7574 43.0417 56.093 43.0417H57.5819C57.9354 43.0417 58.1782 43.0971 58.3264 43.2274C58.4746 43.3399 58.6049 43.6005 58.6799 43.954L61.622 56.4295L64.8426 43.954C64.9551 43.5809 65.0854 43.3399 65.2158 43.2274C65.3639 43.1149 65.6067 43.0417 65.9424 43.0417H67.6741C67.9722 43.0417 68.14 43.1899 68.14 43.5077C68.14 43.6005 68.1222 43.6933 68.1026 43.8058C68.0829 43.9183 68.0472 44.0665 67.9722 44.2718L63.484 58.6647C63.3716 59.0378 63.2412 59.2788 63.0931 59.3913C62.9449 59.5038 62.7021 59.577 62.3861 59.577H60.7847C60.4312 59.577 60.1884 59.5216 60.0402 59.3913C59.8921 59.261 59.7617 59.0182 59.6868 58.6468L56.8 46.6373L53.9328 58.6272C53.84 59.0003 53.7275 59.2413 53.5793 59.3717C53.4311 59.502 53.1705 59.5573 52.8349 59.5573H51.2335ZM75.1598 60.0608C74.1921 60.0608 73.2227 59.9483 72.2926 59.7251C71.3625 59.502 70.6359 59.2592 70.1521 58.9807C69.8539 58.8129 69.6486 58.6272 69.5754 58.4594C69.5022 58.2916 69.4629 58.1059 69.4629 57.9381V56.9883C69.4629 56.5973 69.6111 56.4117 69.8914 56.4117C70.0039 56.4117 70.1146 56.4295 70.227 56.467C70.3395 56.5045 70.5055 56.5795 70.693 56.6527C71.3268 56.9312 72.0159 57.1561 72.7407 57.3043C73.4852 57.4525 74.2118 57.5275 74.9562 57.5275C76.1292 57.5275 77.0414 57.3222 77.6752 56.9133C78.309 56.5045 78.6428 55.9082 78.6428 55.1441C78.6428 54.6228 78.475 54.1944 78.1394 53.8409C77.8038 53.4874 77.1718 53.1714 76.2595 52.8732L73.5602 52.0359C72.2016 51.6075 71.1947 50.9755 70.5805 50.1364C69.9664 49.317 69.6504 48.4047 69.6504 47.4371C69.6504 46.6551 69.8182 45.966 70.1538 45.3697C70.4895 44.7734 70.9358 44.2521 71.4946 43.8433C72.0534 43.4148 72.6854 43.0988 73.4316 42.8757C74.1779 42.6525 74.958 42.5597 75.7775 42.5597C76.1863 42.5597 76.6148 42.5775 77.0254 42.6347C77.4538 42.69 77.8448 42.765 78.2358 42.84C78.6089 42.9328 78.9624 43.0256 79.2963 43.1381C79.6301 43.2506 79.8925 43.3613 80.0782 43.4738C80.3389 43.6219 80.5245 43.7719 80.637 43.9397C80.7495 44.0879 80.8048 44.2932 80.8048 44.5538V45.4286C80.8048 45.8196 80.6566 46.0249 80.3763 46.0249C80.2282 46.0249 79.9854 45.9499 79.6694 45.8018C78.6089 45.3179 77.4164 45.0752 76.0952 45.0752C75.0348 45.0752 74.1957 45.243 73.6191 45.5965C73.0424 45.9499 72.7443 46.4909 72.7443 47.2532C72.7443 47.7745 72.93 48.2208 73.3031 48.5761C73.6762 48.9314 74.3635 49.2831 75.3508 49.6008L77.9948 50.4381C79.3355 50.8666 80.3031 51.4629 80.8816 52.2252C81.46 52.9875 81.7385 53.8641 81.7385 54.8317C81.7385 55.6315 81.5707 56.3581 81.2547 56.9919C80.9191 57.6257 80.4727 58.1827 79.8961 58.6308C79.3195 59.0967 78.6303 59.4306 77.8288 59.6734C76.9915 59.934 76.1167 60.0643 75.1669 60.0643L75.1598 60.0608Z" fill="white" fill-opacity="0.8"/>
<path d="M78.6786 69.1086C72.5533 73.6325 63.6536 76.0355 56.0002 76.0355C45.276 76.0355 35.6123 72.0703 28.3141 65.4791C27.7374 64.9578 28.2587 64.2508 28.9478 64.6597C36.8423 69.2407 46.581 72.015 56.6536 72.015C63.4501 72.015 70.9162 70.5993 77.7859 67.6946C78.8107 67.2287 79.6855 68.3641 78.6803 69.1104L78.6786 69.1086Z" fill="white" fill-opacity="0.8"/>
<path d="M81.2297 66.204C80.4478 65.1988 76.0542 65.7202 74.0618 65.9612C73.4655 66.0361 73.3727 65.5148 73.9136 65.1239C77.4146 62.6655 83.1667 63.3743 83.838 64.1937C84.5075 65.031 83.6523 70.785 80.3746 73.5415C79.8711 73.9699 79.3873 73.7468 79.6105 73.188C80.3549 71.3456 82.0117 67.193 81.2297 66.2057V66.204Z" fill="white" fill-opacity="0.8"/>
</g>
</g>
<defs>
<linearGradient id="paint0_linear_14996_3692" x1="55.6851" y1="0.13562" x2="55.6851" y2="110.534" gradientUnits="userSpaceOnUse">
<stop stop-color="white" stop-opacity="0"/>
<stop offset="1" stop-color="white"/>
</linearGradient>
<clipPath id="clip0_14996_3692">
<rect width="58.5" height="58.5" fill="white" transform="translate(26.1574 29.3325)"/>
</clipPath>
<clipPath id="clip1_14996_3692">
<rect width="57.1289" height="57.1289" fill="white" transform="translate(27.5571 30.7322)"/>
</clipPath>
</defs>
</svg>
