<svg width="93" height="93" viewBox="0 0 93 93" fill="none" xmlns="http://www.w3.org/2000/svg">
<path d="M40.5496 4.40855C44.4171 2.17564 49.182 2.17564 53.0496 4.40855L80.3862 20.1914C84.2538 22.4243 86.6362 26.5509 86.6362 31.0167V62.5824C86.6362 67.0482 84.2538 71.1748 80.3862 73.4077L53.0496 89.1906C49.182 91.4235 44.4171 91.4235 40.5496 89.1906L13.2129 73.4077C9.34536 71.1748 6.96287 67.0482 6.96287 62.5824V31.0167C6.96287 26.5509 9.34535 22.4243 13.2129 20.1914L40.5496 4.40855Z" fill="white" fill-opacity="0.07"/>
<path d="M40.5496 4.40855C44.4171 2.17564 49.182 2.17564 53.0496 4.40855L80.3862 20.1914C84.2538 22.4243 86.6362 26.5509 86.6362 31.0167V62.5824C86.6362 67.0482 84.2538 71.1748 80.3862 73.4077L53.0496 89.1906C49.182 91.4235 44.4171 91.4235 40.5496 89.1906L13.2129 73.4077C9.34536 71.1748 6.96287 67.0482 6.96287 62.5824V31.0167C6.96287 26.5509 9.34535 22.4243 13.2129 20.1914L40.5496 4.40855Z" fill="url(#paint0_linear_14996_3714)" fill-opacity="0.1"/>
<path d="M40.5496 4.40855C44.4171 2.17564 49.182 2.17564 53.0496 4.40855L80.3862 20.1914C84.2538 22.4243 86.6362 26.5509 86.6362 31.0167V62.5824C86.6362 67.0482 84.2538 71.1748 80.3862 73.4077L53.0496 89.1906C49.182 91.4235 44.4171 91.4235 40.5496 89.1906L13.2129 73.4077C9.34536 71.1748 6.96287 67.0482 6.96287 62.5824V31.0167C6.96287 26.5509 9.34535 22.4243 13.2129 20.1914L40.5496 4.40855Z" fill="#62D37D" fill-opacity="0.02"/>
<path d="M40.8109 4.86124C44.5167 2.72171 49.0824 2.7217 52.7882 4.86124L80.1249 20.6441C83.8307 22.7836 86.1135 26.7376 86.1135 31.0167V62.5824C86.1135 66.8615 83.8307 70.8155 80.1249 72.955L52.7882 88.7379C49.0824 90.8774 44.5167 90.8774 40.8109 88.7379L13.4742 72.955C9.76845 70.8155 7.48559 66.8615 7.48559 62.5824V31.0167C7.48559 26.7376 9.76845 22.7836 13.4742 20.6441L40.8109 4.86124Z" stroke="white" stroke-opacity="0.13" stroke-width="1.04544"/>
<g clip-path="url(#clip0_14996_3714)">
<path d="M53.8121 38.6127L57.6368 34.7879L57.8917 33.1775C50.922 26.8399 39.8428 27.5585 33.5599 34.6769C31.8147 36.654 30.52 39.1188 29.8295 41.6641L31.1994 41.4711L38.8487 40.2097L39.4392 39.6058C42.8418 35.8689 48.595 35.3661 52.5237 38.5456L53.8121 38.6127Z" fill="#BDC0BE"/>
<path d="M63.0853 41.5516C62.2062 38.3142 60.4013 35.4038 57.8918 33.1776L52.5238 38.5455C54.7904 40.3977 56.0817 43.1879 56.0264 46.1144V47.0673C58.6648 47.0673 60.804 49.2063 60.804 51.8447C60.804 54.4833 58.6648 56.5687 56.0264 56.5687H46.4579L45.5185 57.5886V63.3189L46.4579 64.218H56.0264C62.8894 64.2714 68.4963 58.805 68.5497 51.942C68.582 47.7821 66.531 43.8823 63.0853 41.5516Z" fill="#BDC0BE"/>
<path d="M36.9028 64.2181H46.4579V56.5686H36.9028C36.222 56.5685 35.5627 56.4222 34.9436 56.1393L33.5881 56.5552L29.7365 60.38L29.401 61.6817C31.561 63.3127 34.1963 64.2298 36.9028 64.2181Z" fill="#BDC0BE"/>
<path d="M36.9028 39.4045C30.0397 39.4454 24.5094 45.0423 24.5504 51.9053C24.5732 55.7378 26.3631 59.3454 29.401 61.6817L34.9436 56.1393C32.5389 55.0529 31.4704 52.2229 32.5568 49.8184C33.6431 47.4139 36.4731 46.3453 38.8775 47.4316C39.9371 47.9102 40.7857 48.759 41.2643 49.8184L46.807 44.276C44.4487 41.193 40.7843 39.3906 36.9028 39.4045Z" fill="#BDC0BE"/>
</g>
<defs>
<linearGradient id="paint0_linear_14996_3714" x1="46.7996" y1="0.80011" x2="46.7996" y2="92.799" gradientUnits="userSpaceOnUse">
<stop stop-color="white" stop-opacity="0"/>
<stop offset="1" stop-color="white"/>
</linearGradient>
<clipPath id="clip0_14996_3714">
<rect width="44" height="35.4062" fill="white" transform="translate(24.5501 28.847)"/>
</clipPath>
</defs>
</svg>
