<svg width="74" height="75" viewBox="0 0 74 75" fill="none" xmlns="http://www.w3.org/2000/svg">
<path d="M31.7996 3.42215C34.8936 1.63582 38.7055 1.63582 41.7996 3.42215L63.6689 16.0484C66.7629 17.8348 68.6689 21.136 68.6689 24.7087V49.9612C68.6689 53.5339 66.7629 56.8352 63.6689 58.6215L41.7996 71.2478C38.7055 73.0341 34.8936 73.0341 31.7996 71.2478L9.93021 58.6215C6.8362 56.8352 4.93021 53.5339 4.93021 49.9612V24.7087C4.93021 21.136 6.8362 17.8348 9.93021 16.0484L31.7996 3.42215Z" fill="white" fill-opacity="0.07"/>
<path d="M31.7996 3.42215C34.8936 1.63582 38.7055 1.63582 41.7996 3.42215L63.6689 16.0484C66.7629 17.8348 68.6689 21.136 68.6689 24.7087V49.9612C68.6689 53.5339 66.7629 56.8352 63.6689 58.6215L41.7996 71.2478C38.7055 73.0341 34.8936 73.0341 31.7996 71.2478L9.93021 58.6215C6.8362 56.8352 4.93021 53.5339 4.93021 49.9612V24.7087C4.93021 21.136 6.8362 17.8348 9.93021 16.0484L31.7996 3.42215Z" fill="url(#paint0_linear_14996_3705)" fill-opacity="0.1"/>
<path d="M31.7996 3.42215C34.8936 1.63582 38.7055 1.63582 41.7996 3.42215L63.6689 16.0484C66.7629 17.8348 68.6689 21.136 68.6689 24.7087V49.9612C68.6689 53.5339 66.7629 56.8352 63.6689 58.6215L41.7996 71.2478C38.7055 73.0341 34.8936 73.0341 31.7996 71.2478L9.93021 58.6215C6.8362 56.8352 4.93021 53.5339 4.93021 49.9612V24.7087C4.93021 21.136 6.8362 17.8348 9.93021 16.0484L31.7996 3.42215Z" fill="#62D37D" fill-opacity="0.02"/>
<path d="M32.0086 3.7843C34.9733 2.07268 38.6258 2.07268 41.5905 3.7843L63.4598 16.4106C66.4244 18.1222 68.2507 21.2854 68.2507 24.7087V49.9612C68.2507 53.3845 66.4244 56.5477 63.4598 58.2593L41.5905 70.8856C38.6258 72.5972 34.9733 72.5972 32.0086 70.8856L10.1393 58.2593C7.17467 56.5477 5.34838 53.3845 5.34838 49.9612V24.7087C5.34838 21.2854 7.17467 18.1222 10.1393 16.4106L32.0086 3.7843Z" stroke="white" stroke-opacity="0.13" stroke-width="0.836354"/>
<mask id="path-3-inside-1_14996_3705" fill="white">
<path d="M54.2658 41.4044C53.949 41.2931 53.6175 41.2499 53.2812 41.2335C52.5788 41.1994 51.8806 41.1252 51.1947 40.9598C50.9842 40.9087 50.82 40.8017 50.6996 40.6247C50.637 40.5323 50.5683 40.4417 50.4503 40.4295C50.2064 40.4052 50.187 40.2611 50.2113 40.0561C50.3524 38.8635 50.3274 37.6728 50.1383 36.4869C49.8415 34.6284 49.1853 32.9061 48.1588 31.328C48.0736 31.1966 48.0809 31.1157 48.2026 31.0215C48.2914 30.9528 48.4087 30.8907 48.4118 30.7581C48.4191 30.4097 48.6386 30.2041 48.8904 30.0144C49.3763 29.6483 49.8859 29.3193 50.4211 29.0304C50.741 28.8577 51.0517 28.6716 51.3059 28.4101C51.621 28.0859 51.7396 27.6973 51.5893 27.2625C51.4525 26.8654 51.1405 26.6714 50.7331 26.6373C50.4278 26.6118 50.1572 26.7188 49.9139 26.9013C49.656 27.0947 49.4329 27.3233 49.2176 27.5623C48.7833 28.044 48.3272 28.5044 47.8188 28.9106C47.634 29.0584 47.4351 29.1423 47.1967 29.1174C47.0672 29.1034 46.9486 29.1314 46.8573 29.2238C46.6913 29.3922 46.577 29.3345 46.4231 29.1824C44.1797 26.9627 41.4898 25.6673 38.3518 25.3122C38.2058 25.2958 38.1481 25.2416 38.139 25.1018C38.1304 24.9686 38.1408 24.8305 38.0155 24.7284C37.8452 24.5897 37.7923 24.3987 37.7862 24.1822C37.771 23.641 37.8282 23.1058 37.8993 22.5713C37.9632 22.092 38.0733 21.6189 38.041 21.1287C38.0033 20.5565 37.5649 20.0852 37.0388 20.07C36.5109 20.0548 36.0463 20.5011 35.9958 21.0795C35.9715 21.3592 35.9782 21.6396 36.0275 21.9163C36.143 22.5682 36.2202 23.2244 36.2458 23.8855C36.2707 24.1944 36.2476 24.4918 36.0183 24.7284C35.9259 24.8238 35.8815 24.9321 35.8882 25.0598C35.8973 25.2301 35.8286 25.2939 35.6528 25.3104C34.5606 25.4107 33.4994 25.6552 32.468 26.0292C30.57 26.7176 28.9146 27.7843 27.5079 29.2335C27.3912 29.3539 27.3024 29.3637 27.1844 29.2548C27.0731 29.152 26.9484 29.1131 26.7909 29.1447C26.6237 29.1782 26.468 29.1161 26.3293 29.0182C26.0836 28.8449 25.8592 28.6454 25.6385 28.4417C25.2067 28.0428 24.8327 27.5885 24.4137 27.178C24.1838 26.953 23.9326 26.7541 23.6048 26.6799C22.9128 26.5236 22.2925 27.0497 22.3727 27.732C22.4092 28.0434 22.5564 28.2994 22.7924 28.5056C23.0247 28.7087 23.2807 28.8759 23.5519 29.0225C24.123 29.3314 24.6685 29.6799 25.1848 30.0746C25.4116 30.2479 25.5771 30.4529 25.6026 30.7472C25.6105 30.8348 25.6537 30.8998 25.7194 30.9552C25.987 31.1802 25.9523 31.1395 25.7717 31.4289C24.5572 33.3799 23.8761 35.498 23.7478 37.7956C23.704 38.5759 23.7362 39.3507 23.8353 40.1236C23.8584 40.303 23.825 40.4143 23.6286 40.4392C23.4917 40.4569 23.3932 40.5353 23.3166 40.649C23.184 40.8455 22.9973 40.9507 22.7644 41.003C22.197 41.1301 21.6223 41.2 21.0433 41.239C20.6213 41.2675 20.1968 41.2815 19.7905 41.4165C19.2317 41.6026 18.9002 42.1433 19.0273 42.6541C19.1556 43.1698 19.6908 43.4934 20.2716 43.4058C20.5976 43.3565 20.9059 43.2507 21.21 43.1254C21.854 42.8597 22.5077 42.6219 23.1919 42.479C23.3823 42.4394 23.5617 42.4534 23.7259 42.5501C23.8694 42.6347 24.0123 42.6711 24.1729 42.6194C24.3328 42.5684 24.3973 42.6444 24.4489 42.7922C25.4974 45.7988 27.3851 48.1353 30.0822 49.8199C30.2349 49.9154 30.2592 49.9999 30.1813 50.1471C30.1205 50.2614 30.0731 50.38 30.129 50.5181C30.2215 50.7473 30.185 50.9663 30.0761 51.1876C29.7745 51.8019 29.4175 52.3826 29.0192 52.9379C28.8234 53.2109 28.647 53.4943 28.5302 53.81C28.2857 54.4704 28.6348 55.1406 29.2782 55.2537C29.6821 55.3249 30.1363 55.0932 30.3766 54.6875C30.5164 54.4516 30.6289 54.2022 30.6983 53.9371C30.8315 53.4274 31.0248 52.9391 31.1945 52.4422C31.2784 52.1965 31.3824 51.9594 31.5168 51.7362C31.6196 51.5659 31.7504 51.4321 31.9492 51.3853C32.0605 51.3591 32.1195 51.2855 32.1712 51.1919C32.333 50.9006 32.2734 50.9146 32.603 51.0313C33.905 51.4929 35.2448 51.7532 36.6271 51.7964C38.3184 51.8493 39.9585 51.5927 41.5488 51.0174C41.6954 50.9644 41.7769 50.9906 41.8413 51.1293C41.8894 51.2326 41.9356 51.3439 42.067 51.3762C42.3291 51.4406 42.4781 51.6273 42.5888 51.8584C42.8837 52.4763 43.1075 53.1197 43.293 53.7771C43.3897 54.1201 43.5058 54.4576 43.712 54.7502C43.9784 55.1272 44.3487 55.3103 44.8115 55.2209C45.2214 55.1412 45.4616 54.8621 45.5535 54.4625C45.6143 54.1961 45.5766 53.9346 45.4629 53.6835C45.3297 53.3897 45.157 53.1209 44.9709 52.8588C44.5871 52.3188 44.235 51.7593 43.9528 51.1578C43.8525 50.9444 43.8124 50.7297 43.9097 50.5065C43.9522 50.4086 43.9382 50.3174 43.8896 50.2322C43.7838 50.0468 43.833 49.9397 44.0179 49.826C45.5486 48.8834 46.8288 47.6701 47.8663 46.202C48.6076 45.153 49.1866 44.02 49.5952 42.8019C49.6524 42.6322 49.7217 42.5404 49.9151 42.6061C50.0373 42.6474 50.1523 42.6176 50.2624 42.5422C50.4144 42.4376 50.5841 42.4096 50.7702 42.4443C51.472 42.5757 52.1361 42.822 52.7929 43.092C53.0909 43.2142 53.3913 43.3231 53.7093 43.376C54.1277 43.4459 54.5024 43.3529 54.79 43.0299C55.2686 42.4923 55.0004 41.6628 54.2658 41.4044ZM38.6893 28.0762C40.8227 28.4295 42.6782 29.3472 44.2612 30.8202C44.3846 30.9351 44.3639 30.9929 44.2387 31.0811C42.8782 32.0407 41.5215 33.0046 40.1616 33.9655C40.0114 34.0719 39.8515 34.1662 39.6636 34.1936C39.1096 34.2745 38.6528 33.9211 38.6151 33.3622C38.5525 32.4366 38.5038 31.5104 38.4503 30.5842C38.4084 29.8557 38.3688 29.1265 38.3244 28.3225C38.3159 28.0197 38.3165 28.0142 38.6893 28.0762ZM36.084 36.9722C36.1588 36.8767 36.2434 36.836 36.3632 36.8396C36.5809 36.8457 36.7986 36.8408 37.0169 36.8408C37.0443 36.8408 37.0729 36.8451 37.099 36.8402C37.647 36.7368 38.0343 36.9454 38.3086 37.4253C38.4223 37.6241 38.5902 37.792 38.7392 37.9696C38.8164 38.0614 38.8389 38.155 38.811 38.2718C38.7112 38.689 38.6139 39.1074 38.5221 39.5264C38.4965 39.6432 38.4418 39.7168 38.3311 39.7678C37.9419 39.9485 37.5551 40.1364 37.1702 40.3261C37.0631 40.3784 36.9689 40.3802 36.8606 40.3267C36.4757 40.1364 36.0889 39.9503 35.6997 39.7691C35.5914 39.7186 35.5282 39.6486 35.502 39.5307C35.4096 39.1117 35.3135 38.6932 35.2132 38.2761C35.1858 38.1617 35.1973 38.0717 35.277 37.9762C35.5519 37.6466 35.8195 37.3103 36.084 36.9722ZM29.7824 30.7703C31.394 29.2828 33.2884 28.387 35.4528 28.0531C35.6997 28.0148 35.724 28.044 35.7051 28.3402C35.6127 29.9742 35.5227 31.6089 35.4248 33.243C35.4029 33.6116 35.2813 33.94 34.9255 34.1255C34.5539 34.3195 34.2121 34.2325 33.8892 34.0044C33.3656 33.6347 32.8426 33.2631 32.3196 32.8921C31.4791 32.2968 30.6381 31.7014 29.7982 31.1054C29.5848 30.954 29.5854 30.9521 29.7824 30.7703ZM26.4729 39.3592C26.4479 39.0606 26.4425 38.7601 26.4352 38.5972C26.4364 36.5751 26.915 34.8194 27.8552 33.1877C27.978 32.9742 27.9823 32.9742 28.1611 33.1342C29.3816 34.2258 30.6016 35.318 31.8203 36.4115C31.906 36.4887 31.9869 36.5726 32.0611 36.6608C32.4662 37.1419 32.3111 37.8315 31.7291 38.0723C31.1799 38.2998 30.5967 38.4232 30.0275 38.5899C28.9346 38.9097 27.8394 39.2236 26.7453 39.5392C26.5051 39.6085 26.4935 39.6085 26.4729 39.3592ZM33.2744 42.6614C32.6492 44.1733 32.024 45.6857 31.3982 47.197C31.3052 47.422 31.3009 47.4238 31.1003 47.2864C29.3172 46.0676 28.0139 44.4603 27.1996 42.4589C27.0682 42.136 27.0701 42.1317 27.4149 42.0733C29.0271 41.7991 30.6399 41.5242 32.2527 41.2542C32.7167 41.1763 33.0798 41.3332 33.2786 41.675C33.3601 41.8143 33.3954 41.9645 33.3905 42.1256C33.3875 42.3117 33.3455 42.4899 33.2744 42.6614ZM40.1884 48.6292C39.1558 48.9393 38.1025 49.1072 36.9306 49.1041C35.9502 49.1084 34.903 48.9442 33.8795 48.6267C33.6338 48.5507 33.6332 48.5464 33.7554 48.3257C34.5478 46.8929 35.3403 45.4595 36.1339 44.0273C36.1831 43.9379 36.2342 43.8485 36.2944 43.7664C36.6247 43.314 37.2632 43.2708 37.6524 43.674C37.757 43.7822 37.8422 43.9063 37.9152 44.0383C38.7112 45.4771 39.5042 46.9178 40.307 48.3525C40.4061 48.5288 40.3593 48.5781 40.1884 48.6292ZM46.9109 42.3251C46.0978 44.4098 44.7659 46.078 42.9141 47.3338C42.7742 47.4287 42.7226 47.3946 42.6642 47.2529C42.0201 45.6882 41.3713 44.1252 40.726 42.5611C40.6664 42.4163 40.6147 42.2673 40.6196 42.1062C40.6178 41.613 41.0039 41.2171 41.4996 41.2207C41.9934 41.2244 42.4714 41.3527 42.9555 41.4323C44.2277 41.6422 45.4975 41.8641 46.7698 42.0727C46.9528 42.1025 46.9747 42.1621 46.9109 42.3251ZM47.5707 39.3774C47.5555 39.5477 47.4971 39.5793 47.3366 39.5325C46.113 39.1749 44.8863 38.8264 43.6621 38.4701C43.2048 38.3369 42.7329 38.2426 42.295 38.0498C41.6747 37.7768 41.5251 37.0585 42.0128 36.5866C42.6107 36.0083 43.2413 35.4646 43.8598 34.9081C44.5142 34.3201 45.1703 33.7338 45.8271 33.1482C46.0187 32.9773 46.0224 32.9785 46.1464 33.1932C46.9486 34.5779 47.4199 36.0661 47.5591 37.6612C47.5853 37.961 47.592 38.2602 47.5962 38.5874C47.5883 38.8325 47.5956 39.105 47.5707 39.3774Z"/>
</mask>
<path d="M54.2658 41.4044C53.949 41.2931 53.6175 41.2499 53.2812 41.2335C52.5788 41.1994 51.8806 41.1252 51.1947 40.9598C50.9842 40.9087 50.82 40.8017 50.6996 40.6247C50.637 40.5323 50.5683 40.4417 50.4503 40.4295C50.2064 40.4052 50.187 40.2611 50.2113 40.0561C50.3524 38.8635 50.3274 37.6728 50.1383 36.4869C49.8415 34.6284 49.1853 32.9061 48.1588 31.328C48.0736 31.1966 48.0809 31.1157 48.2026 31.0215C48.2914 30.9528 48.4087 30.8907 48.4118 30.7581C48.4191 30.4097 48.6386 30.2041 48.8904 30.0144C49.3763 29.6483 49.8859 29.3193 50.4211 29.0304C50.741 28.8577 51.0517 28.6716 51.3059 28.4101C51.621 28.0859 51.7396 27.6973 51.5893 27.2625C51.4525 26.8654 51.1405 26.6714 50.7331 26.6373C50.4278 26.6118 50.1572 26.7188 49.9139 26.9013C49.656 27.0947 49.4329 27.3233 49.2176 27.5623C48.7833 28.044 48.3272 28.5044 47.8188 28.9106C47.634 29.0584 47.4351 29.1423 47.1967 29.1174C47.0672 29.1034 46.9486 29.1314 46.8573 29.2238C46.6913 29.3922 46.577 29.3345 46.4231 29.1824C44.1797 26.9627 41.4898 25.6673 38.3518 25.3122C38.2058 25.2958 38.1481 25.2416 38.139 25.1018C38.1304 24.9686 38.1408 24.8305 38.0155 24.7284C37.8452 24.5897 37.7923 24.3987 37.7862 24.1822C37.771 23.641 37.8282 23.1058 37.8993 22.5713C37.9632 22.092 38.0733 21.6189 38.041 21.1287C38.0033 20.5565 37.5649 20.0852 37.0388 20.07C36.5109 20.0548 36.0463 20.5011 35.9958 21.0795C35.9715 21.3592 35.9782 21.6396 36.0275 21.9163C36.143 22.5682 36.2202 23.2244 36.2458 23.8855C36.2707 24.1944 36.2476 24.4918 36.0183 24.7284C35.9259 24.8238 35.8815 24.9321 35.8882 25.0598C35.8973 25.2301 35.8286 25.2939 35.6528 25.3104C34.5606 25.4107 33.4994 25.6552 32.468 26.0292C30.57 26.7176 28.9146 27.7843 27.5079 29.2335C27.3912 29.3539 27.3024 29.3637 27.1844 29.2548C27.0731 29.152 26.9484 29.1131 26.7909 29.1447C26.6237 29.1782 26.468 29.1161 26.3293 29.0182C26.0836 28.8449 25.8592 28.6454 25.6385 28.4417C25.2067 28.0428 24.8327 27.5885 24.4137 27.178C24.1838 26.953 23.9326 26.7541 23.6048 26.6799C22.9128 26.5236 22.2925 27.0497 22.3727 27.732C22.4092 28.0434 22.5564 28.2994 22.7924 28.5056C23.0247 28.7087 23.2807 28.8759 23.5519 29.0225C24.123 29.3314 24.6685 29.6799 25.1848 30.0746C25.4116 30.2479 25.5771 30.4529 25.6026 30.7472C25.6105 30.8348 25.6537 30.8998 25.7194 30.9552C25.987 31.1802 25.9523 31.1395 25.7717 31.4289C24.5572 33.3799 23.8761 35.498 23.7478 37.7956C23.704 38.5759 23.7362 39.3507 23.8353 40.1236C23.8584 40.303 23.825 40.4143 23.6286 40.4392C23.4917 40.4569 23.3932 40.5353 23.3166 40.649C23.184 40.8455 22.9973 40.9507 22.7644 41.003C22.197 41.1301 21.6223 41.2 21.0433 41.239C20.6213 41.2675 20.1968 41.2815 19.7905 41.4165C19.2317 41.6026 18.9002 42.1433 19.0273 42.6541C19.1556 43.1698 19.6908 43.4934 20.2716 43.4058C20.5976 43.3565 20.9059 43.2507 21.21 43.1254C21.854 42.8597 22.5077 42.6219 23.1919 42.479C23.3823 42.4394 23.5617 42.4534 23.7259 42.5501C23.8694 42.6347 24.0123 42.6711 24.1729 42.6194C24.3328 42.5684 24.3973 42.6444 24.4489 42.7922C25.4974 45.7988 27.3851 48.1353 30.0822 49.8199C30.2349 49.9154 30.2592 49.9999 30.1813 50.1471C30.1205 50.2614 30.0731 50.38 30.129 50.5181C30.2215 50.7473 30.185 50.9663 30.0761 51.1876C29.7745 51.8019 29.4175 52.3826 29.0192 52.9379C28.8234 53.2109 28.647 53.4943 28.5302 53.81C28.2857 54.4704 28.6348 55.1406 29.2782 55.2537C29.6821 55.3249 30.1363 55.0932 30.3766 54.6875C30.5164 54.4516 30.6289 54.2022 30.6983 53.9371C30.8315 53.4274 31.0248 52.9391 31.1945 52.4422C31.2784 52.1965 31.3824 51.9594 31.5168 51.7362C31.6196 51.5659 31.7504 51.4321 31.9492 51.3853C32.0605 51.3591 32.1195 51.2855 32.1712 51.1919C32.333 50.9006 32.2734 50.9146 32.603 51.0313C33.905 51.4929 35.2448 51.7532 36.6271 51.7964C38.3184 51.8493 39.9585 51.5927 41.5488 51.0174C41.6954 50.9644 41.7769 50.9906 41.8413 51.1293C41.8894 51.2326 41.9356 51.3439 42.067 51.3762C42.3291 51.4406 42.4781 51.6273 42.5888 51.8584C42.8837 52.4763 43.1075 53.1197 43.293 53.7771C43.3897 54.1201 43.5058 54.4576 43.712 54.7502C43.9784 55.1272 44.3487 55.3103 44.8115 55.2209C45.2214 55.1412 45.4616 54.8621 45.5535 54.4625C45.6143 54.1961 45.5766 53.9346 45.4629 53.6835C45.3297 53.3897 45.157 53.1209 44.9709 52.8588C44.5871 52.3188 44.235 51.7593 43.9528 51.1578C43.8525 50.9444 43.8124 50.7297 43.9097 50.5065C43.9522 50.4086 43.9382 50.3174 43.8896 50.2322C43.7838 50.0468 43.833 49.9397 44.0179 49.826C45.5486 48.8834 46.8288 47.6701 47.8663 46.202C48.6076 45.153 49.1866 44.02 49.5952 42.8019C49.6524 42.6322 49.7217 42.5404 49.9151 42.6061C50.0373 42.6474 50.1523 42.6176 50.2624 42.5422C50.4144 42.4376 50.5841 42.4096 50.7702 42.4443C51.472 42.5757 52.1361 42.822 52.7929 43.092C53.0909 43.2142 53.3913 43.3231 53.7093 43.376C54.1277 43.4459 54.5024 43.3529 54.79 43.0299C55.2686 42.4923 55.0004 41.6628 54.2658 41.4044ZM38.6893 28.0762C40.8227 28.4295 42.6782 29.3472 44.2612 30.8202C44.3846 30.9351 44.3639 30.9929 44.2387 31.0811C42.8782 32.0407 41.5215 33.0046 40.1616 33.9655C40.0114 34.0719 39.8515 34.1662 39.6636 34.1936C39.1096 34.2745 38.6528 33.9211 38.6151 33.3622C38.5525 32.4366 38.5038 31.5104 38.4503 30.5842C38.4084 29.8557 38.3688 29.1265 38.3244 28.3225C38.3159 28.0197 38.3165 28.0142 38.6893 28.0762ZM36.084 36.9722C36.1588 36.8767 36.2434 36.836 36.3632 36.8396C36.5809 36.8457 36.7986 36.8408 37.0169 36.8408C37.0443 36.8408 37.0729 36.8451 37.099 36.8402C37.647 36.7368 38.0343 36.9454 38.3086 37.4253C38.4223 37.6241 38.5902 37.792 38.7392 37.9696C38.8164 38.0614 38.8389 38.155 38.811 38.2718C38.7112 38.689 38.6139 39.1074 38.5221 39.5264C38.4965 39.6432 38.4418 39.7168 38.3311 39.7678C37.9419 39.9485 37.5551 40.1364 37.1702 40.3261C37.0631 40.3784 36.9689 40.3802 36.8606 40.3267C36.4757 40.1364 36.0889 39.9503 35.6997 39.7691C35.5914 39.7186 35.5282 39.6486 35.502 39.5307C35.4096 39.1117 35.3135 38.6932 35.2132 38.2761C35.1858 38.1617 35.1973 38.0717 35.277 37.9762C35.5519 37.6466 35.8195 37.3103 36.084 36.9722ZM29.7824 30.7703C31.394 29.2828 33.2884 28.387 35.4528 28.0531C35.6997 28.0148 35.724 28.044 35.7051 28.3402C35.6127 29.9742 35.5227 31.6089 35.4248 33.243C35.4029 33.6116 35.2813 33.94 34.9255 34.1255C34.5539 34.3195 34.2121 34.2325 33.8892 34.0044C33.3656 33.6347 32.8426 33.2631 32.3196 32.8921C31.4791 32.2968 30.6381 31.7014 29.7982 31.1054C29.5848 30.954 29.5854 30.9521 29.7824 30.7703ZM26.4729 39.3592C26.4479 39.0606 26.4425 38.7601 26.4352 38.5972C26.4364 36.5751 26.915 34.8194 27.8552 33.1877C27.978 32.9742 27.9823 32.9742 28.1611 33.1342C29.3816 34.2258 30.6016 35.318 31.8203 36.4115C31.906 36.4887 31.9869 36.5726 32.0611 36.6608C32.4662 37.1419 32.3111 37.8315 31.7291 38.0723C31.1799 38.2998 30.5967 38.4232 30.0275 38.5899C28.9346 38.9097 27.8394 39.2236 26.7453 39.5392C26.5051 39.6085 26.4935 39.6085 26.4729 39.3592ZM33.2744 42.6614C32.6492 44.1733 32.024 45.6857 31.3982 47.197C31.3052 47.422 31.3009 47.4238 31.1003 47.2864C29.3172 46.0676 28.0139 44.4603 27.1996 42.4589C27.0682 42.136 27.0701 42.1317 27.4149 42.0733C29.0271 41.7991 30.6399 41.5242 32.2527 41.2542C32.7167 41.1763 33.0798 41.3332 33.2786 41.675C33.3601 41.8143 33.3954 41.9645 33.3905 42.1256C33.3875 42.3117 33.3455 42.4899 33.2744 42.6614ZM40.1884 48.6292C39.1558 48.9393 38.1025 49.1072 36.9306 49.1041C35.9502 49.1084 34.903 48.9442 33.8795 48.6267C33.6338 48.5507 33.6332 48.5464 33.7554 48.3257C34.5478 46.8929 35.3403 45.4595 36.1339 44.0273C36.1831 43.9379 36.2342 43.8485 36.2944 43.7664C36.6247 43.314 37.2632 43.2708 37.6524 43.674C37.757 43.7822 37.8422 43.9063 37.9152 44.0383C38.7112 45.4771 39.5042 46.9178 40.307 48.3525C40.4061 48.5288 40.3593 48.5781 40.1884 48.6292ZM46.9109 42.3251C46.0978 44.4098 44.7659 46.078 42.9141 47.3338C42.7742 47.4287 42.7226 47.3946 42.6642 47.2529C42.0201 45.6882 41.3713 44.1252 40.726 42.5611C40.6664 42.4163 40.6147 42.2673 40.6196 42.1062C40.6178 41.613 41.0039 41.2171 41.4996 41.2207C41.9934 41.2244 42.4714 41.3527 42.9555 41.4323C44.2277 41.6422 45.4975 41.8641 46.7698 42.0727C46.9528 42.1025 46.9747 42.1621 46.9109 42.3251ZM47.5707 39.3774C47.5555 39.5477 47.4971 39.5793 47.3366 39.5325C46.113 39.1749 44.8863 38.8264 43.6621 38.4701C43.2048 38.3369 42.7329 38.2426 42.295 38.0498C41.6747 37.7768 41.5251 37.0585 42.0128 36.5866C42.6107 36.0083 43.2413 35.4646 43.8598 34.9081C44.5142 34.3201 45.1703 33.7338 45.8271 33.1482C46.0187 32.9773 46.0224 32.9785 46.1464 33.1932C46.9486 34.5779 47.4199 36.0661 47.5591 37.6612C47.5853 37.961 47.592 38.2602 47.5962 38.5874C47.5883 38.8325 47.5956 39.105 47.5707 39.3774Z" fill="#CDCECD" stroke="#040B05" stroke-width="0.810863" mask="url(#path-3-inside-1_14996_3705)"/>
<defs>
<linearGradient id="paint0_linear_14996_3705" x1="36.7996" y1="0.5354" x2="36.7996" y2="74.1345" gradientUnits="userSpaceOnUse">
<stop stop-color="white" stop-opacity="0"/>
<stop offset="1" stop-color="white"/>
</linearGradient>
</defs>
</svg>
