<svg width="111" height="111" viewBox="0 0 111 111" fill="none" xmlns="http://www.w3.org/2000/svg">
<path d="M48.2996 4.46575C52.9406 1.78625 58.6585 1.78626 63.2996 4.46575L96.1036 23.4052C100.745 26.0847 103.604 31.0366 103.604 36.3955V74.2744C103.604 79.6333 100.745 84.5853 96.1036 87.2647L63.2996 106.204C58.6585 108.884 52.9406 108.884 48.2996 106.204L15.4955 87.2647C10.8545 84.5853 7.99553 79.6333 7.99553 74.2744V36.3955C7.99553 31.0366 10.8545 26.0847 15.4955 23.4052L48.2996 4.46575Z" fill="white" fill-opacity="0.07"/>
<path d="M48.2996 4.46575C52.9406 1.78625 58.6585 1.78626 63.2996 4.46575L96.1036 23.4052C100.745 26.0847 103.604 31.0366 103.604 36.3955V74.2744C103.604 79.6333 100.745 84.5853 96.1036 87.2647L63.2996 106.204C58.6585 108.884 52.9406 108.884 48.2996 106.204L15.4955 87.2647C10.8545 84.5853 7.99553 79.6333 7.99553 74.2744V36.3955C7.99553 31.0366 10.8545 26.0847 15.4955 23.4052L48.2996 4.46575Z" fill="url(#paint0_linear_14996_3708)" fill-opacity="0.1"/>
<path d="M48.2996 4.46575C52.9406 1.78625 58.6585 1.78626 63.2996 4.46575L96.1036 23.4052C100.745 26.0847 103.604 31.0366 103.604 36.3955V74.2744C103.604 79.6333 100.745 84.5853 96.1036 87.2647L63.2996 106.204C58.6585 108.884 52.9406 108.884 48.2996 106.204L15.4955 87.2647C10.8545 84.5853 7.99553 79.6333 7.99553 74.2744V36.3955C7.99553 31.0366 10.8545 26.0847 15.4955 23.4052L48.2996 4.46575Z" fill="#62D37D" fill-opacity="0.02"/>
<path d="M48.6132 5.00897C53.0601 2.44153 58.539 2.44153 62.9859 5.00898L95.7899 23.9484C100.237 26.5158 102.976 31.2607 102.976 36.3955V74.2744C102.976 79.4092 100.237 84.1541 95.7899 86.7215L62.9859 105.661C58.539 108.228 53.0601 108.228 48.6132 105.661L15.8092 86.7215C11.3622 84.1541 8.62279 79.4092 8.62279 74.2744V36.3955C8.62279 31.2607 11.3622 26.5158 15.8092 23.9484L48.6132 5.00897Z" stroke="white" stroke-opacity="0.13" stroke-width="1.25453"/>
<g clip-path="url(#clip0_14996_3708)">
<path d="M84.2413 58.1799C84.7623 57.6589 84.675 56.6658 84.2413 56.1252L81.4919 53.3758L69.2013 41.4539C68.6803 40.9329 67.8698 40.9329 67.2419 41.4539C66.7209 41.9749 66.5187 42.968 67.2419 43.5086L80.156 56.1537C80.677 56.6747 80.677 57.6678 80.156 58.2084L66.9658 71.2881C66.4448 71.8091 66.4448 72.8022 66.9658 73.3428C67.4868 73.8638 68.4799 73.7765 68.9252 73.3428L81.2158 61.159L84.2413 58.1799ZM27.9591 58.1799C27.4381 57.6589 27.5254 56.6658 27.9591 56.1252L30.7085 53.3758L42.9991 41.4539C43.5201 40.9329 44.3306 40.9329 44.9585 41.4539C45.4795 41.9749 45.6817 42.968 44.9585 43.5086L32.3116 56.1555C31.7906 56.6765 31.7906 57.6695 32.3116 58.2101L45.2257 71.2899C45.7467 71.8109 45.7467 72.8039 45.2257 73.3445C44.7047 73.8656 43.7116 73.7783 43.2663 73.3445L30.7085 61.3416L27.9591 58.1799Z" fill="white" fill-opacity="0.8"/>
<path d="M58.4007 49.2959L69.9762 31.5591H52.6135L43.2664 57.9216L54.6664 58.008L45.7539 84.1095L70.3503 49.2985L58.4007 49.2959Z" fill="white" fill-opacity="0.8"/>
<path d="M70.352 49.2959H58.3998L69.9761 31.5591H60.8891L51.2819 53.4631L62.6819 53.5495L45.7538 84.0979L70.352 49.2959Z" fill="#FDFDFD"/>
</g>
<defs>
<linearGradient id="paint0_linear_14996_3708" x1="55.7996" y1="0.13562" x2="55.7996" y2="110.534" gradientUnits="userSpaceOnUse">
<stop stop-color="white" stop-opacity="0"/>
<stop offset="1" stop-color="white"/>
</linearGradient>
<clipPath id="clip0_14996_3708">
<rect width="57" height="57" fill="white" transform="translate(27.6002 29.3325)"/>
</clipPath>
</defs>
</svg>
