<svg width="75" height="75" viewBox="0 0 75 75" fill="none" xmlns="http://www.w3.org/2000/svg">
<path d="M32.6851 3.42215C35.7791 1.63582 39.5911 1.63582 42.6851 3.42215L64.5545 16.0484C67.6485 17.8348 69.5545 21.136 69.5545 24.7087V49.9612C69.5545 53.5339 67.6485 56.8352 64.5545 58.6215L42.6851 71.2478C39.5911 73.0341 35.7791 73.0341 32.6851 71.2478L10.8158 58.6215C7.72176 56.8352 5.81577 53.5339 5.81577 49.9612V24.7087C5.81577 21.136 7.72175 17.8348 10.8158 16.0484L32.6851 3.42215Z" fill="white" fill-opacity="0.07"/>
<path d="M32.6851 3.42215C35.7791 1.63582 39.5911 1.63582 42.6851 3.42215L64.5545 16.0484C67.6485 17.8348 69.5545 21.136 69.5545 24.7087V49.9612C69.5545 53.5339 67.6485 56.8352 64.5545 58.6215L42.6851 71.2478C39.5911 73.0341 35.7791 73.0341 32.6851 71.2478L10.8158 58.6215C7.72176 56.8352 5.81577 53.5339 5.81577 49.9612V24.7087C5.81577 21.136 7.72175 17.8348 10.8158 16.0484L32.6851 3.42215Z" fill="url(#paint0_linear_14996_3685)" fill-opacity="0.1"/>
<path d="M32.6851 3.42215C35.7791 1.63582 39.5911 1.63582 42.6851 3.42215L64.5545 16.0484C67.6485 17.8348 69.5545 21.136 69.5545 24.7087V49.9612C69.5545 53.5339 67.6485 56.8352 64.5545 58.6215L42.6851 71.2478C39.5911 73.0341 35.7791 73.0341 32.6851 71.2478L10.8158 58.6215C7.72176 56.8352 5.81577 53.5339 5.81577 49.9612V24.7087C5.81577 21.136 7.72175 17.8348 10.8158 16.0484L32.6851 3.42215Z" fill="#62D37D" fill-opacity="0.02"/>
<path d="M32.8942 3.7843C35.8588 2.07268 39.5114 2.07268 42.476 3.7843L64.3454 16.4106C67.31 18.1222 69.1363 21.2854 69.1363 24.7087V49.9612C69.1363 53.3845 67.31 56.5477 64.3454 58.2593L42.476 70.8856C39.5114 72.5972 35.8588 72.5972 32.8942 70.8856L11.0249 58.2593C8.06023 56.5477 6.23394 53.3845 6.23394 49.9612V24.7087C6.23394 21.2854 8.06023 18.1222 11.0249 16.4106L32.8942 3.7843Z" stroke="white" stroke-opacity="0.13" stroke-width="0.836354"/>
<g clip-path="url(#clip0_14996_3685)">
<path d="M50.5322 23.216H34.7945C34.7945 25.1002 35.5429 26.9072 36.8752 28.2395C38.2076 29.5718 40.0146 30.3203 41.8987 30.3203H44.7978V33.1192C44.8003 37.0393 47.9775 40.2164 51.8975 40.219V24.5813C51.8975 23.8273 51.2862 23.216 50.5322 23.216Z" fill="white" fill-opacity="0.8"/>
<path d="M42.7452 31.0576H27.0075C27.01 34.9776 30.1872 38.1548 34.1072 38.1573H37.0063V40.9653C37.0113 44.8854 40.1905 48.0605 44.1106 48.0605V32.4229C44.1106 31.6688 43.4993 31.0576 42.7452 31.0576Z" fill="white" fill-opacity="0.8"/>
<path d="M34.9537 38.8946H19.216C19.216 42.8182 22.3967 45.9989 26.3203 45.9989H29.2284V48.7978C29.2309 52.7143 32.4026 55.89 36.3191 55.8975V40.2599C36.3191 39.5059 35.7078 38.8946 34.9537 38.8946Z" fill="white" fill-opacity="0.8"/>
</g>
<defs>
<linearGradient id="paint0_linear_14996_3685" x1="37.6851" y1="0.5354" x2="37.6851" y2="74.1345" gradientUnits="userSpaceOnUse">
<stop stop-color="white" stop-opacity="0"/>
<stop offset="1" stop-color="white"/>
</linearGradient>
<clipPath id="clip0_14996_3685">
<rect width="32.768" height="32.768" fill="white" transform="translate(19.216 23.216)"/>
</clipPath>
</defs>
</svg>
