<svg width="93" height="93" viewBox="0 0 93 93" fill="none" xmlns="http://www.w3.org/2000/svg">
<path d="M40.5495 3.94395C44.417 1.71104 49.182 1.71104 53.0495 3.94395L80.3862 19.7268C84.2537 21.9597 86.6362 26.0863 86.6362 30.5521V62.1178C86.6362 66.5836 84.2537 70.7102 80.3862 72.9431L53.0495 88.726C49.182 90.9589 44.417 90.9589 40.5495 88.726L13.2128 72.9431C9.3453 70.7102 6.96281 66.5836 6.96281 62.1178V30.5521C6.96281 26.0863 9.34529 21.9597 13.2128 19.7268L40.5495 3.94395Z" fill="white" fill-opacity="0.07"/>
<path d="M40.5495 3.94395C44.417 1.71104 49.182 1.71104 53.0495 3.94395L80.3862 19.7268C84.2537 21.9597 86.6362 26.0863 86.6362 30.5521V62.1178C86.6362 66.5836 84.2537 70.7102 80.3862 72.9431L53.0495 88.726C49.182 90.9589 44.417 90.9589 40.5495 88.726L13.2128 72.9431C9.3453 70.7102 6.96281 66.5836 6.96281 62.1178V30.5521C6.96281 26.0863 9.34529 21.9597 13.2128 19.7268L40.5495 3.94395Z" fill="url(#paint0_linear_14996_3699)" fill-opacity="0.1"/>
<path d="M40.5495 3.94395C44.417 1.71104 49.182 1.71104 53.0495 3.94395L80.3862 19.7268C84.2537 21.9597 86.6362 26.0863 86.6362 30.5521V62.1178C86.6362 66.5836 84.2537 70.7102 80.3862 72.9431L53.0495 88.726C49.182 90.9589 44.417 90.9589 40.5495 88.726L13.2128 72.9431C9.3453 70.7102 6.96281 66.5836 6.96281 62.1178V30.5521C6.96281 26.0863 9.34529 21.9597 13.2128 19.7268L40.5495 3.94395Z" fill="#62D37D" fill-opacity="0.02"/>
<path d="M40.8109 4.39664C44.5166 2.25711 49.0824 2.2571 52.7881 4.39664L80.1248 20.1795C83.8306 22.319 86.1135 26.273 86.1135 30.5521V62.1178C86.1135 66.3969 83.8306 70.3509 80.1248 72.4904L52.7881 88.2733C49.0824 90.4128 44.5166 90.4128 40.8109 88.2733L13.4742 72.4904C9.76839 70.3509 7.48553 66.3969 7.48553 62.1178V30.5521C7.48553 26.273 9.76838 22.319 13.4742 20.1795L40.8109 4.39664Z" stroke="white" stroke-opacity="0.13" stroke-width="1.04544"/>
<path d="M36.882 24.7912C35.083 24.7912 33.2841 26.1813 33.2841 28.798V34.9717C33.2841 37.4249 34.8786 40.2051 36.9638 41.4726L45.5906 46.5833L36.9638 51.694C34.8786 52.9614 33.2841 55.7416 33.2841 58.1539V64.4094C33.2841 67.067 35.083 68.4162 36.882 68.4162C37.6588 68.4162 38.4357 68.1709 39.1716 67.7211L58.6741 56.1096C60.0233 55.2919 60.8001 54.0653 60.8001 52.7161C60.8001 51.3669 60.0233 50.0994 58.6741 49.3226L54.0131 46.5424L58.6741 43.7621C60.0233 42.9444 60.8001 41.7179 60.8001 40.3686C60.8001 39.0194 60.0233 37.752 58.6741 36.9751L39.1716 25.4045C38.3948 25.0365 37.6179 24.7912 36.882 24.7912ZM49.8019 44.1301L39.1716 37.8337C38.3539 37.3431 37.5771 35.953 37.5771 35.0126V29.4931L56.0165 40.4504L49.8019 44.1301ZM37.5771 63.7961V58.2357C37.5771 57.2953 38.3539 55.9052 39.1716 55.4146L49.8019 49.1182L56.0165 52.7979L37.5771 63.7961Z" fill="#CDCECD"/>
<defs>
<linearGradient id="paint0_linear_14996_3699" x1="46.7995" y1="0.33551" x2="46.7995" y2="92.3344" gradientUnits="userSpaceOnUse">
<stop stop-color="white" stop-opacity="0"/>
<stop offset="1" stop-color="white"/>
</linearGradient>
</defs>
</svg>
