<svg width="20" height="20" viewBox="0 0 20 20" fill="none" xmlns="http://www.w3.org/2000/svg">
<g filter="url(#filter0_i_1_64085)">
<rect width="20" height="20" rx="10" fill="#DAC400" fill-opacity="0.24"/>
<rect width="20" height="20" rx="10" fill="#DAC400" fill-opacity="0.05"/>
<rect x="0.35" y="0.35" width="19.3" height="19.3" rx="9.65" stroke="white" stroke-opacity="0.1" stroke-width="0.7"/>
<path d="M10 8.33333C9.77903 8.33333 9.56707 8.42113 9.41079 8.57741C9.25451 8.73369 9.16671 8.94565 9.16671 9.16667V14.1667C9.16671 14.3877 9.25451 14.5996 9.41079 14.7559C9.56707 14.9122 9.77903 15 10 15C10.2211 15 10.433 14.9122 10.5893 14.7559C10.7456 14.5996 10.8334 14.3877 10.8334 14.1667V9.16667C10.8334 8.94565 10.7456 8.73369 10.5893 8.57741C10.433 8.42113 10.2211 8.33333 10 8.33333ZM10 5C9.79402 5 9.59262 5.06109 9.42132 5.17555C9.25002 5.29001 9.11651 5.4527 9.03767 5.64304C8.95883 5.83338 8.9382 6.04282 8.97839 6.24489C9.01858 6.44695 9.11779 6.63256 9.26347 6.77824C9.40915 6.92392 9.59476 7.02313 9.79682 7.06332C9.99889 7.10351 10.2083 7.08288 10.3987 7.00404C10.589 6.9252 10.7517 6.79169 10.8662 6.62039C10.9806 6.44908 11.0417 6.24769 11.0417 6.04167C11.0417 5.7654 10.932 5.50045 10.7366 5.3051C10.5413 5.10975 10.2763 5 10 5Z" fill="#DAC400"/>
</g>
<defs>
<filter id="filter0_i_1_64085" x="0" y="0" width="20" height="22.5" filterUnits="userSpaceOnUse" color-interpolation-filters="sRGB">
<feFlood flood-opacity="0" result="BackgroundImageFix"/>
<feBlend mode="normal" in="SourceGraphic" in2="BackgroundImageFix" result="shape"/>
<feColorMatrix in="SourceAlpha" type="matrix" values="0 0 0 0 0 0 0 0 0 0 0 0 0 0 0 0 0 0 127 0" result="hardAlpha"/>
<feOffset dy="2.5"/>
<feGaussianBlur stdDeviation="2.5"/>
<feComposite in2="hardAlpha" operator="arithmetic" k2="-1" k3="1"/>
<feColorMatrix type="matrix" values="0 0 0 0 1 0 0 0 0 1 0 0 0 0 1 0 0 0 0.15 0"/>
<feBlend mode="normal" in2="shape" result="effect1_innerShadow_1_64085"/>
</filter>
</defs>
</svg>
