<svg width="47" height="32" viewBox="0 0 47 32" fill="none" xmlns="http://www.w3.org/2000/svg">
<g clip-path="url(#clip0_15247_351)">
<path d="M33.9971 10.0716V7.99751H37.4193V8.2222C37.4193 12.5086 37.4366 16.795 37.4193 21.0815C37.4193 22.5333 37.2292 23.9506 36.6934 25.316C35.8638 27.4592 34.3773 28.9284 32.165 29.5506C29.4341 30.3284 26.7897 30.1037 24.2835 28.6864C23.5576 28.2716 22.9181 27.7531 22.365 27.1308C22.3131 27.079 22.2613 27.0099 22.2267 26.9753C23.0391 26.1629 23.8341 25.3679 24.5773 24.6247C24.7847 24.7975 25.0267 25.0049 25.2514 25.195C26.5304 26.2494 27.9996 26.6469 29.6242 26.5432C30.3675 26.4913 31.0761 26.2839 31.7329 25.9382C32.9773 25.2642 33.6687 24.2099 33.8934 22.8444C33.9625 22.4123 33.9798 21.9802 34.0144 21.5481C33.9971 21.5308 33.9798 21.5308 33.9452 21.5136C33.8588 21.6173 33.7724 21.7037 33.6687 21.8074C32.8218 22.6024 31.7847 23.0518 30.6786 23.3284C29.1403 23.6913 27.602 23.7086 26.0983 23.1555C24.923 22.7061 23.9724 21.9284 23.16 20.995C21.6218 19.2321 21.0168 17.1753 21.207 14.8765C21.4317 11.9728 22.9181 9.86418 25.3897 8.44689C26.4959 7.80739 27.7057 7.65183 28.9675 7.6864C29.8144 7.72097 30.644 7.84195 31.4391 8.15306C32.3551 8.51603 33.1329 9.06911 33.7551 9.82961C33.8242 9.89874 33.8761 9.98516 33.9452 10.0543C33.9452 10.0543 33.9625 10.0543 33.9971 10.0716ZM29.244 20.5111C32.0267 20.5457 34.1526 18.3506 34.0835 15.4642C34.0144 12.8543 32.0267 10.6938 29.1749 10.7284C26.4267 10.7457 24.3872 12.8889 24.4045 15.637C24.4391 18.437 26.4613 20.5111 29.244 20.5111Z" fill="#A7A7A7"/>
<path d="M16.1253 10.106V7.99741H19.5129V23.2246H16.1426V21.548C16.108 21.548 16.0907 21.5307 16.0907 21.548C15.2265 22.5159 14.1031 23.0517 12.8759 23.3456C10.9747 23.7949 9.12529 23.7085 7.3969 22.7233C5.2364 21.4962 3.88826 19.6468 3.45616 17.1925C3.14505 15.3949 3.28332 13.632 4.11295 11.99C5.27097 9.7258 7.05122 8.20481 9.60924 7.77271C11.3376 7.47889 13.0142 7.68629 14.5352 8.6542C15.1574 9.03444 15.6586 9.53568 16.0907 10.1233C16.108 10.0888 16.1253 10.106 16.1253 10.106ZM6.5327 15.2221C6.5327 17.227 7.13764 18.5579 8.41665 19.5604C9.38455 20.3209 10.508 20.5628 11.7179 20.4937C12.5994 20.4419 13.4117 20.1826 14.1376 19.6814C16.229 18.2295 16.6265 15.5851 15.7969 13.6147C14.6562 10.8665 11.666 10.1233 9.38455 11.1258C7.44875 11.9554 6.58455 13.5456 6.5327 15.2221Z" fill="#A7A7A7"/>
<path d="M42.7253 23.2074H39.3376V7.99756H42.7253V23.2074Z" fill="#A7A7A7"/>
<path d="M41.0315 6.39012C42.2438 6.39012 43.2265 5.40736 43.2265 4.19506C43.2265 2.98276 42.2438 2 41.0315 2C39.8192 2 38.8364 2.98276 38.8364 4.19506C38.8364 5.40736 39.8192 6.39012 41.0315 6.39012Z" fill="#A7A7A7"/>
</g>
<defs>
<clipPath id="clip0_15247_351">
<rect width="39.9432" height="28" fill="white" transform="translate(3.30103 2)"/>
</clipPath>
</defs>
</svg>
