<svg width="91" height="32" viewBox="0 0 91 32" fill="none" xmlns="http://www.w3.org/2000/svg">
<path d="M53.5444 0.0020145H57.7084C57.7084 0.0020145 60.1893 -0.128403 61.758 1.70946L70.85 12.8448H64.47C64.47 12.8448 61.6428 12.9649 60.4975 11.1001L53.5444 0.0020145Z" fill="#A7A7A7"/>
<path d="M67.8692 22.9406L71.613 28.9536C71.613 28.9536 72.989 31.9971 77.5349 31.9971H87.0844L73.5612 16.1108L67.8692 17.3734C67.8692 17.3731 66.3035 19.3774 67.8692 22.9406Z" fill="#A7A7A7"/>
<path d="M75.5954 18.5025L73.4038 15.9226L67.8807 17.373C67.8807 17.373 66.315 19.3773 67.8807 22.9405L68.1105 23.3206C68.0921 23.085 67.9223 19.4081 75.5954 18.5025Z" fill="#A7A7A7"/>
<path d="M68.0936 23.3109C68.0936 23.3109 66.3635 18.9896 72.0087 16.9196C72.0087 16.9196 76.03 15.5219 78.7199 16.3504C78.7199 16.3504 78.5338 13.1935 71.9285 13.4004C71.9285 13.4004 68.4405 13.3746 65.6969 14.3063C65.6969 14.3063 62.7937 15.0565 64.951 18.2909L68.0936 23.3109Z" fill="#A7A7A7"/>
<path d="M88.5908 30.7225H88.1266V30.5652H89.2565V30.7225H88.7905V31.9997H88.5908V30.7225ZM90.7124 31.3699C90.7013 31.1695 90.6877 30.9292 90.6901 30.7504H90.6832C90.6259 30.9343 90.5616 31.116 90.4904 31.2952L90.2211 31.9913H90.0715L89.8247 31.3081C89.7523 31.1059 89.6917 30.9207 89.6486 30.7504H89.6438C89.6374 30.962 89.6276 31.1736 89.6142 31.3849L89.5735 32H89.3856L89.4917 30.5652H89.7433L90.0036 31.2592C90.0672 31.4359 90.1191 31.5933 90.1574 31.7421H90.1644C90.2027 31.5974 90.2576 31.44 90.3251 31.2592L90.5966 30.5652H90.8482L90.9429 32H90.7501L90.7124 31.3699ZM31.5345 10.7995C29.0801 9.99761 29.2074 12.7147 29.2074 12.7147V16.0411H27.6236V11.6851C27.6236 10.8141 27.6109 10.1937 27.5723 9.61309H28.9501L29.0014 10.6476C29.0014 10.6476 29.5039 8.99999 31.6237 9.60694L31.5345 10.7995ZM32.3187 16.0408V9.61309H33.9155V16.0411L32.3187 16.0408ZM32.3187 8.65299V7.24976H33.9155V8.65299H32.3187ZM40.1133 15.8429C39.7782 16.0012 39.1216 16.1861 38.3361 16.1861C36.3789 16.1861 35.1039 14.8925 35.1039 12.8996C35.1039 10.9727 36.2202 9.43373 38.5937 9.46832C39.1729 9.47682 39.7656 9.6002 40.1263 9.77165L40.1248 11.1031C39.8672 10.9844 39.2118 10.7353 38.6453 10.7353C37.4349 10.7353 36.7137 11.6458 36.7267 12.8205C36.7267 14.1405 37.5637 14.8925 38.6453 14.8925C39.1991 14.8925 39.7936 14.6821 40.1028 14.5502L40.1133 15.8429ZM46.4279 14.4966C46.4279 15.0771 46.4427 15.6223 46.5108 16.0179H45.0069L44.911 15.3277H44.8706C44.4637 15.8295 43.773 16.1858 42.9191 16.1858C41.5913 16.1858 40.8463 15.2483 40.8463 14.2721C40.8463 12.6487 42.323 11.8302 44.7617 11.8434V11.7379C44.7617 11.3156 44.5856 10.616 43.4204 10.616C42.7701 10.616 41.933 10.9123 41.4857 11.1895L41.4188 9.91027C41.9068 9.62013 42.6618 9.47359 43.7048 9.46773C45.9926 9.45513 46.4276 10.7742 46.4276 12.1734L46.4279 14.4966ZM44.8021 12.8993C43.624 12.8729 42.4992 13.1238 42.4992 14.1003C42.4992 14.734 42.9191 15.0247 43.4478 15.0247C44.1117 15.0247 44.5994 14.6024 44.7487 14.1402C44.7855 14.0247 44.8036 13.9044 44.8024 13.7835V12.8993H44.8021ZM47.7182 11.7338C47.7182 10.9946 47.7107 10.1638 47.6718 9.60928L49.1639 9.61309L49.1787 10.4651L49.2801 10.3226C49.7195 9.84579 49.9204 9.46802 51.2759 9.46802C52.3705 9.46802 53.5041 10.1937 53.5041 12.2264V16.0059H51.9199V12.4111C51.9199 11.4873 51.5854 10.7877 50.7221 10.7877C50.0911 10.7877 49.5497 11.2496 49.382 11.7382C49.3307 11.8832 49.3178 12.0814 49.3178 12.266V16.0062H47.7107L47.7182 11.7338ZM48.7148 25.2482C49.1247 25.4727 50.0154 25.7421 50.8491 25.6729C51.6367 25.6075 51.9908 25.3435 51.9908 24.9215C51.9908 24.4857 51.7139 24.2084 50.8196 23.9842C49.1311 23.5601 48.5773 22.8113 48.5927 22.059C48.5927 20.9242 49.477 20.0902 51.3103 20.0902C52.1009 20.0902 52.7059 20.2613 53.1153 20.4591V21.644C52.3024 21.3011 51.8192 21.2197 51.1894 21.2197C50.5454 21.2197 50.1943 21.5256 50.1943 21.9219C50.1943 22.331 50.5201 22.5619 51.4379 22.8192C52.81 23.2043 53.5752 23.8386 53.5828 24.789C53.5927 26.1474 52.4806 26.8077 50.5924 26.8086C49.6592 26.8091 49.1308 26.6116 48.6838 26.444L48.7148 25.2482ZM17.2699 9.46802C16.7427 9.46802 16.3403 9.56855 15.9841 9.81942C15.681 10.0041 15.4421 10.2611 15.2177 10.6175H15.1917C14.9145 9.9047 14.2211 9.43901 13.3768 9.43901C12.2958 9.43901 11.7173 9.92111 11.4006 10.4223H11.3611L11.2953 9.6128H9.89727C9.93708 10.1673 9.95005 10.7874 9.95005 11.5266V16.0405H11.5327V12.2396C11.5327 12.055 11.5592 11.87 11.625 11.7115C11.7701 11.2628 12.1791 10.7877 12.7859 10.7877C13.5376 10.7877 13.8938 11.4214 13.8938 12.3187V16.0411H15.4768V12.8392C15.49 12.0312 15.6641 11.5541 15.7639 11.3493C15.9328 11.0448 16.1946 10.7877 16.6902 10.7877C17.4681 10.7877 17.8373 11.4214 17.8373 12.4908V16.0411H19.5077V12.2528C19.575 10.1444 18.6598 9.46802 17.2699 9.46802ZM7.63295 16.0214H9.28949L6.06178 7.54048H4.2855L0.942871 16.0214H2.54843L3.23916 14.1288H6.94072L7.63295 16.0214ZM3.63248 12.9969L5.08752 9.06212L6.52025 12.9969H3.63248ZM18.4182 26.689H20.0748L16.8467 18.208H15.0705L11.7278 26.689H13.3334L14.0241 24.796H17.7254L18.4182 26.689ZM14.4174 23.6642L15.8725 19.7294L17.3052 23.6642H14.4174ZM27.765 21.4336C25.3107 20.6315 25.438 23.3485 25.438 23.3485V26.6746H23.8541V22.3196C23.8541 21.4483 23.8415 20.8278 23.8029 20.2475H25.1807L25.2323 21.2818C25.2323 21.2818 25.7345 19.6344 27.8543 20.2414L27.765 21.4336ZM20.6801 26.6746V20.2472H22.2769V26.6746H20.6801ZM20.6801 19.2868V17.8836H22.2769V19.2868H20.6801ZM31.8346 26.6746V20.2472H33.4314V26.6746H31.8346ZM31.8346 19.2868V17.8836H33.4314V19.2868H31.8346ZM28.6889 17.8555H30.236V26.6893H28.6889V17.8555ZM35.0101 22.4054C35.0101 21.6663 35.0026 20.8354 34.964 20.2806L36.4558 20.2848L36.4706 21.1364L36.5716 20.9937C37.0111 20.5172 37.2117 20.1394 38.5672 20.1394C39.6621 20.1394 40.7953 20.865 40.7953 22.8981V26.6775H39.2115V23.0824C39.2115 22.1587 38.8764 21.4591 38.0137 21.4591C37.3827 21.4591 36.8413 21.921 36.6739 22.4095C36.6223 22.5543 36.6093 22.7527 36.6093 22.9374V26.6775H35.0023L35.0101 22.4054ZM43.3435 23.8013C43.3833 24.9628 44.2978 25.6664 45.3318 25.6664C46.087 25.6664 46.709 25.444 47.1991 25.2591L47.2438 26.4513C46.687 26.6761 46.0346 26.8086 45.1065 26.8086C43.0123 26.8086 41.7795 25.5149 41.7795 23.5484C41.7795 21.7668 42.6919 20.0904 44.9339 20.0904C47.0417 20.0904 47.7173 21.8061 47.7173 23.2184C47.7173 23.522 47.6908 23.6557 47.6637 23.801L43.3435 23.8013ZM46.18 22.7697C46.1932 22.1578 45.9251 21.152 44.8259 21.152C43.8077 21.152 43.3787 22.0898 43.3118 22.7697H46.18ZM22.1487 13.1487C22.1886 14.3099 23.1034 15.0138 24.1368 15.0138C24.8926 15.0138 25.5143 14.792 26.0044 14.6068L26.0491 15.7993C25.4929 16.0238 24.8396 16.1559 23.9118 16.1559C21.8176 16.1559 20.5848 14.8623 20.5848 12.8964C20.5848 11.1145 21.4975 9.43813 23.7392 9.43813C25.8467 9.43813 26.5226 11.1538 26.5226 12.5655C26.5226 12.8691 26.4964 13.0034 26.4695 13.1484H22.1487V13.1487ZM24.9852 12.1174C24.9985 11.5055 24.7304 10.4993 23.6312 10.4993C22.6126 10.4993 22.1837 11.4375 22.1168 12.1174H24.9852Z" fill="#A7A7A7"/>
</svg>
