<svg width="118" height="32" viewBox="0 0 118 32" fill="none" xmlns="http://www.w3.org/2000/svg">
<path d="M51.407 15.399C51.2507 15.2959 51.2421 15.0616 51.3894 14.946C52.4711 14.0979 53.1259 12.854 53.1259 11.3379C53.1259 8.42868 50.5683 6.5752 47.0575 6.5752H40.3091C40.171 6.5752 40.0591 6.68712 40.0591 6.8252V25.2354C40.0591 25.3735 40.171 25.4854 40.3091 25.4854H47.7085C51.2891 25.4854 53.7769 23.3035 53.7769 19.925C53.7553 17.9433 52.8724 16.3658 51.407 15.399ZM42.9654 9.49984C42.9654 9.36177 43.0773 9.24984 43.2154 9.24984H47.0575C48.9873 9.24984 50.2428 10.1649 50.2428 11.8306C50.2428 13.4964 48.9873 14.4114 47.0575 14.4114H43.2154C43.0773 14.4114 42.9654 14.2995 42.9654 14.1614V9.49984ZM47.6853 22.8108H43.2154C43.0773 22.8108 42.9654 22.6988 42.9654 22.5608V17.3361C42.9654 17.198 43.0773 17.0861 43.2154 17.0861H47.6853C49.615 17.0861 50.8706 18.0715 50.8706 19.9484C50.8706 21.8254 49.615 22.8108 47.6853 22.8108Z" fill="#A7A7A7"/>
<path d="M57.4778 11.3391H55.1877C55.0496 11.3391 54.9377 11.451 54.9377 11.5891V25.2131C54.9377 25.3512 55.0496 25.4631 55.1877 25.4631H57.4778C57.6158 25.4631 57.7278 25.3512 57.7278 25.2131V11.5891C57.7278 11.451 57.6158 11.3391 57.4778 11.3391Z" fill="#A7A7A7"/>
<path d="M56.3331 6.57617C55.4495 6.57617 54.7288 7.30349 54.7288 8.19504C54.7288 9.08659 55.4495 9.8139 56.3331 9.8139C57.2166 9.8139 57.9373 9.08659 57.9373 8.19504C57.9373 7.30349 57.2166 6.57617 56.3331 6.57617Z" fill="#A7A7A7"/>
<path d="M70.6615 12.7222C70.6572 12.7222 70.6531 12.7205 70.65 12.7176C69.5343 11.6413 68.0016 11.0564 66.1674 11.0564C61.9126 11.0564 58.8901 13.9188 58.8901 17.9073C58.8901 21.9192 61.9126 24.7581 66.1674 24.7581C67.9362 24.7581 69.4395 24.2002 70.5697 23.1496C70.6018 23.1197 70.6548 23.1423 70.6548 23.1862C70.6548 26.072 68.911 27.9489 66.2372 27.9489C64.1931 27.9489 62.366 26.8759 62.0139 24.8145C61.9926 24.6894 61.8866 24.5939 61.7597 24.5939H59.3941C59.2479 24.5939 59.1325 24.7194 59.1502 24.8645C59.5768 28.3658 62.5643 30.5297 66.2372 30.5297C70.6083 30.5297 73.4681 27.5032 73.4681 23.1862V11.588C73.4681 11.4499 73.3562 11.338 73.2181 11.338H70.928C70.79 11.338 70.678 11.4499 70.678 11.588V12.7057C70.678 12.7148 70.6706 12.7222 70.6615 12.7222ZM66.1907 22.1773C63.5401 22.1773 61.7034 20.4881 61.7034 17.9073C61.7034 15.3734 63.5169 13.6138 66.1907 13.6138C68.8878 13.6138 70.678 15.3734 70.678 17.9073C70.6548 20.4881 68.8645 22.1773 66.1907 22.1773Z" fill="#A7A7A7"/>
<path d="M81.9085 11.0564C77.6536 11.0564 74.6311 14.1065 74.6311 18.4C74.6311 22.7169 77.6536 25.7435 81.9085 25.7435C84.7973 25.7435 87.3251 24.3719 88.2942 22.0588C88.3604 21.9006 88.2402 21.7315 88.0687 21.7315H85.4547C85.3741 21.7315 85.2989 21.7708 85.2496 21.8346C84.4573 22.8607 83.2592 23.2566 81.9085 23.2566C79.6832 23.2566 78.0542 21.9026 77.572 19.7705C77.5378 19.6193 77.6558 19.4792 77.8108 19.4792H88.8758C89.0003 19.4792 89.1062 19.3876 89.122 19.2641C89.157 18.9913 89.1859 18.6957 89.1859 18.4C89.1859 14.1065 86.1633 11.0564 81.9085 11.0564ZM77.8942 17.0626C77.7347 17.0626 77.6158 16.9148 77.6586 16.7612C78.2062 14.7982 79.7844 13.5434 81.9317 13.5434C84.079 13.5434 85.6572 14.7982 86.2048 16.7612C86.2477 16.9148 86.1288 17.0626 85.9692 17.0626H77.8942Z" fill="#A7A7A7"/>
<path d="M99.4023 11.3391C99.2987 11.3391 99.2058 11.4031 99.1688 11.4999L95.4647 21.192C95.3828 21.4064 95.0796 21.4064 94.9977 21.192L91.2935 11.4999C91.2565 11.4031 91.1636 11.3391 91.06 11.3391H88.5993C88.4232 11.3391 88.3023 11.5164 88.3666 11.6804L93.7073 25.3014C93.7304 25.3601 93.7303 25.4254 93.7073 25.484L91.9706 29.908C91.9062 30.072 92.0271 30.2493 92.2033 30.2493H94.6422C94.745 30.2493 94.8374 30.1864 94.8749 30.0906L102.096 11.6804C102.16 11.5164 102.039 11.3391 101.863 11.3391H99.4023Z" fill="#A7A7A7"/>
<path d="M115.855 18.4C115.855 14.1065 112.832 11.0564 108.578 11.0564C104.323 11.0564 101.3 14.1065 101.3 18.4C101.3 22.7169 104.323 25.7435 108.578 25.7435C111.466 25.7435 113.994 24.3719 114.963 22.0588C115.03 21.9006 114.909 21.7315 114.738 21.7315H112.101C112.02 21.7315 111.945 21.7708 111.895 21.8346C111.103 22.8607 109.905 23.2566 108.554 23.2566C106.329 23.2566 104.7 21.9026 104.218 19.7705C104.184 19.6193 104.302 19.4792 104.457 19.4792H115.533C115.653 19.4792 115.756 19.395 115.776 19.2773C115.824 18.9861 115.855 18.6853 115.855 18.4ZM104.54 17.0626C104.381 17.0626 104.262 16.9148 104.304 16.7612C104.852 14.7982 106.43 13.5434 108.578 13.5434C110.725 13.5434 112.303 14.7982 112.851 16.7612C112.894 16.9148 112.775 17.0626 112.615 17.0626H104.54Z" fill="#A7A7A7"/>
<path d="M20.6031 8.12207H11.3147C11.1766 8.12207 11.0647 8.234 11.0647 8.37207V10.711C11.0647 10.849 11.1766 10.961 11.3147 10.961H20.6031C20.7412 10.961 20.8531 10.849 20.8531 10.711V8.37207C20.8531 8.234 20.7412 8.12207 20.6031 8.12207Z" fill="#A7A7A7"/>
<path d="M20.6031 21.0508H11.3147C11.1766 21.0508 11.0647 21.1627 11.0647 21.3008V23.6396C11.0647 23.7777 11.1766 23.8896 11.3147 23.8896H20.6031C20.7412 23.8896 20.8531 23.7777 20.8531 23.6396V21.3008C20.8531 21.1627 20.7412 21.0508 20.6031 21.0508Z" fill="#A7A7A7"/>
<path d="M23.347 11.0559H21.0337C20.8956 11.0559 20.7837 11.1678 20.7837 11.3059V20.6833C20.7837 20.8214 20.8956 20.9333 21.0337 20.9333H23.347C23.4851 20.9333 23.597 20.8214 23.597 20.6833V11.3059C23.597 11.1678 23.4851 11.0559 23.347 11.0559Z" fill="#A7A7A7"/>
<path d="M10.6759 11.0559H8.36255C8.22448 11.0559 8.11255 11.1678 8.11255 11.3059V20.6833C8.11255 20.8214 8.22448 20.9333 8.36255 20.9333H10.6759C10.8139 20.9333 10.9259 20.8214 10.9259 20.6833V11.3059C10.9259 11.1678 10.8139 11.0559 10.6759 11.0559Z" fill="#A7A7A7"/>
<path d="M18.4394 0.179023L16.8021 1.83125C16.7049 1.92932 16.7049 2.08832 16.8021 2.1864L29.5367 15.0368C29.6339 15.1348 29.7914 15.1348 29.8886 15.0368L31.526 13.3845C31.6231 13.2865 31.6231 13.1275 31.526 13.0294L18.7914 0.179023C18.6942 0.0809508 18.5366 0.0809507 18.4394 0.179023Z" fill="#A7A7A7"/>
<path d="M1.82498 16.9657L0.187638 18.6179C0.0904492 18.716 0.0904489 18.875 0.187637 18.9731L12.9223 31.8235C13.0195 31.9215 13.177 31.9215 13.2742 31.8235L14.9116 30.1712C15.0088 30.0732 15.0088 29.9142 14.9116 29.8161L2.17693 16.9657C2.07974 16.8676 1.92217 16.8676 1.82498 16.9657Z" fill="#A7A7A7"/>
<path d="M29.5485 16.9549L16.8139 29.8052C16.7167 29.9033 16.7167 30.0623 16.8139 30.1604L18.4512 31.8126C18.5484 31.9107 18.706 31.9107 18.8032 31.8126L31.5378 18.9622C31.635 18.8642 31.635 18.7052 31.5378 18.6071L29.9005 16.9549C29.8033 16.8568 29.6457 16.8568 29.5485 16.9549Z" fill="#A7A7A7"/>
<path d="M12.9105 0.187812L0.175919 13.0381C0.0787303 13.1362 0.0787303 13.2952 0.175919 13.3933L1.81325 15.0455C1.91044 15.1436 2.06801 15.1436 2.1652 15.0455L14.8998 2.19518C14.997 2.09711 14.997 1.93811 14.8998 1.84003L13.2624 0.187812C13.1652 0.0897404 13.0077 0.0897391 12.9105 0.187812Z" fill="#A7A7A7"/>
</svg>
