<svg width="107" height="28" viewBox="0 0 107 28" fill="none" xmlns="http://www.w3.org/2000/svg">
<g clip-path="url(#clip0_15247_344)">
<path d="M26.5806 11.3465L24.3666 10.5L24.0085 10.3535L23.8294 10.2558L24.0085 10.3372L25.2946 7.50465C25.8643 6.25116 25.5876 4.80233 24.6108 3.84186C23.9759 3.20698 23.1457 2.8814 22.2504 2.8814C21.7783 2.8814 21.3062 2.97907 20.8829 3.17442L18.0504 4.41163L17.9039 4.05349L17.0573 1.87209C16.8457 1.30233 16.455 0.846512 15.9666 0.504651C15.4783 0.195349 14.8922 0 14.2736 0C13.0364 0 11.9457 0.732558 11.5062 1.87209L10.6597 4.05349L10.5132 4.41163L10.3666 4.76977L9.74804 6.3814L9.60153 6.73954L9.45502 7.09768L9.29223 7.52093C9.01548 8.25349 8.41316 8.82326 7.6806 9.11628L7.25734 9.27907L7.95734 10.8256L7.97362 10.8744L8.31548 10.7442C9.53641 10.2884 10.4806 9.34419 10.9364 8.17209L11.0666 7.83023L11.2132 7.47209L11.3597 7.11396L12.3853 7.55349C12.9876 7.79768 13.6225 7.94419 14.2411 7.94419C14.8597 7.94419 15.5271 7.81396 16.0969 7.55349L17.1387 7.09768L18.7504 6.3814L21.7294 5.07907C21.8922 4.99768 22.0713 4.9814 22.2178 4.9814C22.6411 4.9814 22.9341 5.22558 23.048 5.33954C23.1783 5.46977 23.6015 5.97442 23.3085 6.64186L21.9899 9.55582L21.2736 9.27907L20.1666 8.85582C19.8411 8.72558 19.6132 8.49768 19.4829 8.18837L19.0597 7.09768L17.4806 7.79768L17.4318 7.81396L17.8225 8.82326C18.1155 9.60465 18.7341 10.207 19.5318 10.5L20.5573 10.8744L20.9155 11.0209L21.2411 11.1512L20.5085 12.7628C20.1666 13.5116 20.1666 14.3744 20.5085 15.1395L21.2736 16.8163L21.9899 18.4116L23.3085 21.3419C23.6341 22.0419 23.1946 22.514 23.0806 22.6442C22.9666 22.7419 22.6736 23.0023 22.2504 23.0023C22.1039 23.0023 21.9248 22.9861 21.762 22.9047L18.7829 21.6023L18.9294 21.2605L19.0759 20.9023L19.2387 20.4791C19.5155 19.7465 20.1178 19.1767 20.8504 18.8837L21.2736 18.7209L20.5736 17.1744L20.5573 17.1256L20.2155 17.2558C18.9946 17.7116 18.0504 18.6558 17.5783 19.8279L17.448 20.1698L17.3015 20.5279L17.155 20.8861L17.1387 20.9023L16.1294 20.4628C15.5271 20.2186 14.8922 20.0721 14.2736 20.0721C13.6387 20.0721 12.9876 20.2023 12.4178 20.4628L11.3759 20.9186L9.76432 21.6349L6.78525 22.9372C6.62246 23.0186 6.44339 23.0349 6.29688 23.0349C5.87362 23.0349 5.5806 22.7907 5.46664 22.6767C5.33641 22.5465 4.91316 22.0419 5.23874 21.3744L6.52478 18.5093L6.85037 18.6395L7.2085 18.7861L8.31548 19.2093C8.64106 19.3395 8.88525 19.5674 8.9992 19.8767L9.42246 20.9674L11.0015 20.2674L11.0504 20.2512L10.6597 19.2419C10.3666 18.4605 9.74804 17.8581 8.95037 17.5651L7.92478 17.1907L7.56664 17.0442L7.22478 16.914L7.9899 15.2372C8.33176 14.4884 8.33176 13.6256 7.9899 12.8605L7.22478 11.1837L6.5085 9.58837L5.1899 6.65814C4.86432 5.95814 5.30385 5.48605 5.41781 5.35582C5.53176 5.25814 5.82478 4.99768 6.24804 4.99768C6.39455 4.99768 6.57362 5.01395 6.73641 5.09535L9.71548 6.39768L10.3504 4.76977L10.4969 4.41163L7.61548 3.15814C7.17595 2.96279 6.72013 2.86512 6.24804 2.86512C5.35269 2.86512 4.52246 3.20698 3.88757 3.82558C2.91083 4.78605 2.63409 6.23489 3.20385 7.48837L4.4899 10.3047L4.13176 10.4512L1.91781 11.2977C0.778272 11.7209 0.029435 12.7954 0.029435 14.0163C0.013156 15.2209 0.761993 16.2791 1.90153 16.7186L4.11548 17.5651L4.47362 17.7116L4.50618 17.7279L3.25269 20.4954C2.68292 21.7488 2.95967 23.1977 3.93641 24.1581C4.5713 24.793 5.40153 25.1186 6.29688 25.1186C6.76897 25.1186 7.24106 25.0209 7.66432 24.8256L10.5457 23.5721L12.1573 22.8558L13.2806 22.4C13.6062 22.2698 13.9155 22.1884 14.2573 22.1884C14.5992 22.1884 14.9248 22.2535 15.2341 22.4L16.3573 22.8884L16.2271 23.2302L15.348 25.493C15.0713 26.193 14.4364 26.2419 14.2411 26.2419C14.0457 26.2419 13.4108 26.1768 13.1341 25.493L12.2387 23.2465L12.0922 22.8884L10.4806 23.6047L10.6271 23.9628L11.4736 26.1442C11.9132 27.2837 13.0039 28.0163 14.2411 28.0163C15.4783 28.0163 16.569 27.2837 17.0085 26.1442L17.855 23.9628L18.0015 23.6047V23.5884L20.8829 24.8419C21.3225 25.0372 21.7783 25.1349 22.2504 25.1349C23.1457 25.1349 23.9759 24.793 24.6108 24.1744C25.5876 23.214 25.8643 21.7651 25.2946 20.5116L24.0411 17.7605L24.3666 17.6302L26.5806 16.7837C27.7364 16.3442 28.469 15.2698 28.469 14.0651C28.469 12.8442 27.7201 11.786 26.5806 11.3465ZM15.2341 5.61628C14.9085 5.76279 14.5992 5.82791 14.2573 5.82791C13.9155 5.82791 13.5736 5.76279 13.2806 5.61628L12.1411 5.12791L12.2876 4.76977L13.1829 2.50698C13.4597 1.80698 14.0946 1.75814 14.2899 1.75814C14.4852 1.75814 15.1201 1.82326 15.3969 2.50698L16.2922 4.76977L16.4387 5.12791L16.3899 5.14419L15.2341 5.61628ZM2.55269 15.107C1.85269 14.8302 1.78757 14.2116 1.78757 14.0163C1.78757 13.8209 1.85269 13.2023 2.55269 12.9256L4.86432 12.0465L5.22246 11.9L6.03641 13.6907C6.11781 13.9023 6.11781 14.1302 6.03641 14.3419L5.22246 16.1326L4.84804 15.986L2.55269 15.107ZM25.9457 15.1558L23.6504 16.0349L23.3248 16.1651L23.2922 16.1L22.4783 14.3093C22.3969 14.0977 22.3969 13.8698 22.4783 13.6581L23.2597 11.9326L23.2922 11.9488L23.6504 12.0954L25.9457 12.9744C26.6457 13.2512 26.7108 13.8698 26.7108 14.0651C26.7108 14.2605 26.6457 14.8791 25.9457 15.1558Z" fill="#A7A7A7"/>
<path d="M33.2551 20.7884H35.583V15.3186H41.7365V13.5117H35.583V9.0512H46.3761V7.21167H33.2551V20.7884Z" fill="#A7A7A7"/>
<path d="M55.1179 7.21167L47.5969 20.7884H50.0713L56.1597 9.49074L61.9713 20.7884H64.2504L57.0551 7.21167H55.1179Z" fill="#A7A7A7"/>
<path d="M77.2898 16.0515L70.5828 7.22827H68.7107V20.8213H70.6642V11.6562C70.6642 11.1678 70.6642 10.7934 70.6479 10.5004C70.6316 10.1911 70.6153 9.9306 70.5665 9.65385C70.7293 10.1585 71.0386 10.6794 71.4293 11.2492C71.4781 11.2818 71.4944 11.3306 71.4944 11.3306L76.9642 18.6725H77.5665L82.8246 11.119C82.9223 10.9725 83.0526 10.7608 83.1828 10.5329C83.3293 10.305 83.4921 10.012 83.6549 9.65385C83.6386 9.89804 83.606 10.2562 83.5898 10.7445C83.5572 11.2166 83.5409 11.5097 83.5409 11.6399V20.805H85.6572V7.22827H83.5409L77.2898 16.0515Z" fill="#A7A7A7"/>
<path d="M99.592 7.21191H97.6711L90.1501 20.7887H92.6409L98.7129 9.49098L104.525 20.7887H106.82L99.592 7.21191Z" fill="#A7A7A7"/>
</g>
<defs>
<clipPath id="clip0_15247_344">
<rect width="106.791" height="28" fill="white" transform="translate(0.029541)"/>
</clipPath>
</defs>
</svg>
