<svg width="156" height="32" viewBox="0 0 156 32" fill="none" xmlns="http://www.w3.org/2000/svg">
<g clip-path="url(#clip0_15247_330)">
<path d="M93.7912 28.3433V22.6768C93.7912 22.2721 94.2834 22.0681 94.5683 22.353L97.4016 25.1863C97.5797 25.3644 97.5797 25.6526 97.4016 25.8306L94.5683 28.6639C94.2801 28.9521 93.788 28.7481 93.788 28.3401" fill="#A7A7A7"/>
<path d="M38.8031 28.6996C37.5791 28.6996 36.4199 28.5118 35.3546 28.1394C34.2828 27.7638 33.3308 27.1971 32.5278 26.4589C31.7215 25.7174 31.0772 24.801 30.6141 23.7325C30.1511 22.6639 29.918 21.4205 29.918 20.0411C29.918 18.6617 30.1479 17.5025 30.598 16.4178C31.048 15.3266 31.6859 14.3778 32.4922 13.5942C33.2952 12.8106 34.2569 12.1986 35.3449 11.768C36.4329 11.3373 37.6406 11.1204 38.9326 11.1204C40.0724 11.1204 41.0989 11.2725 41.9796 11.5704C42.8636 11.8683 43.6213 12.2731 44.2333 12.775C44.8485 13.2801 45.3212 13.8792 45.6386 14.5559C45.9559 15.2326 46.1145 15.9612 46.1145 16.7254C46.1145 17.4895 45.9656 18.2311 45.6742 18.8754C45.373 19.5327 44.842 20.0994 44.094 20.5657C43.3622 21.0222 42.3714 21.3784 41.1442 21.631C39.9364 21.8803 38.3789 22.0066 36.5203 22.0066C36.0864 22.0066 35.6816 22.0034 35.306 21.9904C35.0243 21.9839 34.7297 21.971 34.4221 21.958C34.6293 22.8485 35.102 23.5641 35.8565 24.1372C36.6951 24.7751 37.9288 25.0989 39.5155 25.0989C40.0562 25.0989 40.5613 25.0568 41.0147 24.9726C41.468 24.8917 41.8825 24.7881 42.2484 24.6618C42.624 24.5322 42.9316 24.4092 43.1874 24.2862C43.4529 24.1566 43.6504 24.0627 43.7767 23.998L44.0034 23.8846L45.5868 26.896L45.386 27.0223C45.2111 27.1324 44.9359 27.2846 44.5635 27.4821C44.1815 27.6828 43.7055 27.8739 43.1518 28.0487C42.5948 28.2236 41.9472 28.379 41.2187 28.5085C40.4869 28.6381 39.6774 28.7028 38.8031 28.7028M34.2148 18.924C34.6099 18.9369 34.9919 18.9467 35.3578 18.9467H36.7113C37.8705 18.9467 38.8161 18.8722 39.5252 18.7265C40.2246 18.584 40.7718 18.3994 41.1539 18.176C41.5133 17.9688 41.7465 17.7389 41.8501 17.4928C41.9666 17.2273 42.0217 16.9456 42.0217 16.6606C42.0217 15.9353 41.74 15.4043 41.1604 15.0448C40.5484 14.666 39.7777 14.4717 38.8679 14.4717C38.1166 14.4717 37.4464 14.6045 36.883 14.8668C36.3163 15.129 35.8371 15.482 35.455 15.9159C35.0697 16.3498 34.7685 16.8581 34.5548 17.4313C34.3702 17.9202 34.2569 18.4253 34.2148 18.9305" fill="#A7A7A7"/>
<path d="M57.017 28.6996C55.7218 28.6996 54.514 28.4762 53.426 28.0358C52.3381 27.5955 51.3828 26.9802 50.5895 26.2096C49.793 25.4389 49.1648 24.4999 48.7115 23.4216C48.2582 22.3434 48.0315 21.1615 48.0315 19.9084C48.0315 18.6553 48.2484 17.4507 48.6791 16.3822C49.1098 15.3169 49.712 14.3779 50.473 13.5943C51.2371 12.8107 52.1438 12.1954 53.167 11.7648C54.1934 11.3341 55.3268 11.1172 56.5345 11.1172C57.8136 11.1172 58.9566 11.3697 59.9377 11.8716C60.6662 12.244 61.2847 12.6844 61.7834 13.1798V5.96548C61.7834 5.30816 61.9809 4.80951 62.3727 4.47923C62.7548 4.1619 63.2923 4 63.9723 4C64.3803 4 64.7623 4.05181 65.1088 4.15542C65.4423 4.2558 65.6625 4.32704 65.7758 4.37237L65.9377 4.43713V19.1345C65.9377 20.7244 65.7111 22.1329 65.261 23.318C64.8077 24.5064 64.1763 25.5102 63.3829 26.3067C62.5896 27.1 61.6377 27.7055 60.5529 28.1038C59.4779 28.4989 58.2863 28.6996 57.017 28.6996ZM57.0818 14.9186C56.3694 14.9186 55.725 15.0481 55.1584 15.2975C54.5917 15.55 54.0931 15.8997 53.6786 16.3336C53.2641 16.7675 52.9436 17.2953 52.7201 17.9041C52.4967 18.5128 52.3834 19.1863 52.3834 19.9084C52.3834 20.6305 52.4967 21.2975 52.7201 21.8933C52.9436 22.4923 53.2641 23.0137 53.6786 23.4476C54.0931 23.8847 54.5917 24.2312 55.1584 24.4837C56.269 24.9824 57.82 24.9921 58.9954 24.4999C59.5718 24.2571 60.0672 23.9203 60.472 23.4961C60.8767 23.0719 61.1973 22.5474 61.4304 21.9386C61.6668 21.3266 61.7866 20.6434 61.7866 19.9052C61.7866 19.209 61.6668 18.5484 61.4304 17.9364C61.1973 17.3277 60.8735 16.7934 60.4655 16.3433C60.0607 15.8997 59.5653 15.5468 58.9922 15.2942C58.4126 15.0417 57.7715 14.9154 57.0818 14.9154" fill="#A7A7A7"/>
<path d="M72.7247 28.2497H68.538V13.5329C68.538 12.8496 68.7452 12.3445 69.1532 12.0239C69.5418 11.7196 70.0825 11.5674 70.7592 11.5674C71.1672 11.5674 71.5526 11.6192 71.8958 11.726C72.2261 11.8264 72.4495 11.8977 72.5596 11.943L72.7247 12.0078V28.2529V28.2497Z" fill="#A7A7A7"/>
<path d="M83.7954 28.6996C82.1051 28.6996 80.7031 28.5506 79.6216 28.256C78.5303 27.9581 77.6561 27.5533 77.0182 27.0482C76.3706 26.5366 75.9173 25.9343 75.6777 25.2608C75.4445 24.6002 75.3247 23.917 75.3247 23.2273C75.3247 22.3174 75.4672 21.5047 75.7489 20.8118C76.0338 20.1026 76.5066 19.5036 77.1542 19.0276C77.7921 18.5581 78.6307 18.2019 79.6475 17.9688C80.648 17.7389 81.8817 17.6255 83.3097 17.6255C84.1159 17.6255 84.906 17.6515 85.6475 17.7065C86.2077 17.7486 86.6578 17.7874 87.0075 17.8198C86.9783 17.2402 86.8683 16.748 86.6707 16.353C86.4473 15.9029 86.1365 15.5467 85.7479 15.2942C85.3496 15.0351 84.8607 14.8538 84.2973 14.7534C83.7112 14.6498 83.0539 14.5948 82.348 14.5948C81.1629 14.5948 80.2044 14.7308 79.492 14.9963C78.7797 15.265 78.3102 15.4917 78.0997 15.6633L77.9346 15.7993L77.7694 15.6633C77.6237 15.5403 77.4359 15.3266 77.1963 15.0092C76.9372 14.666 76.8077 14.2451 76.8077 13.7626C76.8077 13.4194 76.8984 13.0794 77.0797 12.7523C77.2643 12.4188 77.5881 12.1274 78.0349 11.8781C78.4623 11.6417 79.042 11.4539 79.7543 11.3179C80.457 11.1851 81.3507 11.1204 82.4095 11.1204C83.6885 11.1204 84.8736 11.2466 85.9292 11.4992C86.9978 11.7518 87.9336 12.1598 88.7074 12.7167C89.491 13.2769 90.1095 14.0249 90.5466 14.9412C90.9805 15.8543 91.2007 16.965 91.2007 18.2408V28.1459L90.9935 28.188C90.7733 28.2333 90.4301 28.2786 89.9573 28.3369C89.4943 28.3887 88.9471 28.4438 88.3221 28.4988C87.6972 28.5506 86.9978 28.5992 86.2206 28.6445C85.45 28.6866 84.634 28.7093 83.7921 28.7093M83.436 20.7243C82.0339 20.7243 81.0074 20.9316 80.389 21.3428C79.7932 21.7346 79.505 22.3433 79.505 23.2047C79.505 23.5544 79.5665 23.8782 79.6928 24.1663C79.8094 24.4416 80.0231 24.678 80.321 24.8755C80.6383 25.0827 81.0787 25.2446 81.6324 25.3547C82.2023 25.468 82.9243 25.5263 83.7889 25.5263C84.7603 25.5263 85.5407 25.4907 86.1073 25.4162C86.525 25.3612 86.8326 25.3191 87.0431 25.2835V21.0093C86.8164 20.9704 86.4862 20.9186 86.0555 20.8571C85.4824 20.7729 84.6016 20.7308 83.4392 20.7308" fill="#A7A7A7"/>
<path d="M114.476 28.2497H110.289V13.5329C110.289 12.8496 110.496 12.3445 110.904 12.0239C111.289 11.7196 111.83 11.5674 112.51 11.5674C112.918 11.5674 113.3 11.6192 113.647 11.726C113.977 11.8264 114.2 11.8977 114.311 11.943L114.476 12.0078V28.2529V28.2497Z" fill="#A7A7A7"/>
<path d="M133.305 28.2496H129.118V19.1701C129.118 17.7843 128.785 16.7222 128.124 16.0131C127.47 15.3072 126.482 14.951 125.19 14.951C123.898 14.951 122.885 15.3072 122.244 16.0098C121.593 16.719 121.266 17.781 121.266 19.1701V28.2496H117.079V18.2344C117.079 17.127 117.29 16.1199 117.701 15.2424C118.112 14.3649 118.685 13.6105 119.41 12.9985C120.126 12.3897 120.991 11.9202 121.975 11.5964C122.956 11.2791 124.038 11.1172 125.194 11.1172C126.35 11.1172 127.438 11.2791 128.428 11.5964C129.426 11.917 130.293 12.3897 131.012 12.9985C131.734 13.6105 132.308 14.3682 132.706 15.2457C133.104 16.1232 133.308 17.127 133.308 18.2344V28.2496H133.305Z" fill="#A7A7A7"/>
<path d="M144.693 28.6996C143.398 28.6996 142.19 28.4762 141.102 28.0358C140.011 27.5955 139.059 26.9802 138.265 26.2096C137.469 25.4389 136.841 24.4999 136.387 23.4216C135.934 22.3434 135.707 21.1615 135.707 19.9084C135.707 18.6553 135.924 17.4507 136.355 16.3822C136.786 15.3169 137.388 14.3779 138.149 13.5943C138.91 12.8107 139.816 12.1954 140.843 11.7648C141.869 11.3341 143.003 11.1172 144.21 11.1172C145.489 11.1172 146.632 11.3697 147.614 11.8716C148.342 12.244 148.961 12.6844 149.459 13.1798V5.96548C149.459 5.30816 149.657 4.80951 150.052 4.47923C150.431 4.1619 150.968 4 151.651 4C152.063 4 152.441 4.05181 152.788 4.15542C153.121 4.2558 153.342 4.32704 153.455 4.37237L153.617 4.43713V19.1345C153.617 20.7244 153.39 22.1329 152.94 23.318C152.487 24.5064 151.855 25.5102 151.062 26.3067C150.269 27.1 149.317 27.7055 148.232 28.1038C147.157 28.4989 145.965 28.6996 144.696 28.6996M144.761 14.9186C144.052 14.9186 143.404 15.0481 142.838 15.2975C142.271 15.55 141.772 15.8997 141.358 16.3336C140.943 16.7675 140.623 17.2953 140.399 17.9041C140.176 18.516 140.059 19.1896 140.059 19.9084C140.059 20.6272 140.173 21.2943 140.396 21.8933C140.619 22.4923 140.943 23.0137 141.355 23.4476C141.769 23.8847 142.268 24.2312 142.834 24.4837C143.945 24.9824 145.499 24.9921 146.671 24.4967C147.244 24.2538 147.743 23.9171 148.148 23.4929C148.553 23.0687 148.876 22.5441 149.106 21.9354C149.343 21.3234 149.463 20.6402 149.463 19.9019C149.463 19.2057 149.343 18.5452 149.11 17.9332C148.876 17.3245 148.553 16.7902 148.145 16.3401C147.74 15.8965 147.244 15.5435 146.668 15.291C146.092 15.0384 145.447 14.9121 144.758 14.9121" fill="#A7A7A7"/>
<path d="M105.461 28.447C104.891 28.447 104.321 28.23 103.887 27.7961L94.4583 18.367C93.5873 17.496 93.5873 16.0875 94.4583 15.2164L103.887 5.78732C104.758 4.91953 106.167 4.91953 107.038 5.78732C107.909 6.65834 107.909 8.06688 107.038 8.93791L99.1826 16.7933L107.038 24.6488C107.909 25.5198 107.909 26.9284 107.038 27.7994C106.604 28.2333 106.031 28.4502 105.461 28.4502" fill="#A7A7A7"/>
<path d="M95.6272 5.12354C96.2489 5.12354 96.7767 5.33724 97.2041 5.7679C97.6315 6.19856 97.8484 6.72312 97.8484 7.34482C97.8484 7.96652 97.6347 8.49431 97.2041 8.92497C96.7767 9.35563 96.2489 9.56934 95.6272 9.56934C95.0055 9.56934 94.4777 9.35563 94.0502 8.92497C93.6196 8.49431 93.4059 7.96976 93.4059 7.34482C93.4059 6.71988 93.6196 6.19532 94.0502 5.7679C94.4809 5.33724 95.0055 5.12354 95.6272 5.12354Z" fill="#A7A7A7"/>
<path d="M25.9418 5.30813C25.1096 4.96166 24.1511 5.15595 23.5133 5.7906L13.3038 16.0001L9.32425 12.0205C9.32425 12.0205 9.31777 12.0173 9.31777 12.0141L6.42946 9.12576C5.55843 8.25797 4.14989 8.25797 3.27887 9.12576C2.84497 9.56289 2.62802 10.1393 2.63126 10.7156V26.4718C2.63126 27.7023 3.62857 28.6996 4.85902 28.6996C6.08947 28.6996 7.08678 27.7023 7.08678 26.4718V16.0778L8.83855 17.8296C8.83855 17.8296 8.84179 17.8296 8.84502 17.8328L11.7333 20.7211C12.6011 21.5889 14.0129 21.5889 14.8839 20.7211L22.8657 12.7394V26.4718C22.8657 27.7023 23.863 28.6996 25.0934 28.6996C26.3239 28.6996 27.3212 27.7023 27.3212 26.4718V7.36428C27.3212 6.46411 26.7772 5.65136 25.945 5.30813" fill="#A7A7A7"/>
</g>
<defs>
<clipPath id="clip0_15247_330">
<rect width="150.982" height="24.8" fill="white" transform="translate(2.63086 4)"/>
</clipPath>
</defs>
</svg>
