<svg width="60" height="78" viewBox="0 0 60 78" fill="none" xmlns="http://www.w3.org/2000/svg">
<path d="M59.6027 67.9328C59.6027 70.479 58.5602 71.959 56.5212 72.7464C48.5964 75.7998 39.2123 77.3717 30.288 77.3717C21.3593 77.3717 11.9753 75.7983 4.05197 72.7464C2.01293 71.959 0.968948 70.479 0.968948 67.9328V0.294678H59.6027V67.9328Z" fill="#0B110D"/>
<path d="M59.298 67.9328C59.298 69.165 59.0459 70.1085 58.5717 70.8321C58.0988 71.5539 57.386 72.0858 56.4114 72.4622C48.5259 75.5003 39.1798 77.067 30.288 77.067C21.3919 77.067 12.0457 75.4989 4.16173 72.4622C3.18709 72.0858 2.47391 71.5538 2.00061 70.8321C1.5261 70.1084 1.27364 69.165 1.27364 67.9328V0.599365H59.298V67.9328Z" stroke="white" stroke-opacity="0.2" stroke-width="0.609375"/>
<path d="M18.8235 41.0945C11.9766 36.82 9.71809 34.9279 9.523 32.1241C9.49048 31.5563 9.62054 30.5946 9.8594 29.9093L9.2141 29.4816C8.69887 30.3045 8.36996 31.3862 8.36996 32.378C8.36996 33.9987 8.88645 35.2243 9.523 36.2035C10.4847 37.6842 11.4964 38.6158 13.9901 40.4867C16.6763 42.5014 18.5096 44.8537 19.5651 47.3173H19.9466V44.5223C23.5745 46.5833 26.776 48.5191 28.3504 51.9832H28.7306C28.1141 48.3941 26.0831 45.6266 18.8235 41.0945ZM50.3606 51.9883H49.8929C49.8929 49.4346 47.5505 48.7355 45.0982 48.7355H37.4296C37.6772 49.9961 37.791 51.4705 37.6022 52.8637H37.2195C36.5105 47.121 33.2665 44.2797 28.7294 41.232V43.8482H28.3479C27.1411 41.1495 24.4937 38.6208 21.9875 36.825C21.3209 36.3498 20.6269 35.8571 19.9428 35.3706V38.1856H19.5614C18.4984 35.3918 16.5687 33.3071 13.8162 30.8222C10.8411 28.146 9.6443 26.544 8.94648 24.7019C8.52379 23.5864 8.40623 22.6847 8.38997 21.4604C8.36371 19.2707 9.47297 17.2922 10.8511 16.5544V17.6149C10.1683 18.5191 9.81438 19.6683 9.81188 20.8326C9.80813 21.9094 10.0657 23.1049 10.601 24.1229C12.2755 27.3094 17.9156 31.2212 21.4948 33.626C32.6312 41.0945 34.8547 42.3976 36.703 46.3607C36.9094 46.8021 37.1145 47.3949 37.2858 48.0865C38.8941 47.8376 44.7305 46.9472 45.8047 46.7771C46.0136 46.7433 46.4425 46.6921 46.6651 46.6771C47.6719 46.0418 48.4547 45.2314 49.1413 44.2209L44.8768 43.8895C44.6555 44.3785 44.4391 44.7912 44.2478 45.1201H43.8976C44.0152 44.6874 44.1165 44.2597 44.2053 43.8382L43.1122 43.7607V43.5256L44.294 43.3793C44.5191 42.1725 44.6279 41.0294 44.6492 39.9627L39.2705 39.6563C39.2442 40.2091 39.2392 40.7281 39.258 41.212H38.9153C38.7978 40.6743 38.7077 40.1415 38.6402 39.6225L37.4621 39.5525V39.1948L38.5827 39.1336C38.4251 37.7092 38.4151 36.3823 38.4714 35.2405L35.3287 35.0992C35.475 35.3768 35.6288 35.6532 35.7363 35.9596C36.4167 37.8567 36.2541 40.0778 36.0315 41.102H35.6501C35.5938 39.9189 35.1973 38.467 34.8184 37.5841C33.9493 35.5344 31.9996 33.7211 28.7281 31.6201V34.2388H28.3467C27.2599 30.7997 24.5512 28.8851 20.5256 26.8179C17.204 25.1133 16.1723 23.0587 16.3599 19.8797L17.4829 20.545C17.7693 23.5164 20.0529 25.2347 22.4452 25.2171C23.8534 25.2046 25.1727 25.0171 26.4458 24.7644C28.2867 24.3905 29.9899 24.0766 31.4118 24.5781V22.8235H30.2938C29.8936 23.1674 29.0833 23.5664 27.8915 23.5876C26.5821 23.6102 24.1035 22.8561 24.1035 20.086C24.1035 17.6799 26.1382 17.2947 27.7952 17.2947C28.6856 17.2947 30.1613 17.2635 30.6615 17.2372C31.0304 17.2122 31.3081 17.1572 31.4894 16.9771C31.677 16.7933 31.7332 16.6032 31.7758 16.3568C31.8283 16.0579 31.8283 15.754 31.8283 15.2375V13.4792H24.146V16.5244L21.2384 15.4176V14.6885H22.629V13.4792H17.4479V10.9531H15.6821C14.7392 10.9531 13.6499 11.6159 13.5711 12.8977C13.4998 14.127 14.0526 15.1638 15.3194 15.1638H15.5458V16.6357H15.3194C13.0996 16.6357 11.4289 14.9699 11.4289 12.7589C11.4289 10.4528 13.391 8.69702 15.7659 8.69702H19.5126V11.2244H34.0881V14.9599C34.0881 15.5902 34.0518 16.4343 33.9918 16.9671C33.9468 17.3573 33.8105 18.0563 33.0751 18.6191C32.6287 18.9568 31.9584 19.0931 30.8729 19.0981C30.5164 19.0993 29.4835 19.0831 28.2454 19.0055C26.5846 18.8992 26.1119 19.542 26.0444 20.1373C26.0306 20.2624 26.0306 20.3837 26.0469 20.5C26.8247 19.8997 27.9252 19.4732 29.1733 19.8684C31.3718 20.56 32.0009 20.62 33.1464 19.7209L33.2627 19.9772C33.1376 20.1686 32.9188 20.4437 32.5974 20.6876H33.6591V26.4427L36.9657 24.4593H46.25C46.25 24.4593 50.1718 26.509 50.8158 26.8466C51.3861 27.1468 51.6099 27.5095 51.6975 28.0409C51.7737 28.4849 51.6562 29.0477 51.4398 29.4078C51.3035 29.6329 50.2368 31.38 49.6753 32.3129C51.2523 34.02 52.3165 36.4086 52.3165 39.0685C52.3165 41.4797 51.4248 44.5886 48.5272 46.8997C49.8028 47.3173 50.6195 48.0127 51.261 48.9268L50.3606 51.9883ZM29.6623 20.9977C28.3579 20.7113 27.6301 20.8726 26.881 21.5867C27.2487 21.7618 27.7076 21.8568 28.2141 21.8231C28.9482 21.7706 29.4009 21.3329 29.6623 20.9977ZM28.9107 29.2903L32.5849 27.088C31.8621 26.7316 31.0642 26.5027 30.1188 26.4915C28.8519 26.469 26.7147 27.0492 25.683 27.2106C26.1444 27.5245 27.7827 28.5724 28.9107 29.2903ZM45.3095 29.5241L45.8185 28.8063L45.0306 27.7571L45.1619 27.5232L47.3767 28.7175L46.8927 30.1832C47.2517 30.3558 47.5806 30.5709 48.017 30.861L49.4502 28.5074L45.7397 26.569H37.5447L30.8916 30.5709C32.1397 31.4388 33.2927 32.3767 34.1093 33.3221C35.8902 30.7272 39.0229 29.0752 42.1255 29.0752C43.1398 29.0764 44.3203 29.1852 45.3095 29.5241ZM44.643 38.8134C44.5979 37.5891 44.4466 36.4811 44.2403 35.5044L39.897 35.3081C39.6006 36.6299 39.403 37.9193 39.313 39.0973L44.643 38.8134ZM46.1036 35.5907C46.2424 36.7125 46.26 37.7617 46.1862 38.7309L50.4894 38.5058C50.3814 37.5497 50.1094 36.6194 49.6853 35.7558L46.1036 35.5907ZM43.9126 34.1825C43.4624 32.6281 42.9259 31.5488 42.6433 31.0411C42.4617 31.0304 42.2799 31.0254 42.098 31.0261C41.7941 31.0261 41.4903 31.0648 41.1964 31.0961C40.7624 32.1829 40.4085 33.2796 40.1209 34.3926L43.9126 34.1825ZM45.1057 31.5738C45.4271 32.438 45.6684 33.2709 45.8448 34.075L48.4735 33.9312C47.5619 32.8803 46.4051 32.0706 45.1057 31.5738ZM49.9442 42.6727C50.2518 41.9236 50.4481 41.2045 50.5069 40.2941L46.0348 40.0402C45.831 41.2933 45.4984 42.3826 45.1407 43.2742L49.9442 42.6727ZM38.9153 31.7502C37.4184 32.4205 36.3854 33.3321 35.4625 34.6402L38.5239 34.4802C38.6339 33.1208 38.8128 32.2166 38.9153 31.7502Z" fill="white" fill-opacity="0.8"/>
<path d="M33.2365 58.5939C34.4846 58.3913 35.6752 57.4208 35.6752 55.9539C35.6752 54.632 35.1124 53.1801 31.2206 53.1801H24.6501V53.2864C24.8489 53.3477 25.1653 53.509 25.3716 53.7091C25.8169 54.1481 25.9657 54.7971 25.9832 55.6625V65.4958H31.4269C34.4208 65.4958 36.5881 64.3565 36.5881 61.7366C36.5893 59.6093 34.9323 58.7052 33.2365 58.5939ZM30.4352 54.3519C31.8284 54.3519 32.7726 54.6558 32.7726 56.1415C32.7726 57.7272 31.5082 58.1637 30.0638 58.1637H28.8195V54.3519H30.4352ZM30.5766 64.3328H28.8195V59.3029H30.4965C32.8001 59.3029 33.683 59.992 33.683 61.7165C33.6817 63.5812 32.5275 64.3328 30.5766 64.3328ZM19.8053 65.4933H23.3532L18.8236 59.7044C20.6382 59.2179 21.9976 58.2237 21.9976 56.4191C21.9976 54.3019 20.7283 53.1789 17.4142 53.1789H10.5586V53.2852C10.8124 53.3727 11.0938 53.5365 11.2801 53.7179C11.7591 54.1918 11.9029 54.9147 11.9029 55.8901V65.4933H14.748V60.037H15.786L19.8053 65.4933ZM14.7492 54.3519H16.6639C18.2609 54.3519 19.0938 54.8196 19.0938 56.5129C19.0938 58.0261 18.0057 58.924 16.2562 58.924H14.7492V54.3519ZM48.0946 54.8684C48.8537 55.2961 49.0863 55.8626 49.0926 55.8676C49.1276 55.9089 49.2102 55.8951 49.2102 55.8951L49.8292 53.7879C49.8292 53.7879 48.7174 52.9888 46.0712 52.9888C42.0669 52.9888 39.0692 55.006 39.0692 59.4205C39.0692 64.394 42.6396 65.6859 45.7898 65.6859C48.7174 65.6859 49.8705 64.753 49.8705 64.753V63.3098C49.8705 63.3098 48.8337 64.2752 46.614 64.2752C44.7844 64.2752 42.0906 63.4373 42.0368 59.3505C41.9818 55.5725 43.6288 54.3431 45.8323 54.3431C47.0629 54.3431 47.6769 54.632 48.0946 54.8684Z" fill="white" fill-opacity="0.8"/>
</svg>
