<svg width="86" height="32" viewBox="0 0 86 32" fill="none" xmlns="http://www.w3.org/2000/svg">
<g clip-path="url(#clip0_15247_493)">
<path d="M0.770668 10.2154C0.588121 10.0718 0.446139 9.90769 0.324441 9.72308C0.202743 9.53846 0.101328 9.33333 0.0607621 9.10769C-8.69746e-05 8.92308 -8.69746e-05 8.71795 0.0404791 8.51282L0.446139 6.76923H5.17208L5.07067 7.15897C5.05039 7.24103 5.05039 7.32308 5.11123 7.38462C5.1518 7.44615 5.21265 7.48718 5.29378 7.50769H10.2428L1.86595 4.98462C1.64284 4.92308 1.46029 4.8 1.31831 4.6359C1.17633 4.49231 1.11548 4.28718 1.13576 4.08205L1.64284 1.88718C1.70369 1.68205 1.8051 1.47692 1.94708 1.31282C2.12963 1.08718 2.31218 0.882051 2.53529 0.697436C2.73812 0.512821 2.98152 0.348718 3.22491 0.205128C3.42774 0.0820513 3.65086 0.0205128 3.89425 0H15.1919C15.3947 0 15.5976 0.0615385 15.7598 0.205128C15.9424 0.348718 16.0843 0.512821 16.206 0.697436C16.3277 0.882051 16.4089 1.10769 16.4697 1.31282C16.5306 1.49744 16.5306 1.70256 16.49 1.88718L16.0641 3.65128H11.3381L11.4395 3.26154C11.4598 3.17949 11.4598 3.09744 11.4193 3.0359C11.3787 2.97436 11.3178 2.91282 11.2367 2.91282H6.28765L14.7051 5.4359C14.9282 5.49744 15.131 5.62051 15.273 5.80513C15.3947 5.94872 15.4556 6.13333 15.415 6.33846L14.8674 8.53333C14.8065 8.75897 14.7051 8.94359 14.5631 9.12821C14.3806 9.35385 14.198 9.55897 13.9749 9.74359C13.7721 9.92821 13.5287 10.0923 13.2853 10.2359C13.0825 10.359 12.8593 10.4205 12.6362 10.441H1.33859C1.13576 10.4205 0.932932 10.359 0.770668 10.2154Z" fill="#A7A7A7"/>
<path d="M16.7944 0H23.3053L21.5406 7.13846C21.5204 7.22051 21.5204 7.30256 21.5812 7.3641C21.6218 7.44615 21.7029 7.48718 21.784 7.48718H27.0982C27.1996 7.48718 27.2807 7.44615 27.3416 7.3641C27.4024 7.30256 27.4633 7.22051 27.4836 7.13846L29.2685 0H33.9944L31.9053 8.53333C31.8444 8.75897 31.743 8.94359 31.601 9.12821C31.4185 9.35385 31.2359 9.55897 31.0128 9.74359C30.81 9.92821 30.5666 10.0923 30.3232 10.2359C30.1204 10.359 29.8972 10.4205 29.6538 10.441H17.8086C17.6057 10.441 17.4029 10.3795 17.2406 10.2359C17.0581 10.0923 16.9161 9.92821 16.7944 9.74359C16.6727 9.55897 16.5713 9.35385 16.5307 9.12821C16.4699 8.94359 16.4699 8.73846 16.5104 8.53333L18.1128 2.03077L16.7944 0Z" fill="#A7A7A7"/>
<path d="M50.2612 0H66.366L65.6358 2.93333H56.0825L55.8999 3.75385H63.1409L62.4108 6.66667H55.1697L54.9872 7.48718H64.5405L63.8103 10.4205H49.4905L51.5593 2.03077L50.2612 0Z" fill="#A7A7A7"/>
<path d="M64.2566 12.9436L67.441 0H80.9901C81.2132 0 81.4566 0.0615385 81.6391 0.205128C81.8217 0.348718 81.9637 0.512821 82.0854 0.697436C82.2071 0.882051 82.2882 1.10769 82.349 1.31282C82.4099 1.49744 82.4099 1.70256 82.3693 1.88718L81.5783 5.10769C81.4972 5.47692 81.3755 5.82564 81.2132 6.17436C81.0712 6.46154 80.8887 6.72821 80.625 6.93333C80.341 7.15897 80.0368 7.30256 79.692 7.40513C79.2255 7.5282 78.759 7.58974 78.2924 7.58974H78.0896L80.9292 10.441H75.5542L71.6396 6.5641L72.0656 4.84103H76.6292C76.8118 4.84103 76.9335 4.71795 76.9943 4.49231L77.2986 3.28205C77.3189 3.2 77.2986 3.11795 77.258 3.05641C77.2174 2.97436 77.1566 2.93333 77.0755 2.93333H71.4165L69.5707 10.4205L64.2566 12.9436Z" fill="#A7A7A7"/>
<path d="M6.40954 11.5283H11.7643L10.2633 17.6822H17.1393L16.5308 20.1027H5.78076L7.48454 13.2104L6.40954 11.5283Z" fill="#A7A7A7"/>
<path d="M18.0316 11.5283H31.2765L30.668 13.9488H22.8184L22.6562 14.6258H28.5991L27.9906 17.0258H22.0477L21.8854 17.7027H29.7349L29.1265 20.1232H17.3623L19.0661 13.2309L18.0316 11.5283Z" fill="#A7A7A7"/>
<path d="M58.1515 11.5283H63.5062L62.0661 17.395C62.0459 17.4565 62.0661 17.5386 62.1067 17.5796C62.1473 17.6411 62.2081 17.6822 62.269 17.6822H66.6501C66.7312 17.6822 66.7921 17.6411 66.8529 17.5796C66.9138 17.5181 66.9543 17.4565 66.9746 17.395L68.4147 11.5283H72.2888L70.5647 18.5437C70.5039 18.7283 70.4227 18.8924 70.301 19.036C70.1591 19.2206 69.9968 19.3847 69.8143 19.5488C69.6317 19.7129 69.4492 19.836 69.2463 19.9591C69.0841 20.0617 68.8812 20.1027 68.6987 20.1232H58.9628C58.8006 20.1232 58.6383 20.0617 58.4963 19.9591C58.3543 19.8565 58.2326 19.7129 58.1312 19.5488C58.0298 19.3847 57.9487 19.2206 57.9081 19.036C57.8676 18.8719 57.8473 18.7078 57.8878 18.5437L59.2062 13.2104L58.1515 11.5283Z" fill="#A7A7A7"/>
<path d="M72.7553 11.5283H86.0001L85.3916 13.9488H77.5421L77.3798 14.6258H83.3227L82.7142 17.0258H76.7713L76.6091 17.7027H84.4586L83.8501 20.1232H72.0859L73.7897 13.2309L72.7553 11.5283Z" fill="#A7A7A7"/>
<path d="M48.2533 14.2154C48.2938 14.1538 48.3344 14.0923 48.375 14.0308C48.4155 13.9692 48.4967 13.9282 48.5575 13.9282H57.0561L57.6646 11.5077H46.4886C46.1641 11.5077 45.8396 11.6103 45.5556 11.7949C45.3122 11.9385 45.1094 12.1436 44.9471 12.3692C44.7849 12.5744 44.6834 12.8 44.6226 13.0667L43.8721 16.2051L41.2962 7.73333H46.7523C47.1377 7.69231 47.5028 7.54872 47.807 7.32308C48.091 7.13846 48.3547 6.91282 48.5778 6.64615C48.7806 6.42051 48.9023 6.13333 48.9834 5.82564L49.957 1.86667C49.9976 1.68205 49.9773 1.47692 49.9367 1.29231C49.8759 1.06667 49.7948 0.861538 49.6731 0.676923C49.5514 0.492308 49.4094 0.328205 49.2268 0.184615C49.0849 0.0615385 48.882 0 48.6792 0H35.049L30.8504 17.0667L37.5438 9.02564L39.0448 2.93333H44.7037C44.7849 2.93333 44.8457 2.97436 44.8863 3.05641C44.9268 3.11795 44.9471 3.2 44.9268 3.28205L44.6226 4.53333C44.6023 4.61538 44.5415 4.69744 44.4806 4.73846C44.4198 4.8 44.3386 4.82051 44.2575 4.84103H39.6938L38.9434 7.75385H39.8764L19.7556 32L38.8217 22.8308L47.3811 27.7333L45.0688 20.1026H51.7014L51.1943 22.1744L55.5754 20.1026L56.9344 14.6256H49.6934L49.0849 17.0256H52.4518L52.3504 17.4154C52.3301 17.4769 52.2896 17.559 52.2287 17.6C52.1679 17.6615 52.107 17.6821 52.0259 17.7026H47.6651C47.6042 17.7026 47.5231 17.6615 47.5028 17.6C47.4622 17.5385 47.4419 17.4769 47.4622 17.4154L48.2533 14.2154ZM38.7405 21.1897L24.8061 27.9795L39.8764 9.96923L38.7405 21.1897Z" fill="#A7A7A7"/>
</g>
<defs>
<clipPath id="clip0_15247_493">
<rect width="86" height="32" fill="white"/>
</clipPath>
</defs>
</svg>
